<?xml version="1.0" standalone="no"?>
<!DOCTYPE svg PUBLIC "-//W3C//DTD SVG 20010904//EN"
 "http://www.w3.org/TR/2001/REC-SVG-20010904/DTD/svg10.dtd">
<svg version="1.0" xmlns="http://www.w3.org/2000/svg"
 width="1024.000000pt" height="1024.000000pt" viewBox="0 0 1024.000000 1024.000000"
 preserveAspectRatio="xMidYMid meet">
<metadata>
Created by potrace 1.16, written by Peter Selinger 2001-2019
</metadata>
<g transform="translate(0.000000,1024.000000) scale(0.100000,-0.100000)"
fill="#02DEF0" stroke="none">
<path d="M8985 10148 c-109 -143 -275 -340 -410 -489 -146 -160 -308 -308
-610 -553 -121 -99 -239 -197 -262 -219 -50 -48 -85 -124 -88 -190 -2 -47 -2
-49 -51 -71 -72 -33 -130 -103 -155 -188 l-21 -68 -44 0 c-74 0 -81 -4 -464
-290 -524 -390 -657 -499 -688 -561 -18 -35 -33 -47 -111 -85 -147 -72 -253
-196 -237 -276 8 -39 -25 -104 -56 -111 -18 -5 -50 -51 -125 -179 -129 -220
-126 -215 -119 -251 7 -32 -9 -98 -32 -135 -17 -27 -13 -58 24 -189 14 -51 24
-103 20 -115 -3 -13 -46 -74 -96 -136 -49 -62 -92 -123 -94 -135 -3 -12 -7
-34 -11 -49 -3 -16 -12 -28 -20 -28 -29 0 -54 -40 -81 -127 -14 -48 -55 -163
-90 -255 -62 -162 -71 -198 -58 -232 8 -21 67 -57 109 -66 83 -19 209 45 290
147 68 86 148 223 149 258 1 35 61 115 74 100 5 -6 19 -75 31 -155 43 -273 52
-311 77 -333 19 -16 24 -31 24 -65 0 -39 10 -60 68 -151 38 -58 95 -154 127
-213 71 -130 99 -160 154 -162 111 -2 177 156 137 329 -31 132 -67 237 -89
259 -27 26 -51 91 -40 108 4 7 10 57 13 111 l5 98 50 -88 c28 -49 60 -92 72
-98 12 -5 25 -21 28 -35 9 -40 23 -52 145 -132 63 -42 153 -103 200 -137 97
-70 118 -78 161 -61 69 29 84 154 31 263 -41 83 -187 237 -224 237 -36 0 -50
21 -52 80 -1 27 -1 50 -1 50 15 -9 108 -30 131 -30 41 0 54 21 54 85 0 59 -26
110 -85 164 -42 39 -154 101 -182 101 -6 0 -19 10 -27 22 -14 19 -13 23 4 46
20 25 62 146 75 215 5 24 16 44 31 54 18 11 24 25 24 49 0 32 12 45 24 25 4
-5 28 -14 54 -20 63 -13 126 1 174 39 32 26 42 29 81 24 41 -6 53 -2 153 55
60 34 123 77 139 95 45 50 88 58 177 34 47 -12 92 -18 128 -15 65 5 80 1 80
-22 0 -9 8 -33 19 -54 17 -34 18 -37 1 -42 -33 -11 -50 -42 -86 -160 -24 -81
-34 -132 -31 -160 2 -27 -2 -48 -14 -66 -10 -14 -21 -37 -24 -52 -5 -20 -13
-27 -31 -27 -20 0 -36 -17 -79 -84 -68 -104 -130 -232 -150 -311 -21 -84 -20
-219 4 -270 22 -47 74 -99 114 -114 36 -14 93 -14 118 -1 10 6 59 63 107 128
49 64 129 161 178 215 49 54 99 117 111 139 12 23 31 51 42 62 26 29 51 80 53
111 1 14 10 27 19 30 10 4 32 42 52 89 65 155 147 385 147 413 1 41 25 68 63
68 38 0 61 30 107 141 62 149 138 490 147 655 l6 105 -31 36 c-28 32 -30 38
-22 69 6 19 10 45 10 60 0 21 8 29 55 48 30 13 55 27 55 32 0 18 62 40 140 50
222 27 353 115 445 299 18 36 47 99 64 140 17 41 51 101 76 133 52 66 133 129
156 121 20 -6 43 13 206 162 l132 122 64 4 c59 3 72 9 200 88 110 68 137 89
137 108 0 12 -2 22 -4 22 -3 0 -62 -36 -131 -80 -78 -49 -124 -74 -120 -63 21
53 45 128 45 143 0 11 36 41 95 80 84 56 127 90 112 90 -3 0 -48 -29 -100 -65
-52 -36 -98 -65 -101 -65 -3 0 -6 10 -6 23 0 12 -16 95 -36 183 -21 89 -34
168 -31 177 3 9 67 62 141 118 75 56 136 106 136 111 0 7 -4 7 -12 1 -7 -6
-60 -45 -118 -88 -58 -43 -117 -89 -131 -102 -20 -18 -33 -22 -53 -17 -14 3
-28 10 -31 14 -3 5 73 66 169 137 135 98 175 133 176 150 0 19 -28 2 -182
-112 -101 -75 -189 -147 -196 -161 -8 -15 -12 -44 -10 -66 l4 -39 -119 -85
-118 -86 -52 12 c-68 16 -72 19 -49 36 15 10 27 11 55 2 34 -10 39 -9 101 36
64 46 66 48 66 90 l0 44 249 188 c198 150 250 194 250 212 1 13 -3 22 -8 20
-10 -3 -589 -443 -791 -601 -208 -161 -273 -282 -287 -529 l-6 -107 -37 -26
c-20 -14 -42 -25 -49 -25 -19 0 -89 -55 -144 -114 -28 -29 -50 -46 -53 -39 -3
6 -23 36 -44 67 l-39 55 120 96 c65 52 126 106 134 119 10 15 24 97 40 228 14
113 28 213 31 222 6 15 131 130 602 549 115 103 146 126 157 117 23 -19 75 24
75 60 0 24 23 49 148 161 136 122 170 157 144 148 -9 -4 -540 -474 -952 -843
-96 -86 -180 -167 -187 -180 -7 -13 -24 -117 -37 -231 -29 -241 -15 -214 -184
-350 l-103 -83 -64 33 c-35 19 -85 36 -112 40 -79 10 -87 17 -122 101 -42 99
-72 139 -142 184 -47 30 -188 94 -272 123 -14 5 7 28 98 112 63 58 118 105
122 105 4 0 26 -7 50 -16 39 -15 47 -15 111 1 38 9 82 25 99 34 33 21 624 585
993 950 159 157 240 244 231 248 -8 3 -72 -53 -167 -148 -85 -85 -154 -149
-154 -144 0 14 112 168 172 238 28 31 46 57 41 57 -13 0 -137 -151 -191 -232
-25 -38 -50 -68 -57 -68 -9 0 -142 37 -233 66 -20 6 -6 39 59 137 33 49 59 90
59 93 0 2 -6 4 -14 4 -7 0 -33 -30 -57 -67 -65 -101 -241 -285 -631 -660 -192
-186 -356 -349 -363 -363 -7 -14 -16 -42 -20 -61 -6 -32 -4 -36 22 -48 l28
-13 -85 -80 c-47 -44 -100 -91 -118 -105 l-33 -26 -89 27 c-49 15 -110 28
-136 28 -57 0 -74 -18 176 184 485 392 661 573 1089 1117 l53 67 -29 -1 c-23
0 -39 -15 -98 -91z m260 -182 c50 -14 109 -32 133 -39 l42 -13 -45 -44 c-44
-43 -45 -43 -45 -18 0 34 -11 41 -107 72 -66 20 -88 24 -110 15 -16 -5 -134
-115 -263 -242 -129 -128 -315 -310 -413 -404 -134 -129 -179 -178 -183 -202
-7 -33 -24 -43 -24 -13 1 47 50 103 288 332 139 133 335 325 435 426 143 144
183 180 191 169 6 -8 52 -25 101 -39z m-29 -67 c125 -38 125 -53 -1 -179 l-95
-94 -57 13 c-32 7 -68 13 -81 13 -20 0 -23 4 -18 24 4 13 3 24 -1 24 -5 0 -89
-78 -187 -172 -98 -95 -188 -176 -200 -179 -16 -5 -17 -8 -6 -12 8 -3 50 -18
93 -34 42 -15 77 -30 77 -34 0 -3 -48 -53 -107 -111 -108 -104 -108 -105 -184
-122 -73 -17 -79 -18 -128 -1 -28 9 -51 22 -51 28 0 31 62 97 376 400 187 179
362 351 391 382 44 47 79 72 104 74 4 1 38 -8 75 -20z m687 -234 c-12 -9 -21
-10 -28 -4 -7 7 -2 16 15 29 21 16 25 17 28 4 2 -9 -5 -22 -15 -29z m-1107
-154 l-149 -149 56 -17 c64 -18 88 -17 95 5 4 13 3 13 -11 2 -9 -8 -25 -11
-36 -7 -20 6 -20 7 -3 24 28 29 62 33 71 8 l8 -22 7 23 c9 28 -1 45 -25 39
-11 -3 -16 -1 -13 4 11 18 -28 22 -44 4 -16 -17 -16 -17 1 -12 21 8 23 -8 2
-17 -8 -3 -15 -1 -15 4 0 6 -5 10 -11 10 -5 0 -9 -10 -7 -22 2 -18 -2 -23 -19
-23 -13 0 -23 3 -23 7 1 4 61 66 135 139 l134 131 67 -22 66 -22 -85 -86 c-48
-47 -90 -83 -94 -79 -4 5 -2 17 5 27 19 31 13 38 -8 11 -16 -18 -18 -27 -9
-38 7 -7 10 -15 8 -16 -2 -2 -31 -28 -64 -59 -33 -30 -73 -58 -90 -62 -22 -5
-26 -4 -15 4 9 5 10 10 3 10 -6 0 -20 3 -30 6 -15 5 -15 4 -3 -5 17 -12 10
-14 -14 -5 -9 3 -14 10 -11 14 3 4 -9 13 -26 20 l-31 13 154 154 c84 84 157
153 163 153 5 0 -57 -67 -139 -149z m289 109 c13 -5 14 -9 5 -9 -8 0 -24 4
-35 9 -13 5 -14 9 -5 9 8 0 24 -4 35 -9z m-255 -220 c0 -5 -2 -10 -4 -10 -3 0
-8 5 -11 10 -3 6 -1 10 4 10 6 0 11 -4 11 -10z m1096 -178 c10 -7 76 -269 90
-359 12 -80 -40 -239 -83 -249 -32 -8 -38 0 -19 28 8 13 23 52 32 88 21 83 15
165 -25 330 -17 69 -33 135 -36 148 -4 16 -1 22 12 22 10 0 23 -4 29 -8z
m-206 -65 c0 -17 -16 -35 -60 -66 -56 -39 -95 -50 -95 -27 0 10 135 116 147
116 5 0 8 -10 8 -23z m164 -98 c9 -36 16 -72 16 -80 0 -12 -162 -138 -190
-147 -6 -2 -10 7 -10 20 0 14 -8 49 -17 79 -10 30 -17 57 -18 61 0 12 189 148
196 140 4 -4 14 -37 23 -73z m-303 -79 c34 0 20 -17 -63 -79 l-82 -61 -27 33
c-16 17 -28 37 -29 44 0 7 23 30 52 52 51 39 52 39 91 25 22 -8 48 -14 58 -14z
m93 -69 c27 -91 27 -91 -93 -180 -59 -45 -110 -81 -113 -81 -2 0 -2 15 0 33 2
19 -1 50 -6 70 l-10 37 94 70 c52 39 94 72 94 76 0 7 -14 -1 -107 -68 -80 -57
-98 -67 -91 -49 6 17 202 161 209 153 4 -4 14 -31 23 -61z m251 -43 c8 -54 -9
-68 -20 -18 -4 16 -14 34 -23 39 -16 9 -15 11 3 25 26 19 32 12 40 -46z m-496
-82 c24 -64 26 -92 10 -133 -11 -30 -26 -43 -49 -43 -13 0 -15 11 -12 63 3 53
0 72 -22 115 -14 28 -31 54 -37 57 -7 5 -2 16 13 32 l23 24 26 -29 c15 -16 36
-55 48 -86z m443 77 c44 -40 36 -49 -280 -291 l-95 -73 -12 28 c-7 15 -19 34
-28 42 -15 12 6 30 181 161 108 82 201 149 206 149 5 1 18 -6 28 -16z m-1947
-33 c86 -28 95 -33 95 -55 0 -14 -3 -25 -7 -25 -5 0 -51 14 -103 30 -51 17
-108 30 -126 30 -41 0 -81 -40 -96 -97 -12 -48 -34 -53 -31 -7 4 54 34 115 67
135 43 26 91 24 201 -11z m1385 -29 c0 -11 -49 -51 -62 -51 -5 0 0 14 12 30
20 28 50 41 50 21z m-1192 -37 c118 -47 221 -103 260 -142 25 -25 52 -71 78
-132 l40 -95 73 -12 c40 -6 92 -21 116 -33 61 -30 139 -118 160 -181 22 -65
17 -169 -10 -224 -17 -33 -26 -41 -53 -43 l-33 -3 33 46 c31 43 33 52 32 123
-1 93 -26 153 -86 208 -51 46 -108 71 -178 79 -98 11 -93 7 -139 110 -61 134
-105 170 -299 245 -71 27 -82 35 -82 56 0 30 6 30 88 -2z m1786 -37 l-17 -55
-23 27 -24 26 37 32 c21 17 39 30 41 28 2 -2 -4 -28 -14 -58z m-574 40 c0 -14
-52 -57 -70 -57 -19 0 -10 19 23 44 36 29 47 32 47 13z m-1455 -57 c-8 -16
-34 -44 -56 -62 -45 -36 -114 -128 -149 -198 -49 -99 -142 -239 -156 -233 -8
3 -14 7 -14 10 0 3 29 53 63 111 35 59 83 139 105 179 23 39 54 86 69 104 29
34 133 119 146 119 4 0 1 -13 -8 -30z m1475 21 c0 -10 -48 -47 -67 -53 -25 -7
-16 13 16 37 37 26 51 31 51 16z m-1396 -10 c3 -5 -1 -14 -8 -20 -8 -7 -25
-55 -37 -108 -21 -86 -38 -117 -56 -99 -9 9 26 154 48 199 18 35 41 48 53 28z
m118 -39 c62 -25 67 -29 52 -44 -15 -14 -21 -14 -78 9 -69 28 -81 37 -72 52
10 16 23 13 98 -17z m1779 2 l24 -26 -105 -99 c-165 -156 -220 -203 -220 -186
0 8 -8 25 -18 37 l-18 23 109 101 c150 139 191 175 198 176 3 0 16 -12 30 -26z
m-608 -57 c2 -51 -1 -59 -26 -84 l-29 -28 7 45 c20 143 43 175 48 67z m112 61
c-5 -13 -66 -58 -78 -58 -18 0 -3 22 30 45 42 28 55 31 48 13z m-1320 -54 c36
-14 65 -30 65 -36 0 -11 -25 -4 -97 28 -50 22 -65 34 -43 34 5 0 39 -12 75
-26z m1315 14 c0 -14 -59 -58 -76 -58 -7 1 65 69 74 70 1 0 2 -6 2 -12z
m-1165 -10 c14 -6 25 -14 25 -18 0 -3 -18 -17 -41 -29 -53 -30 -72 -16 -38 28
29 36 23 34 54 19z m-498 -38 c-14 -16 -44 -65 -67 -107 -59 -109 -143 -243
-152 -243 -5 0 -6 19 -2 43 10 79 45 173 82 222 44 58 115 115 144 115 19 0
18 -2 -5 -30z m149 -17 c-4 -16 -22 -44 -41 -61 -19 -18 -37 -41 -40 -52 -6
-20 -65 -58 -65 -42 0 28 136 200 148 188 2 -3 1 -18 -2 -33z m206 -7 l53 -23
-57 -18 c-52 -17 -61 -17 -86 -4 -27 13 -28 17 -20 47 10 39 20 39 110 -2z
m228 13 c0 -11 -56 -52 -108 -78 -24 -12 -111 -40 -195 -62 -84 -22 -171 -49
-194 -60 -57 -28 -139 -119 -160 -179 -11 -31 -22 -46 -30 -43 -19 7 -16 21
16 88 35 73 97 137 165 169 29 14 99 36 156 51 159 39 223 63 275 100 43 30
75 36 75 14z m-739 -51 c-40 -52 -81 -143 -81 -179 0 -11 -5 -17 -10 -14 -27
17 23 146 80 206 52 55 57 48 11 -13z m1815 11 c-14 -17 -26 -36 -26 -43 0 -7
-17 -25 -37 -40 l-38 -26 -3 35 c-3 29 2 40 24 58 40 32 67 46 87 47 17 0 16
-4 -7 -31z m113 -5 c24 -30 27 -54 9 -72 -16 -16 -38 -15 -38 2 0 8 -11 28
-25 45 -24 28 -24 30 -8 40 28 16 40 13 62 -15z m-1125 -8 c18 -28 15 -31 -35
-40 -52 -9 -70 14 -33 43 35 27 48 26 68 -3z m-517 -40 c-3 -8 -16 -20 -28
-26 -17 -10 -20 -9 -14 2 24 41 55 59 42 24z m1575 7 c19 -23 28 -49 20 -57
-3 -4 -11 7 -18 24 -7 16 -20 30 -29 30 -9 0 -13 5 -10 10 9 15 20 12 37 -7z
m-1159 -29 c-10 -7 -19 -8 -21 -3 -2 5 -8 9 -14 9 -6 0 -8 -6 -5 -14 3 -8 -19
-39 -53 -74 -56 -57 -99 -126 -124 -201 -10 -28 -20 -36 -55 -47 -41 -12 -42
-12 -35 9 4 12 15 40 26 61 20 38 20 40 2 53 -10 8 -36 19 -56 25 -44 13 -47
23 -15 39 12 6 38 28 57 50 29 32 49 43 120 63 47 14 100 31 119 39 19 8 42
12 53 9 18 -4 18 -5 1 -18z m1317 23 c0 -2 -10 -12 -22 -23 l-23 -19 19 23
c18 21 26 27 26 19z m-344 -44 c-11 -11 -19 6 -11 24 8 17 8 17 12 0 3 -10 2
-21 -1 -24z m162 25 c7 -7 12 -19 12 -27 0 -11 -4 -10 -20 4 -21 19 -26 35
-12 35 4 0 13 -5 20 -12z m-1010 -41 c-127 -47 -223 -145 -264 -271 -20 -63
-18 -60 -42 -45 -17 11 -18 17 -10 48 28 101 126 229 210 272 64 33 100 39
116 20 11 -13 9 -17 -10 -24z m982 19 c0 -2 2 -11 5 -19 4 -9 -20 -33 -69 -70
-42 -32 -77 -57 -79 -57 -2 0 -4 9 -3 21 2 31 146 155 146 125z m150 -12 c-8
-8 -23 -20 -34 -25 -13 -7 -9 -1 9 15 34 29 43 33 25 10z m-281 -35 c-9 -5
-15 -4 -18 2 -2 6 3 15 10 20 9 5 15 4 18 -2 2 -6 -3 -15 -10 -20z m-875 -19
c-92 -42 -174 -140 -209 -247 -19 -58 -41 -73 -30 -20 12 55 64 147 113 200
47 50 156 112 175 100 5 -3 -17 -18 -49 -33z m1195 1 c9 -17 -3 -61 -17 -61
-11 0 -37 30 -45 52 -5 15 -2 16 19 8 36 -14 39 -12 19 10 -17 19 -17 20 -2
14 10 -3 21 -14 26 -23z m-1610 -11 c-31 -41 -51 -48 -38 -12 11 28 26 42 47
42 8 0 5 -10 -9 -30z m1501 17 c0 -14 -58 -62 -66 -54 -6 6 45 67 57 67 5 0 9
-6 9 -13z m-1560 -12 c0 -13 -73 -185 -79 -185 -3 0 -12 4 -19 9 -11 7 -10 16
6 47 10 22 25 56 31 76 7 21 20 42 29 48 19 10 32 13 32 5z m550 -20 c0 -9 10
-19 22 -24 22 -8 21 -9 -12 -26 -127 -65 -202 -192 -202 -342 1 -51 7 -86 21
-119 12 -26 19 -49 17 -52 -3 -2 -17 0 -33 6 -25 8 -31 6 -53 -20 -23 -27 -26
-28 -45 -14 -20 15 -19 16 13 42 19 15 37 36 41 48 8 19 9 18 25 -12 9 -17 19
-32 21 -32 3 0 -3 17 -13 38 -11 20 -22 63 -25 96 -4 39 -13 66 -27 80 -16 18
-19 30 -14 57 20 102 105 218 194 264 53 28 70 31 70 10z m735 -201 c-4 -25
-28 -49 -128 -126 -149 -115 -182 -138 -174 -118 28 69 39 129 33 181 -5 54
-4 59 22 79 l27 22 5 -26 c5 -25 5 -25 78 32 57 45 72 62 72 84 0 18 10 35 33
52 l32 25 3 -87 c2 -48 1 -101 -3 -118z m175 168 c-12 -25 -39 -51 -74 -75
-55 -37 -56 -37 -56 -13 0 18 17 36 68 74 37 28 70 51 74 51 3 1 -2 -16 -12
-37z m-1540 24 c0 -3 -4 -8 -10 -11 -5 -3 -10 -1 -10 4 0 6 5 11 10 11 6 0 10
-2 10 -4z m1700 -28 c0 -6 -8 -4 -17 3 -15 12 -16 12 -10 -4 5 -13 -5 -26 -41
-51 -26 -19 -49 -33 -51 -30 -2 2 18 28 45 57 35 37 53 50 62 44 6 -5 12 -14
12 -19z m-98 -22 c-48 -52 -66 -86 -128 -238 -111 -272 -186 -362 -348 -418
-81 -27 -217 -44 -228 -27 -14 22 -9 24 65 30 98 8 193 39 258 86 86 61 149
162 239 383 40 98 83 163 133 199 55 40 56 36 9 -15z m-2002 18 c0 -4 -22 -43
-49 -88 -61 -98 -70 -130 -46 -156 28 -31 265 -133 310 -133 30 0 82 20 208
81 93 45 173 82 178 82 16 0 72 -31 112 -62 31 -25 37 -36 37 -68 0 -47 -8
-57 -150 -166 -193 -148 -417 -332 -439 -360 -20 -25 -43 -92 -71 -200 -9 -38
-28 -54 -255 -232 -135 -105 -245 -186 -245 -180 0 7 18 79 41 161 22 82 38
152 35 154 -8 8 -19 -27 -62 -194 -35 -142 -40 -153 -61 -153 -13 0 -23 4 -23
10 0 5 20 62 45 126 55 141 56 165 13 197 -45 33 -93 57 -117 57 -10 0 -55
-26 -98 -58 -105 -78 -173 -124 -173 -118 0 3 23 58 50 122 28 64 50 120 50
124 0 15 -69 51 -97 52 -16 1 -52 -14 -83 -34 -30 -19 -65 -40 -77 -47 l-22
-11 24 52 c40 91 40 95 3 118 -44 27 -54 26 -121 -15 -33 -20 -57 -32 -55 -28
1 5 12 30 22 57 l20 48 -23 18 c-23 17 -23 17 73 54 53 21 96 41 96 46 0 4
-36 -7 -81 -26 -144 -61 -140 -45 21 86 155 126 820 623 880 658 50 28 130 45
130 26z m341 -55 c-26 -74 -60 -139 -71 -139 -14 0 -13 10 5 61 16 44 75 143
81 136 2 -2 -5 -28 -15 -58z m-301 32 c0 -4 -20 -43 -45 -86 -24 -43 -47 -91
-50 -107 -6 -24 -9 -27 -21 -17 -19 16 -18 33 7 80 54 107 109 172 109 130z
m1187 4 c21 -9 46 -23 57 -33 22 -19 66 -109 65 -132 0 -8 -7 1 -16 20 -22 51
-60 98 -93 115 -42 22 -133 19 -180 -5 -96 -49 -161 -153 -168 -270 -7 -113
29 -188 113 -234 27 -15 27 -16 5 -11 -38 10 -102 57 -127 93 -64 96 -27 286
76 389 79 79 181 104 268 68z m412 -68 c-66 -58 -79 -63 -79 -32 0 18 15 36
58 70 54 43 57 44 61 23 2 -17 -9 -33 -40 -61z m-1079 18 c9 -6 -34 -123 -52
-140 -12 -11 -4 19 18 74 19 47 18 50 -21 67 -49 20 -44 36 6 19 22 -8 44 -17
49 -20z m-198 3 c-7 -7 -12 -8 -12 -2 0 14 12 26 19 19 2 -3 -1 -11 -7 -17z
m861 -2 c18 -7 41 -23 52 -36 l20 -23 -34 18 c-34 17 -113 18 -151 1 -9 -4
-24 0 -35 8 -19 14 -19 15 15 30 44 19 91 20 133 2z m-703 -32 c0 -29 -43
-125 -60 -134 -31 -17 -43 -12 -35 13 4 12 9 36 10 52 1 17 7 47 14 67 12 35
13 36 42 26 16 -5 29 -16 29 -24z m560 -22 c0 -5 -14 -21 -30 -37 -26 -25 -33
-28 -50 -17 -11 7 -20 8 -20 3 0 -6 7 -14 15 -19 14 -7 13 -13 -4 -53 -14 -30
-21 -65 -21 -109 0 -100 39 -170 106 -190 l29 -8 -28 -1 c-86 -3 -157 92 -157
210 0 92 60 219 96 205 9 -3 16 4 20 19 5 21 9 23 25 14 10 -5 19 -13 19 -17z
m768 -34 c-71 -148 -191 -277 -310 -333 -83 -39 -298 -97 -298 -81 0 6 21 33
47 59 41 44 49 48 87 46 86 -4 93 -1 236 107 149 114 186 149 196 192 6 24 49
71 66 72 3 0 -7 -28 -24 -62z m-818 42 c0 -5 -5 -10 -11 -10 -5 0 -7 5 -4 10
3 6 8 10 11 10 2 0 4 -4 4 -10z m239 -18 c46 -34 64 -77 63 -151 -1 -142 -89
-251 -204 -251 -194 0 -196 321 -3 412 48 22 106 18 144 -10z m-1136 -1 c4 -4
5 -15 1 -24 -5 -15 -9 -15 -35 -2 -34 18 -30 50 5 39 11 -3 25 -9 29 -13z
m264 -25 c13 -12 7 -56 -9 -56 -12 0 -68 29 -68 36 0 3 5 14 11 25 11 21 41
19 66 -5z m-307 -24 c17 -13 21 -24 16 -40 -9 -26 -26 -28 -67 -7 -28 15 -29
16 -13 40 19 30 34 31 64 7z m125 -5 c10 -8 14 -17 8 -20 -15 -10 -53 4 -53
19 0 18 21 18 45 1z m48 -32 c-3 -9 -8 -14 -10 -11 -3 3 -2 9 2 15 9 16 15 13
8 -4z m122 -34 c9 -15 -33 -33 -58 -26 -16 5 -18 4 -8 -3 11 -8 7 -13 -17 -26
-52 -27 -61 -21 -42 29 9 24 12 26 28 14 15 -13 16 -12 4 3 -10 13 -11 22 -2
37 l11 21 39 -20 c21 -11 41 -24 45 -29z m-175 -1 c-1 -35 -15 -42 -54 -26
-36 15 -37 16 -21 40 14 21 19 23 45 13 17 -6 30 -18 30 -27z m-105 -37 c125
-54 120 -51 113 -58 -6 -6 -217 81 -232 96 -19 18 9 9 119 -38z m1650 -87
c-66 -112 -192 -184 -406 -230 -59 -13 -112 -27 -118 -30 -13 -8 -14 3 -3 21
4 6 63 26 132 43 171 43 256 86 345 176 38 39 72 70 73 68 2 -1 -8 -23 -23
-48z m-994 -65 c-6 -11 -93 -84 -193 -162 -382 -300 -377 -294 -418 -451 -23
-89 -35 -106 -45 -65 -7 26 37 199 60 233 16 24 247 215 463 382 81 63 125
104 130 121 7 26 7 26 10 -6 2 -18 -2 -41 -7 -52z m869 -102 c-68 -58 -168
-94 -295 -103 -78 -7 -62 0 74 30 51 11 117 35 165 60 98 50 100 51 56 13z
m-770 -13 c0 -14 -21 -56 -27 -56 -5 0 -17 7 -27 15 -16 12 -17 17 -6 30 11
13 60 22 60 11z m18 -28 c-6 -18 -15 -37 -21 -43 -7 -7 -8 -4 -3 8 3 11 9 30
12 43 3 13 10 24 15 24 4 0 3 -15 -3 -32z m46 24 c9 -14 -17 -102 -31 -102
-16 0 -17 21 -1 71 11 37 21 48 32 31z m-124 -78 c129 -98 178 -146 200 -197
10 -23 17 -43 16 -45 -2 -2 -19 6 -37 18 -50 30 -102 42 -133 30 -14 -5 -72
-56 -128 -112 -106 -108 -92 -85 25 38 l67 72 0 71 c0 78 -5 86 -97 158 -33
26 -42 43 -22 43 6 0 55 -34 109 -76z m177 11 c-3 -16 -10 -43 -16 -59 -11
-28 -12 -28 -31 -11 -13 12 -17 23 -11 34 5 9 11 33 15 53 6 35 8 37 27 25 16
-9 19 -19 16 -42z m-245 -15 l66 -60 -6 -62 c-5 -61 -7 -64 -90 -157 -46 -53
-111 -130 -144 -172 -59 -76 -60 -77 -116 -85 -31 -5 -110 -9 -175 -9 -100 0
-116 2 -111 15 3 8 17 56 30 105 14 50 32 105 42 123 11 21 93 94 222 197 113
91 207 165 210 165 3 0 35 -27 72 -60z m468 54 c0 -16 -37 -63 -72 -92 -32
-26 -43 -30 -55 -21 -19 17 -16 21 51 73 56 43 76 54 76 40z m-122 -39 c-43
-29 -54 -31 -62 -9 -11 30 -6 34 46 34 l53 0 -37 -25z m-12 -134 c20 -42 29
-101 20 -136 -9 -34 -22 -25 -29 20 -3 20 -24 62 -45 94 -38 55 -39 58 -24 86
l15 29 23 -30 c13 -16 31 -44 40 -63z m138 69 c3 -11 8 -29 12 -40 4 -15 -5
-24 -45 -44 l-49 -25 -10 29 c-10 27 -8 32 31 64 49 41 54 43 61 16z m64 -12
c-2 -13 -7 -23 -13 -23 -5 0 -11 10 -13 23 -2 15 2 22 13 22 11 0 15 -7 13
-22z m-2404 -144 c9 -3 16 -12 16 -20 0 -17 -12 -18 -28 -2 -22 22 -16 33 12
22z m2069 -36 c33 -13 33 0 -9 -261 -33 -202 -33 -199 22 -242 26 -19 53 -35
61 -35 8 0 21 16 29 36 17 41 74 301 74 340 0 14 4 23 10 19 16 -10 11 -134
-10 -254 -25 -135 -91 -397 -119 -466 l-20 -50 -1 47 c0 43 -4 50 -47 88 -27
23 -67 53 -90 67 l-43 25 -65 -37 -65 -36 -10 26 c-6 15 -10 123 -10 241 l0
215 111 119 c60 66 115 122 121 126 26 16 -29 -289 -93 -514 -43 -153 -48
-210 -5 -70 81 270 141 608 107 608 -12 0 -220 -222 -245 -261 -17 -28 -18
-44 -11 -254 9 -268 8 -266 95 -217 32 18 64 32 71 32 12 0 126 -78 154 -106
13 -13 15 -28 9 -73 -7 -65 -28 -121 -44 -121 -11 0 -8 52 6 119 4 18 -4 32
-35 60 -23 21 -56 46 -75 56 l-34 18 -53 -30 c-60 -34 -86 -31 -113 9 -13 20
-16 67 -16 272 l-1 249 48 51 c26 28 86 91 133 139 91 94 91 94 163 65z
m-2104 -15 c20 -18 20 -19 2 -58 -11 -25 -34 -51 -60 -68 -64 -43 -121 -97
-153 -146 -15 -25 -28 -38 -28 -29 0 23 -50 60 -72 55 -20 -6 -23 5 -8 34 10
18 13 18 40 4 17 -9 35 -24 42 -34 11 -18 14 -16 39 24 30 47 103 125 159 169
19 15 30 26 23 24 -23 -6 -119 -92 -162 -145 -24 -29 -48 -53 -55 -53 -6 1
-24 12 -41 25 l-30 25 48 48 c57 58 156 120 165 105 5 -8 15 -7 32 3 l25 15
-25 -6 -25 -6 25 15 c32 19 34 19 59 -1z m2208 -53 c43 -33 52 -45 48 -63 -3
-12 -16 -78 -30 -147 -28 -138 -52 -230 -62 -230 -12 0 -71 41 -75 53 -3 6 3
66 13 132 10 66 24 159 31 208 6 48 14 87 16 87 3 0 29 -18 59 -40z m-2012 18
c14 -6 25 -15 25 -20 0 -11 0 -11 -45 12 -41 21 -24 28 20 8z m-26 -46 l22
-17 -25 -56 c-19 -44 -39 -67 -90 -108 -37 -28 -80 -70 -96 -93 -28 -38 -30
-39 -30 -15 0 32 55 102 149 190 41 37 69 67 64 67 -17 0 -167 -147 -193 -189
-23 -38 -40 -52 -40 -33 0 5 -22 19 -50 32 -41 19 -48 26 -40 41 23 41 249
196 291 198 9 1 27 -7 38 -17z m236 -49 c36 -17 49 -40 18 -30 -58 18 -92 34
-86 40 10 11 30 8 68 -10z m1840 -143 c-29 -146 -51 -227 -64 -234 -4 -3 0 18
10 47 10 29 30 117 45 197 15 80 29 140 31 133 3 -7 -8 -71 -22 -143z m-1865
95 c17 -9 30 -18 30 -20 0 -3 -20 -53 -45 -111 -25 -57 -45 -108 -45 -112 -1
-21 -77 -86 -109 -93 -52 -12 -58 -11 -64 11 -10 38 85 150 213 253 l35 28
-34 -18 c-47 -26 -156 -127 -193 -181 -26 -37 -32 -42 -40 -28 -10 18 -107 70
-115 62 -3 -2 18 -16 46 -30 54 -28 71 -49 71 -92 0 -27 0 -27 55 -20 l56 6
-16 -24 c-22 -34 -93 -46 -112 -20 -7 10 -13 32 -13 49 0 26 -7 35 -39 53 -46
26 -59 27 -83 5 -27 -24 -22 -4 15 57 38 64 133 140 249 199 89 46 97 47 138
26z m898 -69 c10 -22 0 -32 -206 -192 -227 -177 -317 -244 -326 -244 -9 0 -7
43 2 56 9 14 505 404 513 404 3 0 11 -11 17 -24z m-578 -18 c52 -32 80 -61 69
-73 -4 -3 -30 10 -59 30 -28 19 -60 35 -70 35 -10 0 -44 -12 -76 -26 -33 -14
-54 -20 -48 -14 19 19 108 79 119 79 6 1 35 -14 65 -31z m1013 -10 c-3 -18 -6
-34 -7 -35 -1 -1 -35 -9 -76 -17 -47 -10 -117 -15 -185 -14 -101 2 -114 0
-165 -24 -30 -15 -56 -25 -59 -23 -8 8 22 36 68 63 44 26 50 26 208 27 l163 0
27 28 c15 15 29 27 30 27 1 0 0 -15 -4 -32z m-2023 -70 c-17 -35 -30 -68 -30
-75 0 -14 -19 -28 -27 -20 -14 15 56 157 78 157 4 0 -5 -28 -21 -62z m190 29
c39 -19 46 -27 52 -62 7 -45 1 -78 -13 -70 -5 4 -9 19 -9 35 0 24 -8 35 -42
56 -37 24 -43 25 -53 10 -17 -23 -24 -20 -18 7 6 24 22 47 32 47 3 -1 26 -11
51 -23z m-174 -63 c-15 -31 -29 -54 -32 -51 -3 3 6 31 20 63 15 31 29 54 32
51 3 -3 -6 -31 -20 -63z m967 55 c12 -6 32 -20 44 -31 l22 -20 -21 -52 c-11
-28 -30 -80 -42 -115 l-22 -64 -85 -27 c-46 -15 -92 -31 -103 -35 -16 -7 -18
-5 -11 26 9 42 43 78 161 171 51 40 91 75 88 77 -5 5 -147 -103 -201 -152
l-43 -39 -35 31 c-19 17 -49 38 -65 46 -17 9 -30 20 -30 24 0 17 98 81 191
126 100 48 118 51 152 34z m1047 -47 c0 -26 -4 -30 -52 -41 -199 -46 -329
-309 -213 -433 25 -27 25 -28 5 -28 -26 0 -81 28 -97 49 -7 9 -17 39 -23 66
-20 96 22 221 103 305 58 59 78 71 160 91 105 26 117 25 117 -9z m-1985 -23
c-22 -41 -38 -36 -18 6 9 19 20 32 25 29 4 -3 1 -18 -7 -35z m1752 25 c22 -6
20 -8 -19 -39 -55 -44 -114 -133 -134 -203 -16 -55 -15 -153 2 -197 l7 -20
-22 20 c-84 73 -83 235 1 368 17 26 40 54 51 62 22 15 75 19 114 9z m-187 -47
c-17 -24 -43 -76 -58 -117 -20 -54 -33 -75 -50 -81 l-24 -9 25 30 c15 17 30
54 37 87 18 89 19 92 58 113 20 10 38 19 40 20 2 0 -11 -19 -28 -43z m-1430
18 c0 -1 -16 -29 -35 -61 -20 -33 -38 -69 -41 -81 -4 -14 -14 -23 -25 -23 -23
0 -23 -3 2 65 24 66 64 116 84 108 8 -3 15 -6 15 -8z m-108 -17 c-7 -7 -12 -8
-12 -2 0 14 12 26 19 19 2 -3 -1 -11 -7 -17z m1452 13 c9 -14 -15 -127 -34
-158 -11 -19 -68 -61 -146 -110 -186 -116 -169 -111 -188 -55 l-17 47 28 22
c29 24 43 29 43 16 0 -5 4 -14 9 -21 7 -12 14 -11 40 2 50 26 195 122 208 137
6 8 14 37 18 64 4 28 9 53 12 58 6 10 21 9 27 -2z m-1621 -30 c-3 -13 4 -25
22 -37 25 -16 28 -16 61 -1 43 21 54 21 54 2 0 -8 -6 -15 -13 -15 -24 0 -64
-54 -163 -220 -54 -91 -99 -167 -101 -169 -2 -3 -8 0 -14 6 -7 7 21 63 96 188
58 97 104 179 102 181 -3 3 -146 -226 -188 -303 -12 -24 -26 -43 -29 -43 -4 0
-17 12 -31 26 l-24 26 33 61 c19 34 68 119 109 190 70 118 98 154 86 108z
m263 -49 c-24 -47 -46 -74 -46 -55 0 14 61 115 66 110 3 -3 -6 -28 -20 -55z
m1300 -8 c-4 -13 -15 -28 -25 -34 -18 -9 -19 -7 -13 33 6 48 35 80 40 45 2
-11 1 -31 -2 -44z m564 36 c0 -5 -8 -10 -17 -10 -32 0 -117 -47 -149 -81 -68
-72 -94 -151 -75 -225 7 -26 10 -49 7 -52 -10 -9 -36 66 -36 101 0 92 81 210
175 253 52 25 95 31 95 14z m-1823 -55 c-7 -17 -34 -31 -43 -22 -3 3 2 17 12
32 18 28 42 20 31 -10z m1209 19 c-3 -9 -6 -18 -6 -20 0 -2 -7 -4 -15 -4 -18
0 -20 26 -2 33 23 10 29 7 23 -9z m-1062 -7 c17 -13 16 -16 -19 -63 -34 -44
-49 -71 -68 -127 -5 -14 -11 -16 -26 -7 -29 15 -13 64 52 162 36 53 36 53 61
35z m378 -70 c25 -23 27 -29 21 -73 -7 -54 -17 -53 122 -11 44 14 82 24 83 22
2 -2 1 -12 -2 -22 -7 -21 -176 -77 -216 -71 -22 3 -25 9 -28 46 -3 37 -9 47
-44 72 -47 35 -64 37 -91 13 -19 -17 -19 -17 -12 7 4 14 19 40 33 57 l24 33
41 -24 c22 -14 53 -36 69 -49z m1298 23 c0 -27 -2 -50 -5 -50 -7 0 -35 69 -35
86 0 8 9 14 20 14 17 0 20 -7 20 -50z m-1797 3 c-9 -14 -19 -21 -21 -15 -5 16
17 53 28 47 6 -4 2 -17 -7 -32z m1141 11 c9 -23 7 -36 -3 -30 -12 8 -21 46
-11 46 4 0 11 -7 14 -16z m615 -49 c23 -73 25 -85 12 -85 -5 0 -18 24 -29 53
-33 89 -35 97 -19 97 9 0 23 -25 36 -65z m-1963 38 c-7 -18 29 -63 52 -63 8 0
30 9 49 21 37 23 74 19 53 -6 -6 -8 -27 -19 -45 -25 -19 -6 -47 -26 -63 -44
-27 -31 -169 -261 -205 -332 l-16 -31 -45 21 c-25 11 -45 25 -46 30 0 14 188
341 242 419 22 30 33 36 24 10z m1324 -19 c0 -28 -15 -32 -29 -6 -7 13 -7 22
1 30 16 16 28 5 28 -24z m-1009 -49 c-22 -37 -42 -72 -44 -79 -2 -6 -7 -9 -10
-6 -8 8 29 88 60 128 41 54 38 29 -6 -43z m1607 4 l20 -57 -24 -11 c-14 -6
-26 -11 -28 -11 -2 0 -9 27 -16 60 -10 49 -10 63 0 75 16 20 22 14 48 -56z
m-638 15 c0 -8 -4 -12 -10 -9 -5 3 -10 13 -10 21 0 8 5 12 10 9 6 -3 10 -13
10 -21z m587 -94 c-2 -9 -13 3 -25 28 -19 35 -21 46 -11 65 12 21 13 19 26
-28 7 -27 12 -57 10 -65z m-617 80 c0 -24 -37 -47 -53 -31 -7 7 -5 16 8 31 23
25 45 26 45 0z m-880 0 c13 -8 13 -11 0 -24 -8 -7 -26 -17 -39 -21 l-23 -7 18
31 c20 34 22 35 44 21z m99 -36 c-13 -14 -32 -30 -43 -36 -18 -10 -18 -9 0 22
17 29 53 54 63 44 3 -2 -6 -16 -20 -30z m-65 -19 c-14 -22 -19 -24 -26 -12
-11 20 0 45 20 49 24 5 26 -7 6 -37z m189 -14 c-21 -20 -52 -54 -69 -76 -27
-35 -33 -38 -47 -26 -22 17 -10 40 55 108 46 47 53 50 75 40 l24 -11 -38 -35z
m1417 21 c0 -21 -2 -24 -10 -12 -13 20 -13 53 0 45 6 -3 10 -18 10 -33z
m-1919 -4 c-37 -57 -147 -250 -187 -328 -24 -45 -46 -76 -57 -78 -19 -4 -127
48 -127 61 0 13 25 7 68 -18 23 -13 42 -19 42 -13 0 21 203 353 233 381 39 37
54 34 28 -5z m74 8 c0 -13 -3 -22 -6 -20 -4 2 -9 -3 -13 -11 -4 -10 7 -21 34
-35 51 -26 64 -25 118 6 30 18 47 23 54 16 7 -7 -1 -16 -23 -28 -19 -9 -103
-59 -187 -111 -85 -52 -155 -93 -158 -91 -8 9 166 298 179 298 1 0 2 -11 2
-24z m845 -12 c0 -29 -3 -35 -16 -30 -9 3 -20 6 -25 6 -10 0 -12 43 -2 53 3 4
15 7 25 7 14 0 18 -8 18 -36z m490 27 c0 -10 -14 -15 -70 -26 -44 -9 -31 6 18
21 48 15 52 16 52 5z m-1015 -30 c-3 -6 -11 -11 -17 -11 -6 0 -6 6 2 15 14 17
26 13 15 -4z m1344 -46 c0 -11 -8 -31 -19 -45 -17 -22 -19 -23 -26 -7 -7 18 2
92 13 110 8 12 32 -32 32 -58z m-1235 -9 c-47 -53 -75 -73 -56 -40 13 24 94
105 100 100 2 -3 -18 -30 -44 -60z m904 37 c-4 -22 -69 -36 -103 -23 -28 11
-25 34 3 26 10 -3 33 -1 52 3 51 13 52 13 48 -6z m505 -43 c7 -26 5 -26 -22
11 -21 28 -21 30 -3 20 11 -6 22 -20 25 -31z m-887 -12 c13 -37 10 -48 -11
-48 -13 0 -37 69 -29 82 11 17 27 2 40 -34z m-666 24 c0 -5 -11 -14 -25 -20
-36 -16 -31 -35 16 -61 33 -19 49 -22 82 -16 118 21 129 12 103 -77 l-15 -53
-178 -97 c-236 -128 -231 -126 -280 -120 -41 4 -43 6 -43 36 0 21 7 36 23 45
220 140 370 219 432 228 25 3 45 9 45 13 0 7 -73 -3 -115 -17 -29 -9 -239
-129 -315 -180 l-65 -43 -3 25 c-2 17 -17 33 -46 50 -24 14 -49 25 -57 25 -8
0 10 -14 39 -30 l52 -30 0 -56 c0 -40 -3 -54 -12 -51 -7 2 -13 20 -13 41 -1
28 -7 43 -25 57 -34 26 -69 34 -92 20 -10 -6 -18 -7 -18 -1 0 21 235 175 424
276 91 49 86 47 86 36z m178 -33 c-30 -20 -41 -9 -17 17 20 22 25 23 27 9 2
-10 -2 -21 -10 -26z m329 18 c-2 -7 -28 -12 -58 -13 -91 -1 -175 -61 -194
-137 -7 -25 -45 -59 -45 -39 0 19 32 99 48 119 11 14 54 36 115 57 92 32 142
37 134 13z m381 11 c-3 -7 -49 -39 -103 -70 -85 -48 -102 -55 -120 -45 -20 11
-20 12 3 15 13 2 65 28 115 58 96 56 111 62 105 42z m632 -8 c23 -23 27 -81 8
-143 -18 -58 -86 -127 -126 -127 -87 0 -80 150 13 246 46 49 74 55 105 24z
m-466 -23 c-8 -5 -40 -11 -69 -14 -47 -5 -55 -3 -55 11 0 12 10 16 43 17 23 0
51 4 62 8 24 10 41 -10 19 -22z m-446 -29 c13 -50 24 -138 17 -138 -2 0 -9 19
-15 43 -7 25 -27 58 -51 83 -43 44 -42 54 6 54 30 0 33 -4 43 -42z m284 -134
c-8 -15 -204 -135 -210 -129 -2 2 1 12 7 23 6 12 11 54 11 94 l0 73 98 56 97
56 3 -78 c2 -44 -1 -86 -6 -95z m-912 156 c0 -5 -5 -10 -11 -10 -5 0 -7 5 -4
10 3 6 8 10 11 10 2 0 4 -4 4 -10z m262 -10 c6 0 6 -6 -2 -15 -9 -11 -16 -12
-30 -3 -21 14 -16 32 7 24 8 -3 19 -6 25 -6z m278 -16 c6 -5 -12 -8 -46 -6
-77 5 -133 -28 -163 -97 -11 -27 -21 -64 -21 -82 0 -45 34 -110 67 -131 20
-13 23 -18 11 -18 -28 0 -87 59 -98 98 -16 58 -12 94 16 150 36 73 89 104 167
99 31 -2 62 -8 67 -13z m596 -35 c16 -17 43 -40 59 -50 39 -24 18 -24 -79 1
-43 12 -86 18 -97 15 -10 -3 -27 -7 -38 -10 -15 -4 -20 1 -23 24 -4 29 -3 31
41 36 25 4 51 8 56 10 29 10 54 2 81 -26z m450 -52 c-9 -24 -30 -57 -48 -73
l-31 -29 26 39 c15 22 32 64 39 94 10 48 13 52 21 34 7 -15 5 -34 -7 -65z
m269 -1 c-7 -44 -73 -187 -104 -224 -17 -19 -23 -21 -45 -11 -14 7 -26 16 -26
20 0 5 16 34 35 64 39 60 70 138 80 198 l6 38 30 -22 c28 -19 30 -25 24 -63z
m-1299 49 c30 -20 54 -71 54 -118 0 -42 -37 -115 -71 -140 -34 -24 -106 -32
-139 -15 -80 43 -94 173 -27 247 48 51 127 63 183 26z m1220 -17 c-7 -44 -61
-167 -90 -203 -27 -35 -17 1 24 87 22 46 43 100 47 121 3 20 10 37 16 37 6 0
7 -16 3 -42z m-141 12 c8 -13 -21 -80 -36 -80 -7 0 -8 7 -4 18 4 9 10 29 13
45 4 27 16 35 27 17z m91 -25 c-8 -43 -35 -109 -42 -102 -5 4 23 112 33 130
10 18 15 4 9 -28z m-53 9 c13 -4 13 -11 5 -37 -14 -41 -20 -48 -35 -39 -10 6
-10 16 -1 45 6 20 12 37 14 37 1 0 9 -3 17 -6z m-975 -79 c3 -72 -10 -120 -35
-129 -28 -11 -32 4 -11 41 16 27 21 51 20 100 -1 90 22 80 26 -12z m-1473 25
c-4 -17 -9 -29 -12 -26 -3 2 -2 19 2 36 4 17 9 29 12 26 3 -2 2 -19 -2 -36z
m18 -20 c-9 -22 -18 -39 -19 -37 -7 6 17 77 26 77 4 0 1 -18 -7 -40z m24 -25
c-11 -38 -33 -50 -22 -12 4 12 9 30 12 40 2 9 8 15 13 12 4 -3 3 -21 -3 -40z
m2598 -55 c-9 -28 -21 -50 -27 -50 -5 0 -7 6 -4 13 3 6 13 38 23 70 12 37 19
51 21 37 2 -11 -4 -43 -13 -70z m-218 -34 l-2 -70 49 -33 c26 -18 56 -33 65
-33 10 0 28 18 41 42 13 23 25 37 28 30 5 -16 -18 -85 -89 -266 -33 -82 -59
-156 -60 -165 0 -9 -5 0 -12 19 -9 25 -28 46 -71 74 -57 38 -60 39 -102 28
-23 -6 -48 -13 -55 -14 -7 -2 -19 10 -27 26 -14 28 -12 37 26 150 23 67 49
147 57 179 14 48 24 63 61 92 40 29 49 32 70 23 22 -10 24 -16 21 -82z m-1387
69 c0 -8 -22 -26 -50 -40 -46 -23 -50 -24 -50 -7 0 10 16 27 38 40 44 25 62
28 62 7z m-996 -68 c2 -10 -4 -26 -14 -35 -11 -10 -23 -29 -28 -42 -8 -22 -11
-16 -26 47 -9 40 -16 77 -16 83 0 17 78 -33 84 -53z m2226 38 c0 -2 -10 -9
-22 -15 -22 -11 -22 -10 -4 4 21 17 26 19 26 11z m-1223 -31 c3 -10 -57 -44
-77 -44 -22 0 -8 28 23 43 34 17 49 17 54 1z m-125 -36 c16 -48 44 -68 96 -68
30 0 33 -2 30 -27 -3 -24 -16 -35 -103 -78 -129 -65 -304 -140 -310 -133 -3 3
0 19 6 36 6 17 13 52 17 78 l7 47 123 65 c67 36 122 71 122 78 0 14 -7 10
-173 -83 -73 -41 -114 -49 -105 -22 4 13 246 149 265 149 6 0 18 -19 25 -42z
m1328 2 c0 -5 -6 -14 -12 -19 -55 -45 -68 -62 -86 -117 -19 -60 -19 -62 -1
-80 26 -27 15 -68 -15 -57 -11 4 -38 7 -58 6 -21 -2 -38 0 -38 3 0 9 50 175
62 206 9 25 28 36 108 62 25 8 40 7 40 -4z m-2150 -19 c0 -22 -16 -36 -24 -22
-8 12 3 41 15 41 5 0 9 -9 9 -19z m264 10 c3 -5 -11 -20 -32 -35 -21 -14 -55
-43 -76 -65 -36 -37 -66 -45 -66 -17 0 13 85 98 115 114 24 14 52 15 59 3z
m703 -8 c5 -15 -29 -25 -52 -17 -15 6 -15 8 6 20 26 15 41 14 46 -3z m1503
-38 c-12 -20 -24 -34 -27 -31 -2 2 6 20 19 39 30 46 37 39 8 -8z m-2453 13
c-3 -8 -6 -5 -6 6 -1 11 2 17 5 13 3 -3 4 -12 1 -19z m33 12 c0 -5 -4 -10 -10
-10 -5 0 -10 5 -10 10 0 6 5 10 10 10 6 0 10 -4 10 -10z m80 -4 c0 -2 -8 -10
-17 -17 -16 -13 -17 -12 -4 4 13 16 21 21 21 13z m160 1 c0 -5 -119 -97 -126
-97 -12 0 10 23 58 60 43 35 68 48 68 37z m1840 -24 c0 -20 -53 -163 -60 -163
-26 0 -11 92 24 145 16 24 36 34 36 18z m-2150 -22 c-1 -3 -14 -22 -31 -41
l-30 -35 7 40 c3 22 8 43 10 47 5 8 44 -2 44 -11z m278 -31 c-18 -15 -39 -25
-46 -23 -15 6 -14 8 30 38 45 31 58 19 16 -15z m-216 18 c-22 -22 -13 -44 28
-67 36 -20 43 -21 81 -10 34 11 42 10 50 -2 5 -8 7 -20 4 -27 -3 -8 -5 -30 -5
-51 0 -33 -12 -50 -120 -168 l-120 -132 -57 -7 c-44 -5 -58 -4 -62 7 -8 25
-51 59 -81 65 -32 7 -41 31 -15 40 21 8 93 -41 107 -72 9 -19 13 -22 18 -11 5
14 191 235 242 287 13 14 33 30 44 37 10 6 13 12 6 12 -20 1 -95 -73 -199
-196 l-96 -114 -21 19 c-12 11 -36 27 -53 36 -18 9 -33 20 -33 24 0 10 235
303 261 325 24 19 39 23 21 5z m32 -3 c-4 -8 -11 -15 -16 -15 -6 0 -5 6 2 15
7 8 14 15 16 15 2 0 1 -7 -2 -15z m233 -23 c8 -5 -2 -18 -28 -40 l-39 -33 0
25 c0 14 9 31 22 40 25 18 28 19 45 8z m194 -94 l-9 -33 -1 35 c-1 19 -8 44
-16 55 -14 17 -13 20 7 31 22 12 23 11 26 -21 2 -18 -1 -48 -7 -67z m-58 54
c27 -24 20 -36 -9 -13 -86 68 -208 -49 -169 -163 l14 -41 -20 24 c-14 17 -19
38 -19 79 0 51 3 58 40 93 51 49 121 58 163 21z m97 -14 c-1 -52 -15 -117 -29
-131 -18 -18 -21 -3 -6 38 8 22 14 61 15 88 0 26 5 47 10 47 6 0 10 -19 10
-42z m-101 -24 c50 -64 3 -162 -86 -180 -63 -12 -106 72 -72 139 34 68 120 90
158 41z m439 -76 c-11 -40 -29 -90 -39 -110 l-19 -37 -27 28 c-16 15 -33 30
-40 32 -9 3 -9 16 0 53 11 47 13 50 71 77 34 15 64 28 68 28 3 1 -3 -32 -14
-71z m-152 -45 c-8 -30 -18 -49 -29 -51 -14 -3 -16 2 -11 30 7 32 30 68 45 68
4 0 1 -21 -5 -47z m1305 27 c32 -18 22 -25 -31 -24 -56 2 -73 10 -50 24 20 13
57 12 81 0z m-1367 -62 c-5 -35 -13 -51 -35 -67 l-28 -21 15 35 c8 19 21 51
29 72 19 46 27 39 19 -19z m-399 -45 c41 -30 27 -55 -100 -174 l-110 -103 -6
40 c-3 21 -11 49 -17 62 -12 20 -11 22 11 22 16 0 44 21 86 65 56 58 62 68 56
94 -3 17 -1 39 5 52 12 21 12 21 30 -8 10 -16 30 -39 45 -50z m335 54 c0 -19
-71 -135 -87 -141 -8 -3 -25 6 -38 22 -21 24 -30 27 -83 27 -64 0 -73 9 -20
19 71 14 109 0 129 -49 8 -20 8 -20 8 1 1 22 -31 57 -63 68 -18 6 -18 7 0 27
12 14 27 19 44 16 19 -4 73 7 108 22 1 1 2 -5 2 -12z m1436 -22 c32 -48 -13
-133 -83 -156 -32 -10 -38 -9 -50 7 -18 25 -16 51 7 98 20 42 61 75 92 76 10
0 25 -11 34 -25z m44 -53 c1 -56 -55 -117 -115 -127 l-40 -7 44 24 c62 32 86
68 86 128 0 44 1 46 12 27 7 -12 12 -32 13 -45z m191 28 c55 -38 59 -43 59
-80 0 -22 -5 -40 -11 -40 -6 0 -8 8 -4 19 9 29 -3 47 -60 87 -38 26 -61 35
-77 31 -13 -3 -34 -8 -48 -11 -14 -4 -8 2 15 13 22 11 46 20 53 20 7 1 40 -17
73 -39z m-2157 -91 c-32 -33 -66 -59 -76 -59 -10 0 -18 3 -18 6 0 4 33 43 73
87 69 77 72 79 75 52 3 -23 -7 -39 -54 -86z m663 85 c36 -36 22 -40 -17 -4
-18 16 -27 30 -21 30 7 0 23 -12 38 -26z m-32 -39 c34 -33 34 -87 -1 -121 -19
-20 -31 -24 -52 -20 -65 16 -82 88 -33 137 36 35 54 36 86 4z m1440 -2 c-12
-52 -52 -128 -88 -168 -49 -54 -47 -32 3 33 21 29 47 78 56 108 18 55 42 77
29 27z m58 -1 c13 -12 16 -24 11 -46 -9 -44 -67 -146 -103 -180 -29 -28 -31
-28 -56 -12 l-26 17 40 47 c42 49 91 148 91 183 0 21 10 19 43 -9z m-103 3 c0
-22 -45 -108 -64 -124 -13 -11 -19 -11 -31 -1 -13 11 -12 16 9 41 13 16 30 44
36 64 8 24 18 35 31 35 10 0 19 -7 19 -15z m-1809 -50 c-38 -44 -42 -97 -10
-141 l21 -29 -27 29 c-24 26 -27 36 -22 80 3 38 11 55 31 73 40 34 43 28 7
-12z m107 9 c64 -45 40 -149 -39 -169 -20 -5 -33 0 -55 18 -51 44 -33 131 31
158 29 12 38 11 63 -7z m182 -24 c0 -48 36 -89 79 -91 25 -2 25 -2 3 -6 -35
-7 -76 14 -95 46 -17 30 -22 72 -10 84 15 16 23 4 23 -33z m1655 -7 c-10 -54
-48 -123 -90 -163 l-37 -35 45 68 c26 37 54 90 64 117 21 59 28 64 18 13z
m-1685 -70 c0 -2 -4 -3 -10 -3 -5 0 -17 11 -26 25 -15 22 -15 29 -4 51 14 25
14 24 26 -23 7 -26 13 -49 14 -50z m244 81 c4 -9 4 -19 2 -21 -8 -8 -26 8 -26
23 0 19 16 18 24 -2z m1030 -20 c4 -14 19 -37 34 -51 l27 -26 -25 8 c-39 11
-60 35 -60 67 0 35 16 37 24 2z m-2134 -13 c-11 -21 -30 -37 -30 -25 0 8 30
44 37 44 2 0 -1 -9 -7 -19z m2064 -133 c-65 -97 -129 -226 -148 -298 l-15 -55
0 54 c-2 103 43 227 131 368 l52 82 16 -37 16 -36 -52 -78z m-2004 122 c0 -20
-38 -53 -54 -47 -16 6 -16 9 4 37 19 26 50 33 50 10z m476 -25 c0 -32 -3 -35
-28 -35 -15 0 -28 3 -28 7 0 5 50 63 55 63 0 0 1 -16 1 -35z m268 13 c9 -36 7
-41 -9 -28 -16 13 -21 50 -6 50 5 0 11 -10 15 -22z m418 -4 c29 -15 65 -36 81
-48 35 -25 77 -94 77 -125 0 -22 -1 -22 -37 9 -20 18 -70 49 -111 68 -73 35
-92 56 -92 103 0 26 21 24 82 -7z m-72 -143 c61 -159 62 -187 7 -208 -21 -9
-40 -13 -43 -10 -3 3 2 19 11 36 15 30 15 34 -21 114 -43 98 -50 107 -79 107
-12 0 -28 6 -34 14 -9 11 -5 18 22 35 18 11 39 33 46 47 10 23 14 25 26 13 7
-8 36 -74 65 -148z m-1083 99 c-8 -12 -17 -17 -21 -12 -3 5 2 19 11 32 10 14
18 19 21 12 2 -6 -3 -21 -11 -32z m229 5 c18 -44 18 -82 -1 -39 -8 17 -21 36
-29 43 -20 17 -20 31 0 31 8 0 22 -16 30 -35z m2259 -2 c-16 -37 -55 -87 -62
-79 -3 2 9 23 26 47 17 23 31 48 31 56 0 7 5 13 10 13 6 0 4 -16 -5 -37z
m-258 -14 c1 -19 2 -39 2 -45 1 -15 93 -74 115 -74 9 0 25 5 36 12 31 20 36 0
8 -29 -33 -33 -74 -27 -140 22 l-48 35 0 61 c0 44 3 60 13 56 6 -2 13 -19 14
-38z m-2298 -8 l68 -40 16 -82 16 -82 -31 -61 c-55 -108 -156 -255 -190 -276
-39 -24 -86 -26 -114 -5 -18 13 -16 14 23 15 68 0 95 32 137 158 46 138 46
154 -1 187 -21 14 -43 25 -50 25 -19 0 -16 28 11 108 26 75 34 92 42 92 3 0
36 -18 73 -39z m2253 -19 c-2 -47 0 -52 35 -81 50 -42 119 -75 135 -65 16 10
-42 -64 -69 -89 -20 -17 -23 -16 -94 28 -121 75 -142 67 -253 -98 -50 -73 -56
-87 -56 -134 0 -41 5 -58 27 -84 25 -30 26 -31 5 -20 -46 24 -64 69 -59 146 5
89 42 178 136 329 69 111 70 112 105 108 19 -2 43 1 53 7 30 17 38 7 35 -47z
m-2143 16 c-8 -14 -14 -17 -22 -9 -7 7 -6 15 3 25 17 22 32 9 19 -16z m84 13
c-23 -11 -46 -28 -52 -39 -13 -25 -14 -89 -2 -96 5 -4 7 10 4 31 -9 65 51 118
96 86 30 -21 28 -77 -4 -109 -21 -21 -32 -24 -66 -20 -49 5 -59 17 -59 69 0
51 43 97 92 97 l33 0 -42 -19z m607 -6 c7 -9 10 -18 7 -22 -8 -7 -37 15 -37
28 0 14 16 11 30 -6z m119 -9 c41 -15 35 -4 115 -188 64 -145 64 -147 51 -190
l-12 -43 -58 0 c-45 1 -59 5 -68 20 -7 10 -39 66 -71 124 -50 88 -61 117 -66
168 -4 45 -2 64 7 67 7 3 15 17 19 31 7 28 28 31 83 11z m-465 -37 c-6 -11
-38 -12 -47 -2 -4 3 1 15 10 25 16 18 18 18 30 2 7 -9 10 -21 7 -25z m113 -11
l41 -43 17 -200 18 -200 -29 -47 c-33 -53 -45 -57 -118 -32 -29 10 -51 25 -56
38 -18 42 -83 457 -73 467 6 6 20 6 37 -1 43 -16 53 -13 75 25 11 19 26 35 34
35 7 0 31 -19 54 -42z m210 -191 c7 -224 6 -227 -63 -227 -51 0 -54 10 -19 55
24 33 24 34 14 146 l-9 113 -48 45 -47 46 46 5 c25 3 57 13 70 22 45 30 50 10
56 -205z m508 168 c54 -31 99 -80 92 -99 -5 -13 -15 -12 -79 5 -40 11 -77 24
-82 30 -10 9 -46 98 -46 112 0 9 62 -16 115 -48z m-231 3 c35 -57 68 -148 62
-173 -4 -14 -10 -25 -14 -25 -6 0 -43 77 -88 187 -13 31 -13 33 6 33 11 0 26
-10 34 -22z m-359 -198 c6 -104 -1 -150 -24 -150 -6 0 -31 224 -31 284 0 18 1
18 24 -3 21 -20 24 -34 31 -131z m-520 90 c15 0 24 -4 20 -10 -6 -9 -75 -15
-75 -6 0 2 -3 12 -7 21 -5 15 -3 16 15 6 11 -6 32 -11 47 -11z m-267 -10 c18
-11 35 -27 38 -35 7 -18 -63 -234 -84 -258 -8 -9 -17 -15 -20 -12 -3 2 -14 -2
-26 -10 -26 -19 -47 -19 -71 -1 -18 13 -18 16 8 88 47 131 99 248 111 248 6 0
26 -9 44 -20z m2323 -40 c63 -38 86 -56 78 -65 -2 -2 -34 15 -71 37 -48 28
-75 39 -91 34 -15 -3 -51 -45 -102 -116 -43 -60 -80 -110 -82 -110 -21 0 64
142 131 219 18 19 47 38 65 40 3 1 35 -17 72 -39z m-2063 -40 c-76 -137 -150
-221 -231 -261 l-42 -21 42 43 c42 45 144 208 165 265 10 28 14 31 54 30 l43
-1 -31 -55z m2058 4 c35 -20 64 -39 64 -43 0 -12 -184 -254 -201 -264 -21 -13
-83 17 -104 50 -10 14 -14 34 -11 46 8 30 164 247 177 247 6 0 40 -16 75 -36z
m-1055 -62 c-47 -23 -61 -64 -34 -100 11 -15 31 -30 44 -33 24 -7 24 -7 -3 -8
-37 -1 -72 43 -64 83 8 38 43 76 70 76 16 0 13 -4 -13 -18z m68 -33 c31 -56
-16 -107 -75 -80 -18 8 -24 18 -24 42 0 66 69 92 99 38z m61 -62 c0 -58 -34
-87 -102 -87 -31 -1 -61 -7 -72 -15 -25 -19 -60 -19 -76 0 -10 12 -7 13 22 9
24 -4 38 -1 47 10 10 11 24 14 56 9 40 -5 47 -2 74 25 25 24 31 39 31 74 0 31
3 39 10 28 5 -8 10 -32 10 -53z m98 -38 c74 -86 116 -168 110 -217 -3 -22 -7
-19 -41 31 -21 30 -64 80 -97 111 -55 53 -58 58 -62 111 -2 34 1 54 7 52 6 -2
43 -41 83 -88z m-300 -6 c-3 -14 -12 -17 -43 -16 -21 2 -44 8 -49 14 -11 11
-7 11 52 -6 16 -5 22 -2 22 9 0 9 5 16 11 16 6 0 9 -8 7 -17z m284 -101 c60
-63 118 -146 118 -171 0 -16 -28 -51 -42 -51 -4 0 -8 10 -8 23 0 30 -85 116
-100 101 -7 -7 5 -24 40 -53 56 -48 70 -82 23 -57 -16 8 -61 39 -102 70 l-75
56 35 0 c19 0 40 -5 47 -12 9 -9 15 -9 23 -1 16 16 -33 46 -68 40 -27 -4 -27
-4 4 -6 17 0 34 -5 37 -9 3 -5 -20 -5 -50 0 -59 9 -200 87 -158 88 11 0 29 6
39 14 11 8 33 12 50 10 18 -3 44 3 65 14 20 10 42 15 50 11 8 -4 41 -34 72
-67z m-622 48 c23 -23 28 -88 8 -108 -20 -20 -65 -14 -82 10 -23 32 -20 46 15
79 17 16 26 29 20 29 -7 0 -23 -11 -36 -25 -42 -41 -29 -94 28 -119 21 -9 26
-15 14 -15 -23 -1 -58 17 -74 38 -20 26 -15 67 13 100 30 36 65 40 94 11z
m-260 -100 c0 -5 -2 -10 -4 -10 -3 0 -8 5 -11 10 -3 6 -1 10 4 10 6 0 11 -4
11 -10z m120 -4 c0 -16 -18 -31 -27 -22 -8 8 5 36 17 36 5 0 10 -6 10 -14z
m250 -116 c17 -58 33 -130 37 -161 6 -59 -3 -149 -15 -149 -4 0 -12 26 -18 58
-6 31 -30 106 -53 166 -40 108 -41 110 -22 130 19 21 37 66 27 66 -3 0 -12
-15 -20 -34 -14 -34 -46 -53 -67 -41 -6 5 2 15 20 26 17 10 37 30 43 44 17 39
32 16 68 -105z m-316 114 c9 -3 16 -12 16 -20 0 -16 -42 -4 -48 14 -4 13 8 15
32 6z m29 -64 c14 0 30 6 36 14 10 12 18 11 49 -10 20 -14 49 -28 64 -31 21
-4 32 -18 57 -75 38 -84 81 -229 81 -272 0 -37 -7 -49 -38 -65 -31 -16 -37 -9
-12 14 11 10 20 25 20 34 0 9 -24 59 -53 111 -56 101 -70 113 -151 127 -48 8
-51 11 -94 77 -31 49 -38 67 -25 61 53 -22 106 -17 117 12 6 15 5 15 -13 -1
-16 -14 -29 -17 -58 -11 -44 8 -73 22 -73 35 0 5 16 2 35 -6 19 -7 45 -14 58
-14z m123 -186 c25 -15 114 -173 114 -201 0 -10 -23 24 -50 76 -28 52 -55 100
-61 107 -5 6 -30 15 -54 18 -25 4 -47 11 -50 16 -8 12 77 0 101 -16z m-10 -25
c6 -5 34 -53 62 -108 47 -88 50 -100 36 -112 -26 -21 -44 -1 -111 121 -35 62
-63 114 -63 116 0 6 65 -9 76 -17z"/>
<path d="M9082 9853 c-100 -49 -96 -163 7 -163 53 0 116 35 135 74 21 45 20
53 -9 81 -29 30 -83 33 -133 8z m118 -21 c20 -16 21 -23 13 -48 -13 -41 -66
-74 -117 -74 -46 0 -66 13 -66 45 1 69 116 121 170 77z"/>
<path d="M9105 9830 c-31 -12 -67 -56 -63 -77 4 -25 80 -31 114 -8 51 33 48
96 -4 94 -15 0 -36 -4 -47 -9z m68 -29 c-9 -34 -39 -54 -72 -48 -19 4 -31 2
-35 -6 -2 -7 -5 -5 -5 4 -2 27 32 60 69 68 43 9 50 7 43 -18z"/>
<path d="M8401 9186 l-73 -73 71 -28 72 -29 74 74 c41 41 75 78 75 83 0 12
-88 47 -119 47 -20 0 -45 -18 -100 -74z m89 61 c0 -1 -30 -32 -67 -67 l-68
-65 65 68 c60 62 70 72 70 64z m90 -26 c0 -4 -31 -37 -68 -74 -67 -66 -69 -68
-98 -56 -16 7 -31 15 -33 16 -3 2 26 34 63 72 67 67 69 68 102 58 19 -6 34
-13 34 -16z m-40 -82 c-36 -32 -69 -59 -75 -58 -5 0 21 29 60 64 38 35 72 61
75 58 3 -3 -24 -32 -60 -64z"/>
<path d="M8921 9561 c-22 -31 -28 -61 -11 -61 5 0 7 6 4 14 -8 21 39 71 61 63
14 -6 15 -10 5 -22 -7 -8 -16 -13 -20 -10 -10 6 -35 -23 -27 -31 3 -3 22 6 41
21 29 22 34 30 25 41 -19 24 -56 16 -78 -15z"/>
<path d="M9768 9014 c-44 -33 -46 -37 -38 -66 5 -17 12 -33 15 -36 10 -10 105
63 105 81 0 21 -18 57 -28 57 -4 0 -28 -16 -54 -36z m67 -5 c4 -11 5 -22 3
-23 -1 -1 -20 -15 -41 -31 -32 -24 -40 -26 -48 -14 -15 24 -10 35 28 62 45 32
50 33 58 6z"/>
<path d="M9255 8384 c-33 -31 -46 -46 -30 -35 46 31 111 90 100 90 -5 0 -37
-25 -70 -55z"/>
<path d="M7206 8259 c-31 -24 -33 -44 -7 -59 24 -12 58 -1 85 29 15 17 16 23
6 36 -17 21 -53 19 -84 -6z m44 0 c-13 -6 -32 -15 -40 -22 -9 -7 -5 -2 8 11
13 12 31 22 40 21 11 0 9 -4 -8 -10z m17 -27 c-17 -19 -47 -25 -47 -11 0 10
31 28 49 29 11 0 11 -4 -2 -18z"/>
<path d="M7096 8073 c-28 -31 -46 -43 -67 -43 -45 0 -75 -16 -167 -87 -163
-127 -350 -282 -371 -309 -27 -35 -29 -114 -3 -136 9 -9 135 -75 279 -147 263
-131 289 -140 350 -123 24 8 469 406 484 434 16 30 11 103 -9 121 -19 17 -263
136 -417 202 -49 21 -92 40 -94 42 -2 1 11 20 29 43 43 55 35 57 -14 3z m114
-129 c83 -36 150 -70 150 -74 0 -5 -12 -18 -26 -29 -16 -13 -24 -27 -20 -36 8
-21 27 -18 59 10 36 32 35 42 -2 16 -42 -30 -58 -26 -21 5 l31 26 74 -32 c104
-45 115 -55 115 -97 0 -39 26 -13 -287 -297 -164 -148 -175 -156 -214 -156
-37 0 -139 44 -139 60 0 3 21 24 47 45 44 37 53 40 126 46 71 5 82 9 110 37
18 18 43 40 56 50 26 20 23 55 -6 66 -22 9 -63 -20 -63 -44 0 -22 -36 -50 -65
-50 -11 0 -26 9 -33 20 -15 24 -40 26 -49 4 -15 -39 70 -55 126 -23 41 24 52
17 22 -15 -19 -20 -36 -25 -102 -31 -84 -8 -108 -2 -68 15 21 9 19 9 -11 4
-62 -11 -75 -23 -71 -65 2 -23 -34 -52 -57 -45 -22 7 -32 33 -32 84 0 44 18
40 23 -5 3 -35 4 -35 5 9 2 41 7 52 44 86 35 34 49 40 98 45 60 5 118 30 168
72 27 22 34 24 56 14 14 -7 26 -18 26 -25 0 -18 29 -26 51 -14 23 13 25 48 3
57 -9 3 -25 1 -36 -6 -13 -8 -24 -9 -39 -1 -34 19 -16 35 43 38 49 3 57 0 63
-18 7 -23 53 -28 73 -8 34 34 -8 78 -56 60 -43 -16 -82 -23 -100 -17 -14 4
-16 14 -14 50 5 59 -16 91 -75 117 -75 33 -170 15 -260 -51 -77 -56 -107 -158
-62 -214 l20 -27 -38 -32 c-21 -18 -62 -55 -91 -82 -29 -27 -56 -46 -60 -42
-4 4 26 38 66 74 40 37 72 72 72 77 0 6 -8 1 -18 -11 -27 -32 -139 -124 -151
-124 -23 0 -9 18 67 80 42 36 80 68 83 73 3 5 9 45 12 89 4 51 12 87 22 98 21
23 19 35 -10 58 l-25 20 47 40 c82 67 124 92 160 92 19 0 95 -27 183 -66z
m-15 -68 c35 -15 65 -59 65 -96 0 -34 -37 -96 -77 -129 -102 -84 -281 -81
-314 6 -19 50 15 134 69 169 24 15 25 15 13 1 -18 -23 -5 -21 28 2 36 26 108
44 147 37 48 -10 84 -42 84 -77 0 -42 -20 -70 -41 -59 -12 7 -22 4 -35 -11
-31 -34 -70 -49 -125 -49 -84 0 -114 46 -67 105 l21 27 -21 -13 c-27 -17 -42
-57 -32 -84 15 -39 36 -47 108 -43 56 3 76 9 105 31 20 15 38 23 42 17 8 -13
-62 -57 -117 -71 -37 -10 -55 -10 -87 0 -64 19 -81 57 -56 126 7 20 6 20 -9 1
-22 -27 -20 -78 5 -109 41 -54 132 -57 223 -9 81 44 120 114 96 173 -16 37
-41 51 -105 60 l-50 6 48 2 c26 0 63 -5 82 -13z m-375 -25 c0 -6 -4 -13 -10
-16 -5 -3 -10 1 -10 9 0 9 5 16 10 16 6 0 10 -4 10 -9z m14 -49 c-16 -12 -53
-43 -82 -68 -51 -45 -53 -45 -77 -30 -31 20 -32 36 -2 36 25 0 125 63 145 92
11 16 17 17 29 6 13 -11 11 -15 -13 -36z m-59 18 c3 -5 -1 -10 -9 -10 -9 0
-16 5 -16 10 0 6 4 10 9 10 6 0 13 -4 16 -10z m-30 -20 c3 -5 1 -10 -4 -10 -6
0 -11 5 -11 10 0 6 2 10 4 10 3 0 8 -4 11 -10z m-20 -20 c3 -5 1 -10 -4 -10
-6 0 -11 5 -11 10 0 6 2 10 4 10 3 0 8 -4 11 -10z m-25 -10 c0 -5 -5 -10 -11
-10 -5 0 -7 5 -4 10 3 6 8 10 11 10 2 0 4 -4 4 -10z m120 -68 c-4 -38 -10 -74
-14 -81 -14 -22 -159 -141 -173 -141 -27 0 -11 20 46 60 79 53 91 72 91 141 0
47 4 59 23 72 12 9 24 16 27 16 3 1 3 -30 0 -67z m772 -4 c-4 -23 -52 -72
-231 -235 -124 -113 -236 -209 -249 -214 -13 -5 -35 -9 -49 -9 -23 0 -528 245
-560 272 -7 6 -13 20 -13 31 0 18 1 18 19 -4 11 -14 132 -80 278 -153 238
-118 263 -128 297 -122 30 6 71 38 204 158 273 248 292 267 293 308 0 26 2 30
8 16 4 -10 5 -32 3 -48z m-892 -18 c10 0 28 12 39 28 l21 27 -6 -60 c-4 -33
-11 -66 -17 -73 -5 -7 -39 -33 -75 -58 -65 -46 -66 -46 -98 -30 -43 20 -68 58
-58 88 3 13 32 46 62 75 l56 51 29 -24 c16 -13 37 -24 47 -24z m733 36 c6 -15
-11 -36 -28 -36 -17 0 -34 21 -28 36 3 8 15 14 28 14 13 0 25 -6 28 -14z m-93
-66 c0 -14 -20 -22 -37 -16 -12 5 -13 9 -3 21 11 14 40 10 40 -5z m-420 -66
c0 -3 -15 -17 -32 -32 -18 -15 -56 -48 -84 -74 -47 -45 -80 -62 -72 -38 5 16
162 149 176 150 6 0 12 -3 12 -6z m-12 -55 c-56 -49 -58 -53 -58 -100 0 -27
-2 -49 -5 -49 -7 0 -68 30 -75 37 -8 8 163 163 180 163 8 0 -11 -23 -42 -51z
m360 20 c4 -21 -26 -33 -44 -18 -11 9 -12 15 -3 26 15 18 43 13 47 -8z m-181
-55 c-9 -9 -28 6 -21 18 4 6 10 6 17 -1 6 -6 8 -13 4 -17z m-97 -79 c-16 -19
-30 -19 -30 0 0 17 33 38 38 24 2 -5 -2 -16 -8 -24z"/>
<path d="M6998 7993 c-22 -5 -31 -32 -17 -49 15 -18 34 -18 53 1 26 26 3 56
-36 48z m27 -23 c3 -6 -1 -13 -10 -16 -19 -8 -30 0 -20 15 8 14 22 14 30 1z"/>
<path d="M7489 7744 c-15 -18 -2 -47 24 -52 22 -5 42 35 26 54 -15 18 -33 18
-50 -2z m41 -20 c0 -9 -7 -14 -17 -12 -25 5 -28 28 -4 28 12 0 21 -6 21 -16z"/>
<path d="M7052 7358 c-18 -18 -15 -36 9 -48 26 -14 51 4 47 34 -3 24 -37 33
-56 14z m44 -9 c9 -16 -12 -33 -31 -25 -14 5 -15 9 -5 21 15 18 26 19 36 4z"/>
<path d="M7005 7834 c-32 -16 -54 -34 -42 -34 3 0 21 9 39 20 45 27 128 28
153 0 12 -13 15 -27 11 -47 -5 -21 -4 -24 4 -13 15 23 12 55 -8 73 -24 22
-116 22 -157 1z"/>
<path d="M7015 7818 c-39 -21 -75 -62 -75 -84 0 -45 72 -68 135 -44 59 22 95
96 63 128 -15 15 -96 15 -123 0z m106 -8 c28 -15 23 -44 -11 -79 -35 -35 -83
-47 -123 -32 -36 14 -44 37 -21 63 46 51 111 71 155 48z"/>
<path d="M6915 7799 c-11 -17 1 -21 15 -4 8 9 8 15 2 15 -6 0 -14 -5 -17 -11z"/>
<path d="M6543 7623 c-16 -6 -17 -35 -1 -51 16 -16 23 -15 42 4 12 12 13 20 6
35 -11 19 -23 22 -47 12z m37 -22 c0 -14 -18 -23 -30 -16 -6 4 -8 11 -5 16 8
12 35 12 35 0z"/>
<path d="M7390 7710 c0 -5 5 -10 10 -10 6 0 10 5 10 10 0 6 -4 10 -10 10 -5 0
-10 -4 -10 -10z"/>
<path d="M7945 8018 c-42 -23 -48 -68 -13 -92 32 -22 55 -20 83 9 30 29 31 49
5 75 -22 22 -45 25 -75 8z m70 -18 c4 -6 -5 -7 -23 -4 -24 5 -33 1 -51 -21
-11 -15 -21 -22 -21 -15 0 37 77 69 95 40z m-4 -26 c11 -14 10 -18 -6 -30 -25
-18 -44 -18 -51 1 -7 17 12 45 31 45 7 0 19 -7 26 -16z"/>
<path d="M8515 8151 c-114 -69 -140 -229 -50 -299 83 -66 212 23 223 154 5 64
-9 105 -50 139 -36 30 -81 32 -123 6z m106 -21 c50 -27 63 -118 27 -190 -42
-82 -120 -110 -172 -61 -31 29 -40 69 -31 129 5 37 16 56 50 89 44 45 84 55
126 33z"/>
<path d="M8541 8087 c-68 -34 -88 -130 -37 -174 36 -30 59 -29 97 5 41 36 52
114 23 149 -25 28 -54 35 -83 20z m80 -44 c22 -59 -23 -134 -81 -132 l-25 0
25 10 c56 22 85 83 61 128 -8 14 -8 21 -1 21 6 0 15 -12 21 -27z m-33 -26 c4
-45 -19 -77 -53 -77 -40 0 -47 52 -14 94 32 40 63 32 67 -17z"/>
<path d="M7915 7579 c-95 -75 -155 -129 -155 -139 0 -3 20 -22 44 -43 l45 -37
108 89 c60 49 114 95 120 103 10 12 5 22 -30 56 l-43 42 -89 -71z m117 14 c31
-29 35 -43 15 -43 -17 0 -69 54 -60 63 10 11 15 9 45 -20z m-19 -41 c12 -13
14 -22 8 -26 -21 -14 -79 33 -66 54 8 12 32 0 58 -28z m-48 -22 c25 -26 26
-30 11 -36 -21 -8 -72 38 -62 55 11 17 20 14 51 -19z m-20 -49 c2 -5 -1 -14
-8 -20 -10 -8 -20 -4 -41 18 -36 38 -26 59 14 31 16 -12 32 -25 35 -29z m-35
-42 c0 -22 -25 -18 -52 9 -41 41 -28 60 18 26 19 -15 34 -30 34 -35z m-65 -4
c22 -19 27 -27 18 -36 -9 -9 -19 -6 -42 12 -31 25 -40 49 -18 49 6 -1 25 -12
42 -25z"/>
<path d="M7792 7328 c-30 -30 3 -68 43 -50 29 13 31 24 9 46 -19 19 -36 20
-52 4z m36 -26 c2 -7 -3 -12 -12 -12 -9 0 -16 7 -16 16 0 17 22 14 28 -4z"/>
<path d="M8375 7280 c3 -5 0 -10 -7 -10 -7 -1 2 -14 21 -30 19 -16 37 -27 39
-25 3 3 -7 14 -22 26 -34 27 -27 36 11 14 l28 -17 -30 26 c-30 26 -52 35 -40
16z"/>
<path d="M8360 7231 c0 -5 14 -19 30 -31 17 -12 30 -18 29 -13 0 12 -59 56
-59 44z"/>
<path d="M8371 7180 c26 -21 20 -26 -14 -9 -15 7 -13 2 8 -15 34 -29 54 -35
34 -9 -12 15 -12 16 6 10 15 -5 13 -1 -8 18 -15 14 -33 25 -39 25 -5 0 0 -9
13 -20z"/>
<path d="M6304 7326 c-10 -8 -15 -18 -11 -22 4 -4 17 2 30 14 24 25 12 30 -19
8z"/>
<path d="M6512 7224 c-12 -8 -20 -19 -17 -24 8 -13 55 10 55 27 0 17 -11 17
-38 -3z m23 -4 c-3 -5 -12 -10 -18 -10 -7 0 -6 4 3 10 19 12 23 12 15 0z"/>
<path d="M6824 7078 c-5 -8 -2 -9 10 -5 10 4 15 3 11 -4 -4 -5 -15 -7 -26 -4
-10 4 -19 2 -19 -4 0 -20 21 -22 47 -6 20 14 23 19 12 26 -19 12 -26 11 -35
-3z"/>
<path d="M7828 6670 c12 -5 22 -17 22 -26 0 -13 -3 -14 -15 -4 -23 19 -55 1
-76 -43 -24 -53 -24 -70 1 -92 18 -17 21 -17 46 0 64 41 81 167 24 172 -25 3
-25 3 -2 -7z m2 -67 c0 -29 -35 -73 -58 -73 -11 0 -13 8 -8 32 12 60 66 94 66
41z m-25 -83 c-3 -5 -14 -10 -23 -9 -14 0 -13 2 3 9 27 11 27 11 20 0z"/>
<path d="M7132 6568 c-16 -16 -15 -33 1 -47 19 -15 50 9 45 35 -4 23 -29 29
-46 12z m28 -28 c-21 -14 -30 -12 -30 4 0 18 22 27 35 14 6 -6 5 -12 -5 -18z"/>
<path d="M6787 6550 c-74 -58 -44 -190 43 -190 90 0 144 126 80 190 -27 27
-89 27 -123 0z m128 -21 c13 -20 0 -15 -25 9 -23 22 -23 24 -3 13 12 -6 25
-16 28 -22z m-25 -9 c29 -29 35 -66 16 -96 -35 -52 -103 -53 -127 0 -22 48 17
116 66 116 14 0 34 -9 45 -20z"/>
<path d="M6806 6505 c-25 -25 -29 -54 -12 -80 19 -29 42 -32 74 -9 25 17 31
71 10 92 -17 17 -54 15 -72 -3z m62 -7 c20 -20 14 -56 -13 -74 -30 -20 -55 -5
-55 32 0 41 42 68 68 42z"/>
<path d="M7966 6449 c-3 -8 -30 -84 -59 -169 -30 -86 -64 -177 -75 -203 -11
-26 -17 -47 -13 -47 14 0 34 50 112 279 27 79 47 146 44 149 -2 3 -7 -1 -9 -9z"/>
<path d="M6019 6131 c-31 -31 -35 -51 -19 -80 14 -27 38 -33 69 -16 43 22 56
78 25 109 -23 23 -42 20 -75 -13z m26 -1 c-3 -6 4 -10 17 -10 18 0 20 2 8 10
-13 8 -13 10 2 10 22 0 32 -34 18 -60 -14 -27 -59 -45 -74 -30 -8 8 -5 9 9 4
17 -7 18 -6 7 8 -7 8 -9 24 -5 33 5 14 3 16 -8 10 -8 -5 -5 1 5 13 20 23 32
30 21 12z"/>
<path d="M7615 5975 c-48 -47 -22 -115 29 -81 27 17 48 80 33 95 -17 17 -36
13 -62 -14z m45 -13 c0 -21 -27 -62 -41 -62 -12 0 -12 36 1 61 13 24 40 25 40
1z"/>
<path d="M6357 5912 c-10 -10 -17 -28 -17 -40 0 -23 25 -52 45 -52 41 0 59 64
27 93 -24 22 -35 21 -55 -1z m53 -21 c20 -38 -16 -74 -45 -45 -18 18 -18 20
-5 45 14 24 36 24 50 0z"/>
<path d="M6046 5851 c-25 -28 -17 -72 16 -90 24 -14 28 -14 47 3 23 21 28 75
9 94 -18 18 -53 15 -72 -7z m62 -3 c26 -26 7 -78 -29 -78 -31 0 -40 62 -11 79
22 13 26 13 40 -1z"/>
<path d="M5586 5714 c-19 -18 -21 -55 -4 -72 19 -19 46 -14 64 13 33 50 -19
100 -60 59z m49 -34 c0 -18 -6 -26 -23 -28 -27 -4 -40 22 -22 44 19 22 45 13
45 -16z"/>
<path d="M6270 5718 c0 -23 182 -388 194 -388 4 0 4 6 -2 13 -5 6 -51 98 -101
202 -50 105 -91 182 -91 173z"/>
<path d="M5906 5694 c-3 -9 -6 -29 -6 -45 0 -59 61 -464 72 -474 7 -7 9 -4 5
10 -3 11 -20 123 -38 249 -24 176 -29 234 -20 252 6 13 7 24 2 24 -5 0 -12 -7
-15 -16z"/>
<path d="M5286 5541 c18 -11 35 -24 38 -29 3 -6 -12 -63 -34 -127 -23 -65 -39
-119 -37 -122 5 -4 54 127 78 206 13 42 12 44 -15 67 -15 13 -35 24 -44 24
-11 0 -6 -7 14 -19z"/>
<path d="M6580 5385 c-15 -19 -6 -61 16 -69 20 -8 54 20 54 44 0 36 -46 53
-70 25z m45 -26 c0 -28 -29 -38 -39 -13 -7 19 11 47 28 41 6 -2 11 -14 11 -28z"/>
<path d="M6117 5203 c-13 -12 -7 -61 9 -74 33 -27 72 33 44 67 -13 15 -42 19
-53 7z m46 -49 c-3 -8 -12 -14 -19 -14 -21 0 -28 28 -13 46 12 14 14 14 25 -1
7 -9 10 -23 7 -31z"/>
<path d="M10024 10028 c-115 -105 -263 -241 -329 -302 -66 -61 -258 -237 -425
-391 -644 -591 -776 -713 -790 -731 -8 -10 -1 -7 15 7 59 51 497 450 860 784
204 187 481 441 615 564 135 123 251 230 259 237 8 8 12 16 10 19 -3 3 -100
-81 -215 -187z"/>
<path d="M10034 9205 c-32 -49 11 -110 62 -86 50 23 34 111 -21 111 -15 0 -31
-10 -41 -25z m76 -36 c0 -33 -23 -48 -49 -32 -23 14 -26 54 -6 70 27 19 55 -1
55 -38z"/>
<path d="M10053 9184 c-3 -8 1 -22 9 -30 13 -13 16 -13 27 0 7 9 11 23 7 31
-7 20 -35 19 -43 -1z m31 -15 c-3 -5 -10 -7 -15 -3 -5 3 -7 10 -3 15 3 5 10 7
15 3 5 -3 7 -10 3 -15z"/>
<path d="M9148 8956 c-13 -29 -6 -51 20 -65 40 -22 83 44 50 77 -21 21 -57 14
-70 -12z m60 -25 c-2 -18 -9 -26 -23 -26 -23 0 -32 30 -15 50 18 21 42 7 38
-24z"/>
<path d="M9177 8944 c-8 -8 1 -24 14 -24 5 0 9 7 9 15 0 15 -12 20 -23 9z"/>
<path d="M9025 8918 c-12 -55 -32 -274 -25 -281 4 -4 12 45 19 110 7 65 16
135 21 156 4 20 4 37 -1 37 -5 0 -11 -10 -14 -22z"/>
<path d="M8625 8628 c-29 -16 -35 -28 -35 -69 0 -43 25 -69 67 -69 72 0 89
101 22 135 -33 18 -29 17 -54 3z m70 -38 c27 -29 10 -74 -28 -78 -36 -4 -57
13 -57 47 0 51 50 69 85 31z"/>
<path d="M8630 8585 c-24 -29 8 -75 44 -62 30 12 14 77 -20 77 -6 0 -17 -7
-24 -15z m40 -24 c0 -11 -4 -22 -9 -25 -12 -8 -34 21 -26 34 11 17 35 11 35
-9z"/>
<path d="M4705 5573 c-11 -3 -38 -18 -60 -33 -22 -15 -98 -67 -168 -115 l-129
-87 -31 30 c-40 39 -82 55 -121 46 -39 -8 -378 -183 -471 -242 -38 -24 -109
-73 -157 -108 -48 -35 -91 -64 -96 -64 -5 0 -19 11 -32 25 -49 53 -92 45 -216
-40 -35 -24 -103 -66 -150 -92 -48 -26 -137 -91 -198 -143 -61 -53 -137 -117
-170 -143 -32 -26 -67 -58 -76 -70 -10 -12 -64 -119 -119 -237 -130 -273 -163
-334 -244 -448 -47 -67 -78 -125 -109 -204 -27 -71 -84 -183 -160 -312 -164
-278 -245 -441 -323 -650 -36 -98 -81 -202 -99 -230 -18 -28 -77 -96 -132
-151 -79 -80 -115 -108 -175 -138 -91 -45 -166 -118 -226 -222 -98 -167 -426
-479 -905 -859 -122 -97 -138 -113 -138 -139 0 -28 1 -29 18 -15 9 8 100 82
202 163 251 202 448 374 612 535 140 139 149 139 55 1 -17 -24 -25 -41 -18
-37 16 10 96 131 179 272 116 197 159 235 326 294 93 33 151 65 176 96 13 16
11 15 -15 -3 -38 -26 -82 -48 -115 -58 -19 -5 -5 14 56 76 141 147 205 222
243 289 72 124 66 135 -8 16 -50 -83 -87 -127 -58 -70 8 16 38 94 67 174 60
169 151 354 276 565 48 83 105 182 126 220 21 39 38 64 38 57 0 -12 -40 -179
-57 -237 -3 -11 -3 -17 1 -14 10 9 55 165 81 284 34 152 74 227 191 360 102
117 151 187 65 95 l-51 -55 98 200 c54 110 104 215 111 233 12 29 18 32 55 32
22 1 55 8 71 16 17 8 21 12 10 8 -43 -12 -115 -17 -115 -7 0 27 38 53 90 63
l55 9 -52 -3 c-29 -2 -53 0 -53 4 0 10 35 40 47 40 6 0 13 4 15 9 9 25 285
249 366 298 l94 55 39 -18 c32 -14 46 -15 74 -7 19 6 35 10 35 9 0 -2 -24 -19
-52 -39 -87 -60 -122 -103 -242 -307 -104 -175 -116 -191 -117 -160 -1 30 -3
27 -13 -21 -27 -121 -227 -367 -349 -428 -65 -33 -49 -32 43 2 42 16 73 39
135 101 94 94 158 187 321 461 65 110 136 219 159 242 36 38 101 86 436 325
l97 69 53 -21 c30 -12 49 -17 44 -11 -6 6 -28 17 -49 24 l-39 13 64 36 c35 20
88 48 117 62 l53 27 35 -27 c19 -15 56 -33 81 -39 l45 -11 -92 -70 c-51 -38
-162 -116 -248 -174 l-156 -105 -132 -198 c-209 -312 -345 -492 -439 -580 -16
-15 -70 -49 -120 -74 -93 -47 -91 -52 5 -14 l55 22 -30 -26 c-27 -23 -27 -25
-5 -14 40 20 123 83 174 134 79 80 222 273 456 618 72 108 74 110 201 193 70
46 205 144 301 217 95 73 221 166 280 205 101 68 108 71 118 52 14 -26 79 -59
133 -66 33 -5 54 -1 88 16 94 47 120 98 82 157 -10 15 -12 24 -5 19 21 -13 52
-83 52 -119 0 -71 -29 -125 -118 -218 -47 -50 -119 -117 -161 -151 -66 -53
-76 -58 -82 -42 -7 17 -8 17 -8 -3 -1 -33 -99 -141 -260 -288 -168 -153 -174
-157 -166 -118 4 23 3 21 -9 -7 -44 -114 -148 -283 -266 -433 -116 -149 -145
-210 -121 -255 8 -16 2 -26 -37 -64 -26 -26 -74 -65 -106 -87 -66 -45 -67 -52
-3 -20 117 59 319 249 540 506 120 140 129 148 252 228 119 77 192 133 289
225 82 77 269 230 282 230 3 0 3 -7 0 -16 -9 -23 52 -80 102 -94 36 -11 48
-11 87 5 26 9 64 34 86 55 32 30 39 44 39 76 1 35 2 37 12 19 18 -30 12 -118
-10 -168 -27 -62 -88 -149 -156 -226 -67 -74 -145 -143 -155 -137 -4 3 -12 -7
-19 -22 -18 -39 -97 -131 -235 -270 -110 -111 -123 -121 -128 -100 -4 20 -6
17 -11 -14 -10 -57 -110 -192 -323 -436 -51 -58 -85 -87 -125 -107 -47 -22
-37 -29 14 -9 20 8 -12 -68 -80 -189 -83 -147 -107 -181 -195 -273 -48 -50
-94 -106 -104 -125 l-16 -34 27 35 c45 56 137 151 142 146 10 -11 -111 -334
-169 -448 -17 -33 -28 -62 -26 -65 7 -6 60 90 97 177 18 41 36 79 40 83 9 10
30 -93 30 -150 0 -46 -6 -51 -36 -28 -23 17 -38 19 -28 4 12 -21 98 -69 123
-70 18 0 -7 -17 -84 -55 -60 -29 -103 -53 -95 -53 8 -1 62 22 120 50 58 28
130 60 160 71 30 12 110 60 178 107 67 47 163 114 213 149 49 34 86 62 82 62
-18 0 90 97 163 146 259 173 502 204 589 76 36 -53 31 -55 -18 -7 -82 83 -147
80 -241 -11 -81 -78 -85 -119 -20 -244 48 -93 67 -109 106 -89 13 6 -8 -16
-45 -51 -37 -34 -88 -90 -114 -124 -54 -72 -104 -126 -115 -126 -4 0 -8 8 -8
18 0 41 -33 125 -61 155 l-30 32 25 -40 c31 -51 49 -111 44 -155 -2 -28 -10
-38 -43 -57 l-40 -22 -28 27 c-43 41 -69 88 -94 172 -22 70 -23 72 -18 25 8
-66 48 -151 90 -195 l35 -36 -152 -99 c-126 -83 -179 -127 -314 -257 l-163
-157 -168 -82 c-92 -45 -246 -124 -342 -177 -300 -163 -370 -187 -581 -202
-161 -12 -217 -27 -329 -86 -61 -32 -79 -39 -65 -23 62 69 212 158 344 205 75
26 60 32 -21 8 -130 -38 -267 -128 -359 -233 -75 -86 -150 -141 -289 -210
-222 -112 -381 -219 -607 -409 -65 -55 -137 -120 -159 -144 l-40 -43 40 37
c168 153 508 397 690 494 l90 47 -135 -139 c-189 -195 -402 -439 -618 -708
-62 -76 -112 -143 -112 -147 0 -21 48 -7 67 19 52 71 280 344 423 507 237 271
371 407 494 500 61 46 138 105 171 131 71 55 171 107 246 127 30 9 104 18 164
21 127 7 248 33 346 77 38 16 154 75 257 131 103 55 261 136 351 180 l163 80
147 142 c80 78 174 163 208 189 53 41 224 151 387 248 23 15 69 60 101 100 32
41 129 146 215 234 87 89 165 176 175 194 13 25 16 51 13 97 -5 79 -38 126
-119 167 -51 27 -60 28 -144 24 -104 -6 -197 -35 -314 -98 -89 -48 -205 -134
-256 -190 -20 -22 -69 -64 -110 -92 -41 -29 -117 -82 -169 -120 -119 -85 -182
-116 -246 -124 l-50 -6 0 54 c0 29 -5 89 -11 133 -11 79 -11 84 21 186 21 67
47 127 74 165 22 33 76 129 119 214 70 138 89 166 182 270 119 132 176 204
247 310 28 40 97 118 154 173 56 55 136 138 176 185 40 48 127 141 193 207
180 181 255 305 255 425 0 79 -31 137 -91 169 -60 32 -104 25 -188 -31 -107
-71 -270 -199 -375 -294 -137 -124 -174 -153 -316 -247 -130 -87 -152 -108
-290 -266 -116 -133 -290 -313 -296 -307 -15 15 26 89 105 190 93 119 150 202
226 334 38 65 67 98 139 160 49 43 158 146 242 228 83 83 192 186 243 230 99
86 177 171 211 228 27 46 36 132 20 182 -17 52 -74 113 -118 125 -39 10 -45
11 -77 3z m73 -60 c33 -20 59 -79 46 -101 -6 -9 -40 -33 -76 -52 l-65 -34 -35
30 c-19 16 -49 36 -66 43 l-33 14 23 24 c13 14 50 42 82 64 61 41 76 42 124
12z m-190 -127 c15 -8 36 -24 47 -35 l19 -22 -27 10 c-48 19 -87 41 -87 51 0
14 16 12 48 -4z m-327 -35 c16 -16 29 -34 29 -39 0 -17 -92 -82 -126 -88 -26
-5 -40 -1 -62 17 -16 13 -38 29 -48 36 -19 11 -18 12 1 26 35 27 137 77 157
77 11 0 33 -13 49 -29z m47 -36 c-3 -3 -9 2 -12 12 -6 14 -5 15 5 6 7 -7 10
-15 7 -18z m-237 -65 c31 -25 12 -26 -21 0 -14 11 -20 20 -14 20 7 0 22 -9 35
-20z m-683 -242 c23 -23 12 -47 -32 -73 -42 -25 -117 -37 -132 -22 -10 10 14
35 71 73 53 36 74 41 93 22z m1777 -14 c29 -31 40 -76 25 -104 -15 -28 -84
-77 -121 -85 -24 -5 -33 -2 -54 23 -13 16 -38 35 -55 42 -16 7 -30 14 -30 17
0 17 28 48 81 87 73 55 116 61 154 20z m-1749 -42 c-15 -15 -15 -15 -4 10 7
15 15 23 17 17 2 -6 -4 -18 -13 -27z m1554 -97 c34 -18 59 -55 37 -55 -18 0
-79 42 -85 58 -5 16 13 15 48 -3z m153 -1769 c41 -17 93 -76 102 -115 10 -48
-19 -94 -106 -166 l-79 -66 0 33 c0 51 -39 109 -91 138 -49 27 -51 34 -16 83
27 39 115 107 138 107 11 0 34 -6 52 -14z m-148 -207 c41 -36 63 -99 46 -136
-6 -13 -14 -23 -18 -23 -9 0 -75 118 -92 163 -9 24 -8 27 9 27 11 0 35 -14 55
-31z"/>
<path d="M3240 4926 c0 -2 7 -7 16 -10 8 -3 12 -2 9 4 -6 10 -25 14 -25 6z"/>
<path d="M4350 5254 c19 -9 51 -25 70 -37 25 -15 31 -16 22 -5 -14 18 -63 42
-102 52 -15 4 -12 0 10 -10z"/>
<path d="M4293 5224 c12 -12 128 -63 122 -54 -4 6 -20 17 -38 26 -32 17 -94
37 -84 28z"/>
<path d="M3821 5166 c2 -2 15 -9 29 -15 24 -11 24 -11 6 3 -16 13 -49 24 -35
12z"/>
<path d="M3882 5114 c10 -10 20 -15 24 -12 3 4 -5 12 -18 18 -22 12 -22 12 -6
-6z"/>
<path d="M3864 4865 c64 -32 92 -59 122 -115 12 -25 23 -39 24 -32 1 42 -73
132 -124 152 -55 20 -66 18 -22 -5z"/>
<path d="M3378 4805 c24 -7 52 -21 63 -31 11 -9 19 -12 19 -6 0 15 -73 52
-102 51 -15 0 -8 -5 20 -14z"/>
<path d="M3760 4785 c37 -38 55 -48 24 -14 -19 22 -19 22 6 14 53 -16 69 -25
106 -57 33 -29 35 -30 21 -7 -19 29 -77 64 -124 74 -18 3 -35 11 -38 16 -4 5
-11 9 -18 9 -6 0 4 -16 23 -35z"/>
<path d="M3060 4796 c0 -2 7 -7 16 -10 8 -3 12 -2 9 4 -6 10 -25 14 -25 6z"/>
<path d="M2991 4786 c2 -2 22 -6 44 -9 27 -4 35 -3 25 3 -14 9 -79 15 -69 6z"/>
<path d="M3265 4772 c6 -5 35 -14 66 -21 63 -13 96 -33 109 -65 7 -17 9 -18 9
-3 1 27 -42 64 -85 75 -68 17 -109 23 -99 14z"/>
<path d="M3690 4763 c0 -33 128 -112 163 -100 6 2 -11 11 -39 21 -30 10 -67
32 -88 53 -20 20 -36 32 -36 26z"/>
<path d="M3210 4725 c0 -12 86 -45 115 -44 23 0 17 4 -25 15 -30 8 -59 19 -64
24 -11 11 -26 13 -26 5z"/>
<path d="M4770 4685 c59 -32 76 -31 25 0 -22 14 -47 25 -55 24 -8 0 5 -11 30
-24z"/>
<path d="M3650 4680 c0 -18 74 -69 116 -80 64 -18 64 -7 0 13 -30 10 -68 30
-85 46 -17 16 -31 25 -31 21z"/>
<path d="M4710 4659 c27 -21 80 -52 80 -46 0 2 -20 18 -44 35 -49 35 -76 44
-36 11z"/>
<path d="M3200 4657 c23 -22 77 -37 129 -36 44 1 43 2 -18 11 -35 5 -77 16
-95 24 -26 13 -28 14 -16 1z"/>
<path d="M4812 4626 c20 -20 40 -36 44 -36 12 0 -38 51 -61 62 -11 5 -3 -6 17
-26z"/>
<path d="M3955 4596 c-11 -7 -33 -18 -50 -24 -22 -8 -25 -11 -10 -11 19 -1 85
33 85 44 0 8 -4 6 -25 -9z"/>
<path d="M2778 4560 c23 -5 48 -12 55 -16 9 -5 9 -4 1 5 -6 7 -31 14 -55 17
l-44 3 43 -9z"/>
<path d="M4330 4352 c49 -32 96 -90 118 -143 13 -31 20 -41 17 -24 -10 54 -50
119 -94 152 -23 18 -48 33 -54 32 -7 0 -1 -8 13 -17z"/>
<path d="M4240 4322 c14 -9 46 -38 73 -64 51 -52 60 -54 26 -6 -24 32 -95 88
-113 87 -6 0 0 -7 14 -17z"/>
<path d="M4205 4253 c30 -47 58 -74 112 -109 75 -49 78 -42 5 11 -35 25 -75
63 -90 85 -30 44 -54 55 -27 13z"/>
<path d="M4140 4210 c0 -25 51 -88 93 -116 29 -19 57 -28 92 -30 l50 -3 -48 9
c-62 11 -123 53 -159 109 -15 25 -28 39 -28 31z"/>
<path d="M3229 4108 c-58 -76 -102 -119 -189 -180 -169 -121 -200 -161 -271
-351 -27 -70 -54 -137 -60 -148 -6 -12 -8 -23 -6 -26 8 -7 90 169 89 190 0 9
3 15 8 12 6 -4 7 2 3 11 -5 13 -3 15 7 9 9 -5 11 -4 6 3 -8 13 19 69 62 129
17 22 68 69 114 104 125 93 221 191 272 277 16 27 -4 9 -35 -30z"/>
<path d="M3665 4066 c-34 -73 -55 -143 -54 -181 0 -11 7 5 14 35 7 30 29 92
48 138 19 45 33 82 30 82 -2 0 -20 -33 -38 -74z"/>
<path d="M2760 4032 c-41 -42 -106 -103 -143 -136 -81 -70 -113 -116 -144
-214 -30 -93 -29 -128 1 -42 42 118 65 151 196 280 105 104 183 191 168 190
-2 0 -37 -35 -78 -78z"/>
<path d="M3242 3908 c-30 -39 -80 -173 -69 -185 3 -2 12 20 21 49 8 30 27 75
40 101 25 46 28 59 8 35z"/>
<path d="M3602 3840 c0 -14 2 -19 5 -12 2 6 2 18 0 25 -3 6 -5 1 -5 -13z"/>
<path d="M2595 3613 c-36 -49 -65 -92 -65 -97 0 -5 32 33 70 84 39 51 70 95
70 97 0 13 -18 -8 -75 -84z"/>
<path d="M2325 3667 c-17 -27 -39 -86 -33 -92 2 -2 16 23 30 55 28 63 29 76 3
37z"/>
<path d="M3150 3630 c-12 -23 -19 -44 -16 -47 2 -3 14 14 26 37 12 23 19 44
16 47 -2 3 -14 -14 -26 -37z"/>
<path d="M3482 3593 c-105 -61 -156 -111 -190 -187 -15 -34 -42 -90 -60 -126
-21 -42 -25 -56 -12 -40 11 14 38 61 59 105 59 120 90 156 188 221 138 90 144
101 15 27z"/>
<path d="M3736 3507 c-27 -46 -79 -177 -73 -183 2 -3 12 17 22 43 10 27 33 78
52 116 37 75 37 89 -1 24z"/>
<path d="M2954 3491 c-33 -20 -103 -100 -151 -171 -39 -59 -45 -70 -39 -70 2
0 25 29 51 65 25 36 55 70 66 75 11 6 17 15 14 20 -3 4 18 29 47 54 57 50 60
56 12 27z"/>
<path d="M2971 3454 c-40 -19 -71 -37 -68 -40 5 -6 147 63 147 71 0 6 8 9 -79
-31z"/>
<path d="M2332 3258 c-28 -62 -85 -187 -127 -277 -42 -90 -74 -165 -72 -167 2
-2 41 74 87 168 87 182 173 378 167 384 -2 2 -27 -47 -55 -108z"/>
<path d="M2533 3123 c-50 -76 -159 -230 -241 -343 -188 -256 -219 -299 -200
-280 54 55 289 367 395 525 77 115 149 235 141 235 -2 0 -44 -62 -95 -137z"/>
<path d="M3560 3220 c-19 -10 -62 -29 -94 -41 -33 -13 -55 -24 -49 -26 16 -6
159 55 174 73 15 18 12 17 -31 -6z"/>
<path d="M3425 3209 c-78 -42 -131 -85 -245 -198 -125 -124 -116 -123 20 3 75
68 199 167 256 203 32 20 11 14 -31 -8z"/>
<path d="M3720 3130 c-25 -16 -40 -30 -35 -30 11 0 85 48 85 55 0 7 0 7 -50
-25z"/>
<path d="M2780 2767 c-91 -89 -232 -221 -315 -291 -168 -145 -209 -183 -150
-141 77 55 270 221 382 328 99 96 261 267 252 267 -2 0 -78 -74 -169 -163z"/>
<path d="M1902 2671 c-34 -99 -84 -230 -111 -292 -28 -62 -49 -115 -46 -117 5
-6 35 55 88 180 48 112 142 396 134 404 -2 3 -32 -76 -65 -175z"/>
<path d="M4880 2825 c0 -9 73 -136 76 -132 4 4 -65 137 -72 137 -2 0 -4 -2 -4
-5z"/>
<path d="M4540 2743 c-1 -59 71 -305 86 -291 2 2 -7 33 -20 68 -13 36 -29 97
-36 135 -12 64 -29 116 -30 88z"/>
<path d="M4692 2692 c45 -50 66 -89 90 -167 17 -57 18 -57 13 -15 -10 79 -70
186 -119 212 -14 7 -8 -3 16 -30z"/>
<path d="M4631 2533 c1 -16 47 -107 48 -95 1 7 -8 32 -20 57 -20 42 -30 55
-28 38z"/>
<path d="M3664 2448 c-36 -39 -114 -135 -133 -163 -7 -11 6 0 29 25 23 25 47
44 52 42 5 -1 7 2 4 7 -4 5 -3 11 2 13 4 1 21 21 38 43 54 71 58 87 8 33z"/>
<path d="M3704 2021 c-23 -10 -45 -24 -49 -31 -6 -9 89 33 104 46 11 10 -18 2
-55 -15z"/>
<path d="M4075 1938 c-33 -45 -93 -92 -142 -113 -17 -7 -69 -21 -115 -30 -46
-9 -107 -21 -136 -26 -102 -20 -44 -19 82 1 136 22 179 36 239 77 35 24 114
119 106 128 -2 2 -17 -15 -34 -37z"/>
<path d="M3299 1846 c-2 -2 -60 -21 -129 -40 -116 -34 -298 -113 -345 -151
-11 -9 22 5 74 30 52 26 162 69 245 96 140 45 197 68 170 69 -6 0 -13 -2 -15
-4z"/>
<path d="M2782 1725 c-93 -26 -253 -99 -278 -126 -8 -9 17 0 58 22 40 21 128
57 196 80 67 22 122 43 122 45 0 6 -9 4 -98 -21z"/>
<path d="M2267 1351 c-71 -93 -118 -131 -237 -191 -69 -35 -200 -116 -200
-125 0 -2 29 13 65 35 36 22 104 60 153 84 119 60 163 94 215 168 101 143 103
159 4 29z"/>
</g>
</svg>
