<svg width="584" height="584" viewBox="0 0 584 584" fill="none" xmlns="http://www.w3.org/2000/svg">
<rect width="584" height="584" fill="black"/>
<path d="M289.904 42C297.263 50.2552 296.991 190.772 333.37 236.563C341.654 246.99 352.397 254.688 364.376 260.284C410.836 281.987 493.918 286.452 545 292.024C489.146 301.954 396.439 298.906 347.999 333.213C298.617 368.186 300.234 483.697 291.334 540.689L291.211 542C288.688 541.523 287.503 522.308 287.137 518.904C282.144 472.436 277.079 391.024 250.715 352.066C213.35 296.857 100.063 302.886 41.7987 292.348L40 292.014C263.201 266.211 267.634 272.765 289.904 42Z" fill="#02DEF0"/>
</svg>
