<svg width="989" height="349" viewBox="0 0 989 349" fill="none" xmlns="http://www.w3.org/2000/svg">
<path fill-rule="evenodd" clip-rule="evenodd" d="M84.5114 108.373C107.541 106.366 130.468 113.247 148.586 127.604C167.534 142.607 180.732 165.311 183.308 189.431C186.172 214.134 178.757 238.93 162.801 258.004C147.337 276.862 124.987 288.769 100.71 291.083C77.0877 293.273 53.561 286.019 35.2741 270.907C31.9552 268.251 29.0709 265.34 26.026 262.379C25.483 290.514 25.8651 319.972 25.8541 348.208L0.190087 348.123C-0.18489 338.418 0.109915 326.715 0.113915 316.857L0.131493 258.729L0.078759 219.896C0.0617591 207.435 -0.432454 193.624 2.17251 181.517C5.36451 167.039 11.9099 153.512 21.2819 142.024C37.1419 122.336 58.6651 111.164 83.6481 108.496C83.9359 108.455 84.2236 108.414 84.5114 108.373ZM157.376 194.004C154.134 158.084 122.418 131.573 86.4928 134.751C50.4758 137.937 23.8815 169.75 27.1325 205.762C30.3836 241.773 62.2448 268.309 98.2497 264.994C134.164 261.687 160.618 229.924 157.376 194.004Z" fill="#FEFEFE"/>
<path fill-rule="evenodd" clip-rule="evenodd" d="M370.756 112.771C374.631 112.242 382.734 112.308 386.658 112.593C408.698 114.273 429.159 124.675 443.503 141.493C461.307 162.115 466.032 184.219 464.019 210.613L321.068 210.674C323.175 219.354 326.341 226.947 331.781 234.123C341.347 246.789 355.58 255.107 371.311 257.223C388.966 259.631 404.383 254.794 418.35 244.099C422.118 240.972 424.576 238.241 427.925 234.641C435.549 238.42 443.114 242.317 450.615 246.332C450.007 247.267 449.362 248.179 448.684 249.065C419.505 287.618 365.074 295.244 326.931 265.307C309.049 251.149 297.488 230.494 294.771 207.848C292.148 184.982 298.823 162.022 313.297 144.128C327.482 126.407 348.179 115.112 370.756 112.771ZM438.172 185.335C429.539 154.164 405.513 135.352 372.67 138.459C345.336 142.448 328.023 158.867 320.901 185.338L387.41 185.367L438.172 185.335Z" fill="#FEFEFE"/>
<path d="M787.248 112.523C797.638 112.435 808.18 112.556 818.583 112.582C812.213 119.819 802.273 133.895 796.297 141.841L754.258 197.662C760.579 206.78 769.31 217.689 776.098 226.682L818.11 282.609C814.347 283.255 791.76 282.956 787.182 282.949C784.945 279.704 782.281 276.139 779.832 273.015C765.926 255.279 753.043 235.592 738.513 218.461C732.55 225.438 725.839 234.861 720.251 242.308L689.828 282.942L658.75 282.838C666.345 273.467 674.532 261.964 681.847 252.163C695.367 233.975 708.978 215.855 722.68 197.804C702.933 169.987 679.305 140.218 658.662 112.582L689.741 112.518C705.305 133.232 722.507 157.133 738.657 177.141L787.248 112.523Z" fill="#FEFEFE"/>
<path d="M560.565 110.948C580.12 109.75 600.339 118.07 614.004 131.961C623.164 141.267 629.651 152.867 632.784 165.544C635.816 177.757 634.93 201.255 634.925 214.561L634.821 282.823L609.266 282.949L609.306 213.21C609.322 204.018 609.906 182.907 608.415 174.581C607.126 167.355 604.143 160.537 599.712 154.686C590.979 143.322 580.49 138.796 566.691 136.979L565.794 136.964C552.485 136.857 540.191 140.924 530.708 150.511C524.582 156.712 520.372 164.547 518.581 173.077C516.64 181.893 517.364 203.189 517.367 213.168L517.385 282.842L492.06 282.878C490.947 251.708 492.797 219.579 491.923 188.39C490.74 146.135 517.975 114.193 560.565 110.948Z" fill="#FEFEFE"/>
<path d="M230.293 108.246L256.016 108.072L255.928 282.812L230.258 282.841L230.293 108.246Z" fill="#FEFEFE"/>
<path d="M242.307 0C243.735 1.60151 243.682 28.8617 250.742 37.7451C252.35 39.768 254.434 41.2615 256.759 42.3471C265.775 46.5575 281.898 47.4238 291.811 48.5046C280.972 50.431 262.981 49.8397 253.581 56.4953C243.998 63.28 244.312 85.6891 242.585 96.7457L242.561 97C242.071 96.9074 241.841 93.1798 241.77 92.5194C240.801 83.5045 239.818 67.7107 234.702 60.1528C227.451 49.4423 205.467 50.6119 194.16 48.5674L193.811 48.5026C237.125 43.497 237.985 44.7683 242.307 0Z" fill="#02DEF0"/>
<path fill-rule="evenodd" clip-rule="evenodd" d="M895.258 113.417C899.148 112.863 907.489 112.929 911.439 113.222C933.598 114.9 954.148 125.46 968.408 142.506C985.538 162.576 990.678 185.511 988.538 211.258L845.717 211.326C847.618 220.035 851.401 228.223 856.798 235.316C866.478 247.862 880.758 256.027 896.478 258.002C913.768 260.161 929.198 255.371 942.818 244.807C946.228 242.064 949.349 238.561 952.358 235.355C960.118 239.035 967.768 242.933 975.308 247.045C974.678 247.976 974.018 248.889 973.328 249.782C944.838 287.383 891.808 295.612 853.761 267.554C835.289 253.932 822.293 232.189 819.484 209.37C816.569 186.277 823.193 162.992 837.826 144.891C851.965 127.111 872.658 115.768 895.258 113.417ZM962.668 182.006C955.108 152.416 928.408 130.057 897.048 135.072C869.568 139.566 852.863 155.34 845.389 182.015L912.558 181.995L962.668 182.006Z" fill="#FEFEFE"/>
</svg>
