<svg width="1882" height="1860" viewBox="0 0 1882 1860" fill="none" xmlns="http://www.w3.org/2000/svg">
<rect width="1882" height="1860" fill="white"/>
<g clip-path="url(#clip0_0_1)">
<rect width="1882" height="1860" fill="#030303"/>
<g clip-path="url(#clip1_0_1)">
<path d="M535.701 833.373C558.731 831.366 581.657 838.247 599.775 852.604C618.723 867.607 631.921 890.311 634.497 914.431C637.361 939.134 629.946 963.929 613.991 983.004C598.527 1001.86 576.177 1013.77 551.899 1016.08C528.277 1018.27 504.75 1011.02 486.463 995.907C483.144 993.251 480.26 990.34 477.215 987.379C476.672 1015.51 477.054 1044.97 477.043 1073.21L451.379 1073.12C451.004 1063.42 451.299 1051.72 451.303 1041.86L451.321 983.729L451.268 944.896C451.251 932.435 450.757 918.624 453.362 906.517C456.554 892.039 463.099 878.512 472.471 867.024C488.331 847.336 509.854 836.164 534.837 833.496C535.125 833.455 535.413 833.414 535.701 833.373ZM608.565 919.004C605.323 883.084 573.607 856.573 537.682 859.751C501.665 862.937 475.071 894.75 478.322 930.762C481.573 966.773 513.434 993.309 549.439 989.994C585.353 986.687 611.808 954.924 608.565 919.004Z" fill="#FEFEFE"/>
<path d="M821.945 837.771C825.82 837.242 833.924 837.308 837.848 837.593C859.888 839.273 880.348 849.675 894.692 866.493C912.496 887.116 917.221 909.219 915.208 935.613L772.257 935.674C774.364 944.354 777.53 951.948 782.97 959.123C792.536 971.789 806.77 980.107 822.5 982.223C840.155 984.631 855.573 979.794 869.539 969.099C873.307 965.972 875.765 963.241 879.114 959.641C886.738 963.42 894.303 967.317 901.805 971.332C901.196 972.267 900.551 973.179 899.873 974.065C870.694 1012.62 816.263 1020.24 778.12 990.307C760.239 976.149 748.677 955.494 745.96 932.848C743.337 909.982 750.012 887.022 764.486 869.128C778.671 851.407 799.368 840.112 821.945 837.771ZM889.361 910.335C880.728 879.164 856.702 860.352 823.859 863.459C796.525 867.448 779.212 883.867 772.09 910.338L838.6 910.367L889.361 910.335Z" fill="#FEFEFE"/>
<path d="M1354.72 837.78C1358.61 837.226 1366.95 837.292 1370.9 837.585C1393.06 839.263 1413.61 849.823 1427.87 866.869C1445 886.939 1450.14 909.874 1448 935.621L1305.18 935.689C1307.08 944.398 1310.86 952.587 1316.26 959.68C1325.94 972.225 1340.22 980.39 1355.94 982.365C1373.23 984.524 1388.66 979.734 1402.28 969.17C1405.69 966.427 1408.81 962.924 1411.82 959.718C1419.58 963.398 1427.23 967.296 1434.77 971.408C1434.14 972.339 1433.48 973.253 1432.79 974.145C1404.3 1011.75 1351.27 1019.97 1313.22 991.917C1294.75 978.295 1281.75 956.552 1278.95 933.733C1276.03 910.64 1282.66 887.355 1297.29 869.254C1311.43 851.474 1332.12 840.131 1354.72 837.78ZM1422.13 910.369C1414.57 880.779 1387.87 858.42 1356.51 863.436C1329.03 867.931 1312.32 883.703 1304.85 910.378L1372.02 910.358L1422.13 910.369Z" fill="#FEFEFE"/>
<path d="M1238.44 837.523C1248.83 837.435 1259.37 837.556 1269.77 837.582C1263.4 844.819 1253.46 858.895 1247.49 866.841L1205.45 922.662C1211.77 931.78 1220.5 942.689 1227.29 951.682L1269.3 1007.61C1265.54 1008.25 1242.95 1007.96 1238.37 1007.95C1236.13 1004.7 1233.47 1001.14 1231.02 998.015C1217.11 980.279 1204.23 960.592 1189.7 943.461C1183.74 950.438 1177.03 959.861 1171.44 967.308L1141.02 1007.94L1109.94 1007.84C1117.53 998.467 1125.72 986.964 1133.04 977.163C1146.56 958.975 1160.17 940.855 1173.87 922.804C1154.12 894.987 1130.49 865.218 1109.85 837.582L1140.93 837.518C1156.49 858.232 1173.7 882.133 1189.85 902.141L1238.44 837.523Z" fill="#FEFEFE"/>
<path d="M1011.75 835.948C1031.31 834.75 1051.53 843.07 1065.19 856.961C1074.35 866.267 1080.84 877.867 1083.97 890.544C1087.01 902.757 1086.12 926.255 1086.11 939.561L1086.01 1007.82L1060.46 1007.95L1060.5 938.21C1060.51 929.018 1061.1 907.907 1059.6 899.581C1058.32 892.355 1055.33 885.537 1050.9 879.686C1042.17 868.322 1031.68 863.796 1017.88 861.979L1016.98 861.964C1003.67 861.857 991.38 865.924 981.897 875.511C975.771 881.712 971.561 889.547 969.77 898.077C967.829 906.893 968.553 928.189 968.556 938.168L968.574 1007.84L943.249 1007.88C942.136 976.708 943.986 944.579 943.112 913.39C941.929 871.135 969.164 839.193 1011.75 835.948Z" fill="#FEFEFE"/>
<path d="M681.482 833.246L707.205 833.072L707.117 1007.81L681.447 1007.84L681.482 833.246Z" fill="#FEFEFE"/>
<path d="M981.926 1068.33C982.989 1068.46 984.576 1068.45 985.223 1069.08C991.595 1075.29 998.478 1085.71 1004.06 1092.78C1004.18 1087.6 1002.69 1071.97 1005.94 1068.87C1008.21 1068.71 1007.24 1068.43 1009.02 1069.36C1009.58 1073.74 1010.19 1099.14 1008.72 1102.46L1005.58 1102.05C1001.79 1099.68 989.836 1082.67 986.296 1077.98C986.196 1082.39 987.048 1098.78 985.294 1101.22C983.163 1102.56 984.254 1102.35 981.992 1102.21L981.085 1100.95C980.275 1093.93 980.751 1077.35 980.972 1069.6C981.29 1069.17 981.608 1068.75 981.926 1068.33Z" fill="#FEFEFE"/>
<path d="M692.589 1068.58C697.39 1068.72 698.707 1068.59 700.258 1073.96C702.004 1080 711.066 1096.55 711.346 1101.62C709.38 1102.72 710.374 1102.55 708.321 1102.41C702.885 1098.68 706.49 1094.37 698.278 1094.05L687.299 1094.16C686.405 1096.39 685.095 1100.46 683.469 1101.91C681.74 1101.93 680.753 1102.11 679.183 1101.37C680.528 1096.1 690.1 1074.41 692.589 1068.58ZM689.14 1089.5L695.943 1089.69C698.357 1089.61 699.119 1090.01 700.775 1088.87C700.111 1086.42 696.561 1077.12 694.984 1075.5L689.14 1089.5Z" fill="#FEFEFE"/>
<path d="M792.456 1068.47C795.828 1068.29 798.678 1068.24 801.982 1069.17C805.327 1070.12 811.74 1074.15 809.522 1078.23L807.869 1078.64C802.574 1077.24 799.748 1071.52 794.346 1072.93C778.352 1077.08 782.865 1101.57 799.918 1097.4C802.661 1096.73 804.95 1094.71 806.168 1092.19C806.163 1089.76 806.571 1090.72 805.393 1089.03L803.379 1088.92C801.177 1088.9 799.199 1089.18 797.376 1088.11C797.182 1085.89 796.902 1086.85 798.077 1085.12C801.629 1083.52 807.108 1084.23 811.256 1084.35L811.409 1095.61C805.673 1101.33 797.717 1104.77 789.77 1101.58C785.359 1099.79 781.914 1096.21 780.287 1091.73C776.315 1080.94 781.97 1071.91 792.456 1068.47Z" fill="#FEFEFE"/>
<path d="M884.492 1068.64C889.259 1068.63 903.901 1067.84 907.527 1069.32C908.04 1070.95 907.997 1070.33 907.622 1072.02C904.919 1074.41 893.891 1073.49 889.749 1073.47L889.651 1082.81C894.21 1082.79 902.64 1082.08 906.043 1084.93L905.855 1085.71C902.061 1088.29 894.504 1087.71 889.767 1087.67L889.658 1097.24C894.807 1097.43 904.486 1095.82 907.881 1099.22C908.006 1101.18 908.338 1100.42 907.353 1101.74C901.807 1102.62 890.572 1102.14 884.415 1102.08C884.336 1090.93 884.163 1079.78 884.492 1068.64Z" fill="#FEFEFE"/>
<path d="M1094.96 1068.47C1101.85 1068.23 1108.83 1068.69 1112.38 1076.14C1113.12 1077.71 1112.92 1077.57 1112.33 1078.98C1106.7 1081.45 1106.77 1071.8 1096.74 1073.31C1093.54 1073.78 1090.68 1075.58 1088.89 1078.28C1082.33 1088.12 1089.75 1100.24 1103.6 1096.85C1106.91 1094.57 1107.52 1090.73 1111.74 1092.11C1112.19 1093.13 1112.58 1094.7 1111.87 1095.64C1099 1112.94 1073.39 1096.33 1083.91 1076.68C1086.46 1071.91 1089.84 1070.04 1094.96 1068.47Z" fill="#FEFEFE"/>
<path d="M1184.21 1068.66L1187.51 1068.58C1190.95 1070.17 1196.35 1080.8 1198.63 1084.76C1202.06 1079.44 1205.82 1068.11 1212.8 1068.66L1213.17 1069.53C1212.4 1072.72 1209.52 1076.73 1207.65 1079.67L1201.26 1089.96C1201.31 1093.03 1202.22 1101.92 1198.21 1102.77C1194.98 1100.11 1195.7 1093.53 1195.75 1089.78C1192.4 1084.39 1186.33 1075.17 1183.7 1069.84L1184.21 1068.66Z" fill="#FEFEFE"/>
<path d="M693.496 725C694.924 726.602 694.871 753.862 701.931 762.745C703.539 764.768 705.624 766.262 707.948 767.347C716.964 771.558 733.087 772.424 743 773.505C732.161 775.431 714.17 774.84 704.77 781.495C695.187 788.28 695.501 810.689 693.774 821.746L693.75 822C693.26 821.907 693.03 818.18 692.959 817.519C691.99 808.505 691.008 792.711 685.891 785.153C678.64 774.442 656.656 775.612 645.349 773.567L645 773.503C688.314 768.497 689.174 769.768 693.496 725Z" fill="#02DEF0"/>
</g>
</g>
<defs>
<clipPath id="clip0_0_1">
<rect width="1882" height="1860" fill="white"/>
</clipPath>
<clipPath id="clip1_0_1">
<rect width="1254" height="1254" fill="white" transform="translate(314 303)"/>
</clipPath>
</defs>
</svg>
