<?xml version="1.0" standalone="no"?>
<!DOCTYPE svg PUBLIC "-//W3C//DTD SVG 20010904//EN"
 "http://www.w3.org/TR/2001/REC-SVG-20010904/DTD/svg10.dtd">
<svg version="1.0" xmlns="http://www.w3.org/2000/svg"
 width="1024.000000pt" height="1024.000000pt" viewBox="0 0 1024.000000 1024.000000"
 preserveAspectRatio="xMidYMid meet">
<metadata>
Created by potrace 1.16, written by Peter Selinger 2001-2019
</metadata>
<g transform="translate(0.000000,1024.000000) scale(0.100000,-0.100000)"
fill="#02DEF0" stroke="none">
<path d="M9366 10168 c-24 -40 -48 -85 -51 -101 -10 -37 -16 -39 -65 -22 -98
35 -145 11 -348 -177 -305 -281 -479 -496 -768 -946 -143 -223 -160 -256 -148
-290 9 -25 4 -34 -56 -103 -203 -235 -445 -494 -464 -497 -12 -1 -30 -5 -41
-7 -20 -4 -323 -331 -359 -387 -16 -25 -18 -36 -9 -75 11 -45 10 -46 -29 -85
-22 -22 -49 -60 -59 -84 -11 -24 -22 -44 -25 -44 -3 0 -18 7 -34 15 -35 18
-46 14 -131 -41 -37 -24 -95 -53 -130 -64 -35 -11 -77 -28 -93 -39 -20 -13
-39 -17 -66 -14 -28 4 -71 -6 -162 -36 -138 -46 -165 -61 -170 -94 -3 -20 -8
-22 -55 -19 -75 5 -112 -11 -176 -77 -32 -33 -99 -88 -149 -123 -51 -34 -102
-72 -114 -83 -11 -11 -39 -29 -60 -40 -34 -17 -46 -35 -99 -140 -33 -66 -89
-164 -124 -218 -55 -85 -63 -102 -55 -124 21 -61 122 -78 209 -37 51 24 174
147 199 199 10 22 22 47 26 55 4 8 62 46 131 85 68 39 128 80 133 91 8 18 16
20 55 16 25 -2 48 -6 50 -8 2 -1 -25 -37 -60 -79 -101 -120 -129 -163 -129
-201 0 -26 -9 -43 -32 -67 -18 -18 -79 -91 -136 -162 -57 -72 -123 -151 -147
-177 -29 -30 -45 -56 -45 -72 0 -14 -4 -27 -9 -31 -6 -3 -41 -60 -78 -128
-134 -239 -253 -504 -253 -564 0 -57 78 -106 144 -89 53 13 142 118 187 222
11 24 24 44 30 44 14 0 49 62 49 87 0 12 23 53 51 90 28 37 64 91 81 120 16
28 40 59 54 68 14 9 33 33 42 54 10 20 67 92 127 159 61 68 116 136 124 153 8
16 22 29 32 29 10 0 24 3 33 6 29 11 18 -33 -23 -87 -21 -28 -83 -125 -137
-216 -54 -91 -104 -167 -110 -170 -6 -2 -21 -27 -34 -56 -25 -57 -113 -251
-165 -362 -120 -256 -154 -356 -141 -408 15 -63 96 -102 156 -77 44 18 80 64
138 176 29 54 62 111 73 125 12 15 22 40 23 55 1 16 15 49 31 74 16 25 48 81
71 125 22 44 55 95 72 113 17 18 36 49 43 70 7 20 52 95 101 165 49 71 105
157 124 191 36 67 77 98 88 69 4 -9 -2 -25 -14 -38 -19 -20 -139 -271 -155
-325 -4 -14 -16 -35 -27 -47 -11 -12 -30 -50 -43 -85 -36 -100 -108 -252 -126
-265 -9 -7 -20 -25 -24 -40 -3 -16 -22 -53 -41 -84 -42 -70 -64 -130 -64 -176
0 -26 8 -43 34 -69 29 -29 41 -34 79 -34 43 0 49 3 92 53 48 56 145 194 145
207 0 4 38 68 85 141 47 74 95 154 106 179 62 132 215 448 227 468 8 12 18 22
23 22 17 0 9 -56 -20 -130 -15 -41 -34 -100 -42 -130 -7 -30 -24 -70 -36 -89
-13 -19 -23 -42 -23 -52 0 -10 -16 -48 -35 -85 -19 -36 -35 -71 -35 -77 0 -7
-9 -18 -20 -25 -11 -6 -28 -27 -37 -46 -10 -18 -31 -52 -47 -75 -19 -27 -31
-58 -34 -91 -4 -44 -2 -52 26 -80 24 -24 39 -30 73 -30 39 0 47 5 125 83 46
45 84 85 84 89 0 11 114 183 139 209 12 13 26 39 31 59 5 19 34 98 65 175 30
77 55 148 55 158 0 10 16 27 36 39 28 16 46 43 90 130 38 76 62 111 78 118 31
11 77 69 172 215 105 162 204 355 204 399 0 19 5 47 10 61 8 21 5 39 -13 85
l-24 58 43 17 c47 18 77 49 100 104 10 23 18 31 30 27 18 -7 62 14 87 42 16
17 23 19 42 10 36 -16 90 -1 119 33 23 27 46 85 46 117 0 22 261 282 284 282
37 1 60 21 250 219 137 143 186 200 186 218 0 13 5 33 10 43 9 17 13 18 45 4
49 -20 82 -18 129 10 25 14 56 24 77 23 29 -1 59 14 145 68 219 140 509 379
604 497 42 54 45 63 31 100 -8 21 1 36 63 111 63 76 83 92 145 122 91 44 181
126 181 166 0 28 -1 28 -46 -21 -41 -44 -130 -110 -148 -110 -4 0 4 15 18 33
15 19 26 45 26 59 0 17 12 33 44 55 24 17 57 51 74 76 28 40 31 52 31 121 l-1
77 -85 -91 c-47 -49 -89 -90 -93 -90 -5 0 -14 16 -20 35 -11 34 -10 37 28 83
22 26 70 76 106 112 36 35 66 72 66 82 0 22 -6 22 -61 3 -196 -70 -462 13
-593 183 -98 128 -132 233 -124 389 5 94 12 121 65 241 3 7 -2 12 -14 12 -14
0 -27 -16 -44 -52 -18 -41 -84 -156 -105 -187 -2 -2 -10 -1 -19 2 -13 6 -12
14 10 64 14 32 43 84 66 116 39 56 39 57 15 57 -20 0 -33 -14 -70 -72z m54
-179 c0 -35 -2 -40 -14 -30 -11 10 -12 19 -4 42 14 39 18 37 18 -12z m-126 -2
c31 -14 67 -37 81 -51 23 -23 25 -33 25 -110 0 -82 -1 -87 -32 -123 -31 -36
-251 -276 -498 -543 -64 -69 -176 -191 -249 -272 -97 -107 -144 -151 -173
-163 -23 -9 -109 -21 -208 -29 -123 -10 -177 -18 -195 -30 -29 -19 -33 -4 -6
23 22 22 51 27 232 41 75 6 150 15 166 20 18 7 99 86 214 212 705 768 709 773
720 812 6 22 8 59 4 83 -5 36 -13 49 -47 73 -44 32 -136 70 -171 70 -18 0 -19
2 -7 11 22 14 81 5 144 -24z m-42 -30 c89 -40 108 -64 108 -137 0 -70 41 -18
-350 -444 -151 -165 -335 -365 -408 -445 -73 -79 -142 -151 -153 -159 -13 -9
-66 -18 -137 -23 -64 -6 -147 -13 -184 -17 -38 -5 -68 -6 -68 -3 0 11 238 375
323 495 174 244 321 408 582 649 l130 119 50 -5 c27 -3 76 -16 107 -30z m206
-212 c5 -16 13 -37 16 -46 5 -12 -1 -15 -29 -16 -30 -1 -35 2 -29 15 4 10 9
34 12 55 5 42 13 39 30 -8z m-24 -102 c16 21 26 22 26 3 0 -19 25 -27 39 -13
8 8 11 7 11 -3 0 -8 23 -39 50 -68 28 -29 50 -59 50 -67 0 -8 7 -15 15 -15 8
0 15 -4 15 -10 0 -5 -4 -10 -10 -10 -13 0 -13 -33 0 -46 8 -8 6 -15 -5 -24 -8
-7 -15 -23 -15 -35 0 -13 -7 -25 -15 -29 -8 -3 -15 -12 -15 -21 0 -8 -7 -15
-15 -15 -9 0 -15 -9 -15 -24 0 -19 -4 -22 -25 -18 -18 3 -25 0 -25 -12 0 -19
-11 -21 -29 -3 -10 10 -15 8 -27 -8 -13 -18 -15 -18 -31 -2 -16 15 -18 15 -35
0 -16 -14 -18 -14 -18 -1 0 21 -29 31 -46 17 -11 -9 -14 -7 -14 9 0 26 -23 44
-46 35 -17 -6 -17 -5 -5 10 11 14 11 20 1 32 -7 8 -19 15 -27 15 -12 0 -13 3
-4 14 14 17 -1 56 -21 56 -7 0 -3 6 7 14 10 7 16 20 13 28 -3 8 3 25 13 39
l20 24 -8 -30 c-21 -83 12 -170 80 -210 115 -67 262 5 275 133 8 91 -30 156
-116 194 -47 21 -108 18 -149 -8 -32 -20 -39 -17 -18 6 10 11 26 20 36 20 10
0 23 9 29 21 11 20 12 20 26 2 13 -17 15 -17 28 0z m89 -76 c97 -74 82 -233
-29 -287 -53 -26 -99 -25 -154 3 -64 31 -92 84 -87 160 4 64 23 98 78 135 48
34 141 28 192 -11z m158 -122 c0 -6 -10 -12 -22 -13 -19 -3 -20 -2 -8 12 15
16 31 17 30 1z m145 -63 c47 -18 69 -32 66 -41 -2 -7 1 -17 9 -21 10 -7 10
-12 0 -23 -8 -10 -9 -17 -1 -22 15 -9 12 -25 -6 -25 -10 0 -14 -7 -12 -22 2
-17 -2 -23 -17 -23 -11 0 -21 -8 -23 -18 -3 -14 -10 -17 -27 -13 -16 4 -25 1
-29 -10 -5 -13 -9 -14 -21 -4 -8 7 -22 10 -30 6 -9 -3 -15 0 -15 10 0 10 -8
14 -22 12 -17 -2 -24 3 -26 20 -2 12 -10 22 -18 22 -11 0 -13 6 -9 20 5 15 1
22 -16 28 l-23 9 22 5 c22 6 31 28 12 28 -5 0 -10 5 -10 10 0 6 7 10 16 10 11
0 14 6 9 20 -5 14 -2 20 9 20 9 0 16 7 16 15 0 9 6 12 15 9 8 -4 17 1 21 9 4
12 10 13 22 7 10 -6 49 -22 88 -38z m-662 23 c-3 -8 0 -17 8 -20 10 -4 13 -16
10 -36 -4 -25 0 -31 17 -36 13 -3 20 -11 17 -18 -8 -21 19 -49 39 -42 12 5 16
3 12 -6 -8 -22 8 -39 37 -39 14 0 23 -4 21 -8 -7 -11 40 -21 59 -14 26 10 18
-4 -25 -44 -49 -44 -59 -49 -59 -28 0 24 -100 120 -152 145 -44 21 -48 26 -48
59 0 27 8 44 32 69 36 37 40 39 32 18z m919 -120 c-65 -70 -83 -84 -109 -85
-25 0 -46 -16 -123 -95 l-94 -95 -36 32 c-20 17 -40 38 -45 45 -7 12 -28 14
-123 8 -85 -6 -114 -5 -109 4 5 7 47 11 121 11 65 0 116 4 120 10 3 6 -1 10
-9 10 -9 0 -16 5 -16 10 0 13 37 13 42 0 4 -13 118 -20 118 -8 0 4 7 8 15 8
26 0 88 56 82 73 -2 7 3 17 12 23 11 9 15 28 14 68 l-1 57 41 -6 c23 -3 65 -1
92 4 91 16 91 16 8 -74z m-1017 -22 c-5 -13 -9 -13 -23 -2 -14 12 -15 11 -9
-6 5 -16 -6 -32 -44 -70 -28 -27 -50 -56 -50 -64 0 -7 -18 -33 -40 -57 -29
-31 -40 -52 -40 -75 0 -26 -23 -56 -135 -182 -106 -118 -135 -157 -135 -179 0
-19 -13 -43 -40 -72 -34 -36 -44 -42 -70 -38 -39 6 -35 9 -299 -278 -310 -338
-361 -396 -361 -411 -1 -8 -14 -30 -30 -49 -17 -19 -30 -46 -30 -61 0 -14 -8
-33 -18 -42 -16 -15 -20 -14 -47 7 l-29 23 85 94 c47 52 261 286 476 520 601
658 571 622 588 702 8 39 249 300 253 274 2 -10 1 -25 -2 -34z m544 -38 c0
-16 6 -25 15 -25 8 0 15 -4 15 -9 0 -5 3 -16 6 -24 12 -32 -24 -47 -115 -47
l-87 0 -93 -101 c-90 -97 -93 -101 -88 -139 4 -34 2 -39 -17 -42 -16 -2 -21
-10 -21 -33 0 -41 25 -43 72 -8 51 38 53 41 53 96 0 44 4 53 51 103 l52 54 73
0 c68 0 74 -2 74 -20 0 -28 27 -36 49 -16 16 15 19 14 44 -12 l27 -28 -51 -57
c-28 -31 -56 -57 -62 -57 -6 0 -25 14 -43 31 -18 18 -37 28 -44 24 -14 -8 16
-45 36 -45 7 0 17 -8 23 -17 7 -14 -2 -30 -45 -79 -73 -83 -97 -98 -142 -89
l-36 7 48 41 c27 22 59 41 73 42 22 1 42 19 43 37 0 12 -39 30 -50 23 -13 -8
-13 -35 0 -35 6 0 10 5 10 10 0 6 5 10 10 10 6 0 10 -7 10 -16 0 -10 -7 -14
-24 -12 -16 2 -39 -12 -80 -50 -53 -48 -76 -62 -76 -45 0 3 25 32 55 64 53 55
55 60 55 111 0 46 4 58 28 81 31 30 64 39 42 12 -8 -10 -9 -15 -2 -15 6 0 15
7 19 15 7 12 17 8 52 -25 47 -44 65 -49 80 -22 11 21 -11 62 -33 62 -7 0 -23
11 -36 25 -18 20 -33 25 -70 25 -42 0 -50 -4 -93 -48 -45 -46 -47 -51 -41 -89
6 -37 3 -44 -31 -82 -56 -62 -111 -102 -129 -95 -13 5 -16 22 -16 84 0 96 6
113 65 181 25 30 72 84 103 121 31 37 63 67 70 67 7 1 15 8 18 16 5 13 9 13
21 3 13 -10 18 -9 32 8 9 11 24 18 33 16 9 -2 23 6 30 17 18 29 38 26 38 -4z
m-460 -1 c41 -28 101 -87 116 -116 22 -41 17 -59 -30 -111 l-44 -49 -31 45
c-35 51 -101 111 -142 129 l-27 12 45 53 c49 57 72 64 113 37z m1055 -73 c-25
-51 -96 -131 -115 -131 -5 0 -10 10 -10 22 0 15 26 49 72 95 40 40 74 71 76
69 2 -2 -8 -27 -23 -55z m-225 8 c0 -10 -140 -157 -395 -416 -141 -143 -119
-137 -330 -99 -151 28 -159 26 -222 -49 l-38 -46 0 -272 c0 -218 -3 -280 -15
-311 -23 -61 -40 -57 -23 6 12 42 14 107 10 318 l-5 264 66 68 c76 79 77 80
240 48 191 -37 149 -60 441 240 140 143 258 260 263 260 4 0 8 -5 8 -11z m47
-90 c40 -114 38 -118 -93 -278 -108 -131 -118 -141 -133 -127 -33 30 -59 18
-144 -61 -165 -155 -285 -251 -462 -370 -50 -33 -96 -67 -103 -75 -6 -8 -18
-48 -26 -88 -11 -58 -20 -79 -41 -98 -15 -12 -29 -22 -30 -20 -2 2 1 23 5 48
5 25 9 104 10 177 l0 132 73 42 c90 52 182 116 272 189 39 31 85 62 103 70 29
11 438 421 502 503 12 15 27 26 34 24 6 -2 21 -32 33 -68z m-972 13 c53 -40
127 -130 119 -144 -3 -5 -23 16 -45 46 -23 32 -64 71 -100 95 -37 25 -54 41
-43 41 11 0 41 -17 69 -38z m36 -90 l60 -63 -28 -34 c-15 -18 -31 -34 -35 -34
-3 -1 -16 14 -27 33 -25 40 -92 102 -127 118 l-25 11 32 33 c32 33 32 33 62
16 16 -9 56 -45 88 -80z m616 46 c20 -21 34 -41 30 -45 -4 -3 -24 10 -45 30
l-38 37 -105 0 -106 0 -52 -54 c-42 -45 -51 -62 -52 -93 -1 -21 -3 -30 -6 -20
-5 19 -38 23 -48 7 -10 -17 16 -41 36 -35 25 8 25 -16 1 -38 -24 -22 -38 -10
-47 40 -7 43 -6 43 73 130 l80 88 121 -5 121 -5 37 -37z m-67 -3 c0 -8 -7 -15
-15 -15 -8 0 -15 7 -15 15 0 8 7 15 15 15 8 0 15 -7 15 -15z m-68 -42 c10 -9
18 -22 18 -29 0 -7 8 -10 20 -7 22 6 39 -22 23 -38 -7 -7 -25 4 -54 30 -58 55
-95 56 -138 4 -22 -26 -29 -43 -25 -60 4 -13 3 -35 0 -49 -14 -54 -156 -178
-156 -137 0 5 29 35 65 68 63 59 65 62 65 110 0 43 5 55 36 88 31 32 41 37 81
37 29 0 53 -6 65 -17z m-809 -23 c-9 -16 -80 -99 -158 -183 -77 -84 -302 -331
-500 -548 -445 -487 -472 -515 -481 -507 -4 4 29 47 72 95 227 252 701 771
784 858 52 55 139 148 194 208 54 59 100 107 103 107 2 0 -4 -13 -14 -30z
m205 1 c46 -34 106 -116 97 -132 -4 -5 -19 10 -34 34 -33 50 -98 107 -123 107
-10 0 -18 5 -18 10 0 19 37 10 78 -19z m-17 -54 c15 -11 37 -32 48 -48 l22
-29 -83 -92 c-46 -51 -106 -117 -135 -147 l-52 -56 -43 43 c-24 23 -49 42 -55
42 -6 0 10 -20 35 -45 25 -25 42 -48 39 -51 -3 -3 -28 17 -55 46 l-49 51 21
27 c67 88 259 291 269 285 7 -4 24 -15 38 -26z m233 -110 c-4 -51 -11 -84 -17
-80 -9 5 -1 149 10 166 11 19 13 -4 7 -86z m136 83 c0 -5 -4 -10 -10 -10 -5 0
-10 5 -10 10 0 6 5 10 10 10 6 0 10 -4 10 -10z m-180 -94 l0 -63 -32 -7 c-18
-4 -49 -22 -68 -41 l-35 -35 -27 34 -27 33 39 38 c25 24 50 39 66 40 18 0 37
12 53 33 14 18 27 32 29 32 1 0 2 -29 2 -64z m116 18 c-5 -12 -2 -15 11 -10
17 7 17 6 1 -11 -13 -13 -21 -14 -29 -6 -13 13 -5 43 12 43 6 0 8 -7 5 -16z
m-822 -156 c-30 -32 -576 -631 -743 -815 -46 -51 -87 -93 -91 -93 -3 0 -40 19
-82 43 -41 23 -100 51 -132 62 -31 11 -56 22 -56 25 0 3 24 29 53 58 l53 52
108 7 c77 4 113 11 126 22 10 9 64 68 121 131 56 63 138 156 183 205 128 141
126 137 126 220 l0 73 58 6 c31 3 97 9 146 12 49 4 101 10 115 14 44 14 46 11
15 -22z m511 11 c11 -17 -1 -21 -15 -4 -8 9 -8 15 -2 15 6 0 14 -5 17 -11z
m20 -59 c-35 -36 -42 -70 -35 -170 5 -81 3 -88 -24 -133 -30 -50 -72 -84 -140
-112 l-39 -16 22 28 c71 91 91 136 121 266 22 97 42 134 77 148 13 5 21 13 18
19 -3 6 1 7 10 4 14 -6 12 -11 -10 -34z m344 12 l103 -18 -48 -41 c-101 -83
-340 -241 -349 -231 -2 2 -6 48 -10 104 l-7 101 56 58 c65 66 44 64 255 27z
m490 -13 c12 -23 19 -49 16 -59 -8 -27 -218 -226 -337 -321 -92 -73 -346 -249
-361 -249 -3 0 -2 15 3 33 4 17 11 49 14 69 6 32 15 42 67 73 155 95 593 455
575 473 -6 6 -25 -10 -141 -119 -97 -91 -258 -218 -384 -301 -58 -39 -111 -77
-117 -85 -7 -7 -15 -35 -19 -61 -11 -76 -16 -92 -32 -92 -8 0 -12 4 -9 8 3 5
10 40 16 78 6 38 19 77 28 88 9 10 49 39 87 64 123 79 290 209 417 327 67 62
130 114 139 114 10 1 26 -16 38 -40z m-918 -10 c-11 -19 -29 -74 -41 -124 -11
-49 -32 -114 -45 -143 -34 -74 -117 -158 -196 -197 -62 -32 -186 -71 -195 -62
-10 9 35 35 91 51 85 26 131 51 187 104 77 71 92 104 147 309 11 39 58 109 68
100 2 -3 -5 -20 -16 -38z m-811 17 c0 -10 -486 -552 -516 -576 -18 -14 -18
-14 -4 5 25 33 513 575 517 575 2 0 3 -2 3 -4z m3 -88 c-5 -28 -411 -488 -441
-500 -25 -10 -64 -9 -60 1 2 4 113 130 247 280 240 267 268 290 254 219z m593
17 c6 -15 -53 -95 -70 -95 -5 0 -20 10 -33 22 l-23 22 41 42 c35 36 45 41 61
33 11 -6 22 -17 24 -24z m110 -92 c-41 -146 -102 -219 -230 -278 -39 -19 -73
-32 -75 -30 -2 2 32 42 75 89 95 105 96 105 84 147 -9 31 -7 36 27 71 20 21
46 38 58 38 11 1 33 12 50 25 16 13 30 23 32 22 1 -1 -8 -39 -21 -84z m-248 7
c40 -29 72 -75 72 -103 0 -8 -9 -22 -19 -31 -18 -17 -21 -15 -78 42 -32 33
-65 62 -73 64 -12 4 -10 10 9 32 31 33 39 33 89 -4z m-36 -100 c50 -50 58 -63
48 -75 -17 -21 -22 -19 -48 19 -19 28 -54 57 -111 92 -1 2 0 7 4 13 14 24 49
8 107 -49z m-61 -11 c14 -10 38 -36 53 -58 l28 -40 -142 -158 c-241 -267 -250
-276 -268 -261 -14 11 -14 11 -4 -7 8 -15 7 -24 -4 -36 -14 -15 -21 -11 -77
46 -34 34 -69 65 -77 67 -13 4 -13 7 -1 21 19 24 32 21 82 -14 l44 -30 -31 29
c-18 17 -40 34 -50 40 -15 8 4 34 152 192 93 101 182 198 197 216 31 37 36 36
98 -7z m509 -80 c0 -26 -57 -82 -110 -109 -21 -11 -87 -34 -147 -51 -230 -66
-291 -113 -375 -288 -28 -58 -66 -126 -83 -151 -30 -40 -153 -150 -169 -150
-17 0 -3 28 20 41 59 31 144 141 206 266 68 137 118 197 191 231 27 13 114 45
195 73 156 53 207 80 243 129 27 36 29 36 29 9z m-1 -169 c-1 -38 -4 -70 -6
-70 -2 0 -19 15 -37 34 l-34 33 36 37 c20 20 38 36 40 36 2 0 2 -31 1 -70z
m-99 20 c-53 -45 -132 -83 -270 -133 -182 -65 -183 -65 -135 -22 51 46 138 87
245 115 47 12 105 32 130 45 62 31 71 30 30 -5z m44 -65 c14 -13 26 -31 26
-40 0 -23 -15 -18 -28 10 -7 14 -19 28 -27 31 -16 7 -21 24 -6 24 4 0 20 -11
35 -25z m-114 -50 c-21 -21 -44 -35 -58 -35 -14 0 -41 -10 -60 -22 l-36 -22
16 23 c15 21 157 100 167 93 3 -1 -11 -18 -29 -37z m-434 -26 c-20 -24 -36
-46 -36 -50 0 -11 -40 -32 -47 -25 -3 3 21 32 52 66 65 67 87 74 31 9z m525
12 c-5 -9 -23 -29 -40 -45 -26 -25 -33 -27 -46 -16 -14 12 -11 18 26 56 32 33
46 41 56 33 8 -7 10 -17 4 -28z m49 -56 c-10 -12 -17 -12 -34 -3 -21 11 -20
12 9 24 32 13 45 3 25 -21z m-331 -1 c-29 -31 -81 -59 -129 -69 -19 -4 -54
-18 -78 -32 l-43 -25 15 29 c21 41 29 46 141 86 121 43 125 44 94 11z m187
-40 c26 -39 12 -34 -26 9 -27 31 -30 37 -12 28 12 -6 29 -23 38 -37z m-22 -15
c23 -28 31 -51 16 -50 -14 0 -97 90 -87 94 18 6 41 -8 71 -44z m-730 -54 c25
-26 46 -52 46 -58 0 -7 -9 -23 -20 -37 -19 -23 -21 -24 -31 -7 -21 35 -71 87
-105 108 l-35 21 22 24 c20 21 24 22 49 9 15 -8 49 -35 74 -60z m687 36 c22
-21 39 -43 39 -48 0 -5 -66 -77 -146 -161 l-147 -153 -18 27 c-9 15 -30 37
-45 49 l-28 22 145 151 c79 82 148 150 153 151 4 1 26 -16 47 -38z m-241 -108
c-68 -71 -132 -135 -141 -143 -23 -20 -49 -74 -49 -101 0 -15 -38 -60 -112
-136 -110 -111 -113 -114 -119 -86 -4 23 2 36 33 70 21 24 38 52 38 64 0 11
22 45 49 75 26 30 70 96 97 146 62 114 112 161 203 188 37 11 75 26 86 34 56
43 26 3 -85 -111z m-255 71 c-8 -21 -19 -58 -25 -82 -18 -71 -134 -182 -190
-182 -15 0 -36 -10 -50 -25 -29 -31 -37 -31 -67 -3 -21 20 -22 23 -6 40 9 10
26 18 39 18 12 0 35 14 51 30 15 17 35 30 44 30 9 0 61 49 115 110 54 60 99
108 101 106 2 -1 -4 -20 -12 -42z m49 4 c-9 -18 -19 -35 -22 -38 -8 -9 10 45
20 58 18 22 19 13 2 -20z m-799 -38 c105 -51 225 -133 336 -231 70 -62 149
-157 149 -179 0 -12 -35 -56 -126 -159 l-39 -43 -110 108 c-61 60 -152 138
-203 174 -104 74 -259 156 -314 167 l-37 8 32 39 33 39 118 -57 c66 -31 125
-56 132 -56 8 0 21 12 31 26 17 26 17 27 -12 50 -38 30 -166 94 -188 94 -24 0
-21 10 15 47 39 40 47 39 183 -27z m483 -5 c38 -34 80 -95 65 -95 -4 1 -20 19
-36 41 -15 22 -47 52 -72 68 -24 15 -42 31 -38 34 8 9 39 -9 81 -48z m-28 -32
c58 -52 65 -68 40 -93 l-21 -21 -45 50 c-25 28 -52 51 -60 51 -18 0 -18 9 3
32 23 26 38 23 83 -19z m-526 -67 c69 -39 75 -46 52 -65 -10 -9 -40 2 -132 46
-65 31 -113 58 -106 61 7 2 63 -22 124 -53 62 -31 108 -52 103 -46 -6 5 -56
34 -113 64 -56 29 -99 56 -96 60 9 9 91 -24 168 -67z m483 -1 c40 -43 53 -65
36 -65 -5 0 -18 16 -31 35 -12 20 -34 41 -47 47 -26 12 -34 28 -13 28 6 0 31
-20 55 -45z m-24 -23 c21 -19 21 -31 -2 -61 l-18 -23 -34 30 -34 30 24 26 c24
26 32 25 64 -2z m-605 -93 c104 -47 278 -168 381 -265 151 -142 239 -290 198
-331 -21 -21 -40 -7 -34 27 8 38 -29 113 -96 190 -148 174 -473 391 -563 377
-31 -5 -34 -4 -34 20 0 24 2 25 41 19 22 -4 70 -20 107 -37z m913 -27 c-39
-49 -60 -67 -69 -57 -6 6 82 95 95 95 2 0 -9 -17 -26 -38z m244 3 c19 -20 35
-42 35 -49 0 -26 -14 -25 -31 3 -10 17 -30 37 -44 47 -14 9 -25 20 -25 25 0
20 31 7 65 -26z m-1245 -4 c0 -5 -9 -11 -20 -14 -22 -6 -28 8 -7 16 19 8 27 8
27 -2z m1216 -25 c33 -33 45 -66 24 -66 -5 0 -10 4 -10 8 0 5 -16 27 -36 50
-43 50 -26 56 22 8z m-1176 -4 c0 -38 -136 -212 -166 -212 -8 0 -14 3 -14 6 0
3 28 40 62 83 34 42 70 91 81 109 21 36 37 42 37 14z m837 -4 c11 -13 28 -37
36 -54 16 -31 16 -32 -18 -70 -29 -34 -34 -37 -40 -21 -8 20 19 57 42 57 7 0
13 3 13 6 0 12 -24 51 -48 77 -14 15 -21 27 -16 27 6 0 20 -10 31 -22z m-12
-87 l-26 -26 -30 35 c-35 41 -35 46 -6 71 22 19 22 19 55 -18 l33 -37 -26 -25z
m-757 69 l33 -20 -37 -71 c-41 -77 -145 -194 -183 -205 -21 -5 -23 -4 -18 16
3 13 1 32 -4 42 -9 16 0 30 54 87 35 38 75 91 88 119 13 28 26 51 29 52 3 0
20 -9 38 -20z m1088 -5 c23 -36 14 -38 -14 -4 -13 16 -19 29 -13 29 6 0 18
-11 27 -25z m-1256 -44 c-45 -65 -100 -121 -100 -103 0 6 20 34 45 62 25 28
52 62 61 75 9 14 21 25 26 25 5 0 -9 -26 -32 -59z m-17 25 c-13 -22 -61 -76
-68 -76 -3 0 10 20 31 45 36 44 53 59 37 31z m1254 -11 c4 -11 -32 -54 -113
-135 -104 -106 -120 -118 -133 -105 -13 13 -2 27 90 122 138 144 144 148 156
118z m-982 -25 c10 -11 14 -20 8 -20 -5 0 -18 9 -28 20 -10 11 -14 20 -8 20 5
0 18 -9 28 -20z m-15 -19 c13 -25 13 -31 -3 -31 -14 0 -39 35 -30 44 11 11 22
6 33 -13z m51 -61 c-17 -17 -31 -35 -31 -39 0 -11 91 -95 118 -110 26 -14 28
-29 7 -37 -9 -4 -43 16 -87 52 -39 33 -76 62 -81 65 -4 3 2 22 16 42 13 19 30
49 37 67 13 31 13 31 33 11 20 -20 20 -20 -12 -51z m-71 25 c14 -17 4 -55 -14
-55 -25 0 -39 27 -26 49 13 25 23 26 40 6z m198 -56 c34 -27 62 -54 62 -59 0
-5 -16 -21 -35 -36 l-35 -26 -55 42 c-75 58 -80 69 -47 103 14 15 31 27 36 27
6 -1 39 -23 74 -51z m472 12 c13 -32 6 -71 -13 -72 -15 0 -111 -113 -115 -135
-2 -9 2 -36 8 -61 10 -33 10 -47 1 -56 -8 -8 -11 -7 -11 5 0 8 -15 46 -34 83
l-34 68 86 98 c48 55 90 99 93 99 4 0 12 -13 19 -29z m-1028 -34 c82 -56 83
-69 18 -172 -53 -83 -64 -111 -58 -141 4 -22 128 -128 203 -173 73 -45 92 -39
182 56 64 67 75 75 99 69 58 -15 234 -215 234 -267 0 -38 -19 -26 -69 41 -52
70 -64 79 -76 60 -3 -5 -1 -10 5 -10 12 0 49 -39 50 -51 0 -4 -8 -9 -17 -11
-11 -3 -58 -82 -120 -201 l-103 -197 0 -86 0 -87 21 19 c28 25 98 133 159 247
48 89 48 91 33 121 -8 17 -22 39 -30 48 -13 15 -12 22 12 62 15 25 31 49 37
52 21 13 78 -63 78 -106 0 -29 -104 -230 -186 -360 -72 -116 -143 -214 -150
-207 -2 2 3 23 11 46 12 35 13 60 4 144 l-10 101 61 116 c97 182 162 319 158
331 -2 6 -32 -47 -67 -117 -34 -71 -85 -169 -112 -217 l-50 -89 3 -126 c2
-110 0 -132 -17 -163 -11 -20 -36 -67 -55 -103 -53 -101 -62 -85 -35 57 22
114 20 142 -11 164 l-26 19 42 166 c27 111 40 181 38 214 -3 46 -1 50 27 64
20 10 49 47 89 113 33 53 57 99 54 102 -3 3 -29 -34 -58 -82 -67 -111 -77
-123 -109 -123 -33 0 -172 90 -306 196 -108 87 -155 136 -155 163 0 23 32 65
118 156 40 41 72 84 72 94 0 11 -10 27 -22 35 -19 13 -25 14 -43 2 -27 -18
-26 -57 2 -71 22 -11 21 -13 -33 -66 -78 -77 -107 -122 -102 -158 4 -27 1 -30
-28 -36 -39 -7 -86 -43 -244 -187 l-116 -105 -32 15 c-37 18 -30 22 -189 -105
-65 -53 -95 -83 -103 -107 -12 -38 -50 -79 -50 -55 0 18 27 58 70 106 20 21
63 72 96 113 101 124 298 346 435 492 99 104 148 148 211 187 46 28 86 51 90
51 4 0 35 -19 70 -43z m317 24 c16 -16 17 -22 7 -36 -11 -15 -13 -15 -29 3
-10 11 -15 26 -11 36 8 20 10 20 33 -3z m-29 -42 c9 -15 8 -24 -1 -35 -10 -13
-14 -12 -30 2 -15 13 -16 20 -6 35 15 24 24 24 37 -2z m135 -70 c41 -34 75
-66 75 -70 0 -12 -54 -88 -62 -89 -5 0 -8 9 -8 20 0 11 -7 23 -15 26 -8 4 -13
10 -10 14 3 5 -2 15 -10 22 -9 7 -25 21 -37 31 -11 10 -33 24 -48 31 l-29 12
25 32 c14 18 30 32 35 32 5 0 43 -28 84 -61z m641 25 c-4 -12 -10 -14 -17 -7
-5 5 -7 17 -3 27 4 12 10 14 17 7 5 -5 7 -17 3 -27z m-1091 6 c8 -26 -1 -40
-26 -40 -22 0 -34 22 -25 45 8 22 44 18 51 -5z m283 -2 c7 -7 12 -15 12 -19 0
-11 -37 -17 -51 -9 -10 7 -10 11 0 24 16 19 23 20 39 4z m398 -15 c-7 -7 -26
7 -26 19 0 6 6 6 15 -2 9 -7 13 -15 11 -17z m430 -76 c18 -34 11 -62 -20 -83
-28 -18 -54 -9 -106 35 l-35 29 45 49 45 49 28 -25 c16 -14 35 -39 43 -54z
m-1438 24 c-24 -27 -88 -97 -143 -157 -55 -60 -116 -128 -134 -151 -19 -24
-36 -41 -39 -38 -11 11 271 351 312 376 49 30 50 22 4 -30z m1002 34 c9 -11
15 -12 20 -5 5 8 10 6 19 -3 9 -12 7 -16 -15 -21 -19 -5 -30 -2 -40 11 -24 32
-9 48 16 18z m-28 -47 c-18 -18 -57 19 -40 39 10 12 15 11 32 -6 16 -16 18
-23 8 -33z m499 19 c-12 -12 -31 0 -31 19 0 12 3 12 20 2 11 -7 16 -16 11 -21z
m-907 -2 c6 -17 36 -21 36 -5 0 18 18 10 23 -11 5 -17 9 -19 26 -10 17 9 20 8
23 -12 2 -16 11 -23 30 -25 24 -3 26 -6 18 -21 -11 -21 -4 -31 22 -31 21 0 22
-4 6 -31 -11 -17 -10 -22 3 -32 15 -11 6 -23 -71 -100 -97 -98 -99 -98 -178
-40 -106 78 -133 105 -120 120 9 11 9 19 1 32 -9 14 -7 20 8 29 14 9 18 19 13
38 -5 21 -3 25 12 22 13 -2 20 4 22 18 2 16 8 20 21 17 14 -3 20 3 25 22 6 25
8 26 20 10 14 -19 36 -13 36 11 0 19 16 18 24 -1z m-675 -4 c15 -10 7 -31 -12
-31 -12 1 -248 -71 -256 -77 -2 -2 -2 -5 1 -8 5 -5 218 59 241 72 21 12 1 -19
-40 -63 -40 -42 -62 -56 -126 -78 -44 -15 -80 -26 -82 -24 -2 2 -7 32 -11 67
-6 52 -4 63 7 59 8 -3 21 1 31 9 13 12 207 82 228 83 3 0 11 -4 19 -9z m1041
-17 c11 -12 10 -18 -3 -32 -16 -15 -18 -15 -34 0 -13 14 -14 20 -3 32 7 9 16
16 20 16 4 0 13 -7 20 -16z m172 -31 c31 -29 36 -46 13 -37 -44 17 -160 -81
-188 -159 l-12 -36 -34 28 -33 28 21 49 c38 84 117 153 180 154 14 0 38 -12
53 -27z m-216 -17 c9 -23 -14 -56 -34 -50 -12 4 -13 3 -4 -3 10 -8 9 -18 -6
-51 -19 -42 -34 -44 -45 -4 -4 17 4 37 30 73 36 51 50 59 59 35z m488 -73 c26
-4 33 -9 24 -14 -21 -14 -64 -10 -78 5 -6 8 -18 12 -26 9 -8 -3 -14 1 -14 8 0
8 -3 25 -7 39 -6 24 -5 24 29 -8 21 -20 49 -35 72 -39z m-236 15 c18 -18 14
-30 -8 -23 -44 14 -144 -77 -156 -142 -7 -36 -27 -40 -32 -5 -4 28 29 90 70
129 50 48 102 65 126 41z m-1620 -35 c-2 -12 -18 -20 -48 -26 -52 -10 -105
-47 -116 -79 l-7 -23 -9 24 c-14 38 46 95 117 112 52 12 67 10 63 -8z m64 -23
c5 -33 -3 -38 -22 -15 -9 11 -10 15 -1 15 8 0 10 8 6 21 -5 13 -3 19 3 15 5
-3 12 -19 14 -36z m1562 5 c4 -11 -1 -15 -17 -15 -50 0 -113 -78 -105 -130 4
-23 1 -30 -13 -30 -45 0 -25 83 35 145 44 47 88 60 100 30z m-1400 -27 c-8
-13 -61 -86 -76 -102 -4 -6 -8 11 -8 36 0 45 1 47 43 61 23 9 43 16 45 16 2 1
0 -5 -4 -11z m-329 -30 c-24 -28 -26 -38 -21 -82 7 -69 7 -65 0 -123 l-7 -53
-78 -45 c-56 -32 -77 -49 -73 -60 4 -8 2 -15 -4 -15 -6 0 -17 -2 -25 -6 -10
-4 -16 6 -21 37 -7 44 -52 99 -80 99 -9 0 -16 5 -16 10 0 6 15 8 39 4 36 -6
47 -1 108 39 82 55 94 68 117 129 10 26 31 59 47 73 41 34 46 32 14 -7z m153
-14 c63 -71 -15 -182 -99 -138 -89 46 -46 187 51 168 14 -3 35 -16 48 -30z
m1572 26 c0 -5 -8 -10 -18 -10 -26 0 -60 -40 -68 -79 -5 -22 -9 -28 -15 -20
-10 17 16 79 42 102 23 19 59 23 59 7z m-1492 -85 c-2 -37 -7 -64 -13 -63 -5
2 -9 19 -7 39 2 19 -2 47 -7 62 -9 24 -8 27 10 27 18 0 20 -5 17 -65z m1482
51 c0 -7 -7 -19 -15 -26 -9 -7 -13 -15 -10 -18 6 -7 -14 -32 -26 -32 -17 0 -9
44 13 67 24 26 38 29 38 9z m-944 -17 c31 -35 223 -182 316 -243 115 -75 115
-74 58 -306 -23 -96 -46 -179 -51 -184 -15 -16 -12 0 33 181 55 226 55 227
-68 308 -108 71 -202 143 -266 202 -53 48 -94 56 -138 26 -33 -22 -138 -112
-222 -190 -67 -63 -103 -86 -57 -37 37 39 248 227 278 246 37 25 93 23 117 -3z
m-867 -23 c18 -32 5 -50 -85 -115 -77 -55 -96 -59 -137 -28 -17 12 -13 17 50
59 37 25 86 60 108 77 22 17 43 31 46 31 3 0 11 -11 18 -24z m801 -15 c0 -4
-10 -21 -22 -37 -19 -24 -23 -42 -25 -109 -3 -106 -2 -102 -13 -85 -24 37 1
210 34 232 15 10 26 10 26 -1z m35 0 c10 -17 -17 -61 -38 -61 -19 0 -19 1 -4
18 10 10 17 26 17 35 0 18 15 23 25 8z m-105 -57 c-7 -16 -11 -67 -10 -114 1
-47 2 -91 1 -99 -2 -29 -12 -2 -21 56 -11 64 0 154 21 180 17 20 21 10 9 -23z
m100 -63 c-29 -39 -54 -71 -56 -71 -2 0 -4 25 -4 55 0 49 2 55 20 55 17 0 19
-5 15 -27 l-5 -28 11 25 c6 14 18 40 26 59 13 31 16 33 30 18 14 -14 11 -22
-37 -86z m-145 -38 c0 -49 3 -101 7 -118 6 -24 3 -36 -18 -60 -13 -16 -22 -22
-18 -12 5 13 1 20 -15 24 -22 6 -28 19 -10 25 16 5 0 58 -18 58 -12 0 -11 3 2
17 16 16 16 17 -1 30 -10 7 -21 13 -26 13 -4 0 -5 7 -2 15 4 8 10 15 15 15 4
0 6 -7 3 -15 -5 -11 -2 -13 11 -9 11 5 15 14 11 28 -4 15 3 28 27 48 17 15 32
28 32 28 0 0 0 -39 0 -87z m256 68 l23 -18 -124 -170 -124 -170 -28 16 c-15 9
-27 19 -25 24 5 17 241 337 247 337 4 0 18 -8 31 -19z m-653 -8 c-9 -48 -128
-82 -173 -49 -24 17 -13 52 13 41 9 -4 43 -9 76 -10 50 -2 59 1 63 16 7 24 26
25 21 2z m-28 -3 c0 -5 -5 -10 -11 -10 -5 0 -7 5 -4 10 3 6 8 10 11 10 2 0 4
-4 4 -10z m798 -90 c-19 -49 -85 -179 -91 -180 -14 0 -97 60 -97 71 0 6 26 48
57 94 l58 83 38 -30 c21 -17 37 -34 35 -38z m-1318 36 c0 -8 -16 -23 -35 -35
-19 -11 -35 -25 -35 -31 0 -5 -4 -10 -10 -10 -19 0 -10 22 24 56 36 36 56 43
56 20z m820 -50 c0 -10 7 -12 22 -8 14 3 19 2 14 -6 -4 -7 -14 -12 -22 -12
-17 0 -17 -10 0 -33 8 -11 21 -15 32 -12 16 5 15 3 -3 -10 -19 -14 -20 -20
-11 -41 6 -13 17 -24 25 -24 21 0 15 -27 -9 -44 -20 -14 -23 -14 -38 12 -29
49 -30 61 -8 82 19 17 19 20 5 20 -10 0 -23 -11 -29 -25 -9 -21 -8 -32 5 -61
9 -19 17 -39 17 -45 0 -13 -89 -119 -100 -119 -4 0 -19 9 -34 21 l-27 21 23
37 c60 98 77 141 67 168 -8 23 -6 31 23 60 35 36 48 41 48 19z m-747 -28 c24
-28 21 -55 -8 -84 -32 -32 -71 -29 -98 8 -52 70 49 142 106 76z m256 28 c-14
-14 -131 -77 -135 -73 -5 5 115 76 130 77 5 0 7 -2 5 -4z m1071 -38 c0 -5 -39
-87 -87 -183 -56 -111 -94 -175 -103 -175 -8 1 -23 7 -33 14 -16 12 -10 27 79
199 l95 187 25 -16 c13 -9 24 -20 24 -26z m-717 -9 c24 -20 37 -39 37 -55 0
-34 -105 -199 -127 -201 -10 0 -31 -3 -48 -7 -26 -5 -37 0 -83 41 -41 37 -52
52 -46 67 6 17 210 186 224 186 3 0 22 -14 43 -31z m-765 -45 c-3 -22 0 -34 8
-34 6 0 17 -7 24 -15 7 -8 30 -20 51 -26 52 -16 58 -40 23 -87 -79 -103 -175
-172 -238 -172 -46 0 -75 13 -57 24 18 12 191 245 191 258 0 7 -11 -4 -25 -25
-30 -43 -42 -46 -50 -14 -9 33 41 138 61 130 11 -4 15 -16 12 -39z m1540 23
c8 -9 5 -21 -10 -45 -11 -18 -24 -32 -28 -32 -5 0 -16 -3 -25 -6 -14 -6 -12 3
9 45 27 53 36 60 54 38z m32 -47 c0 -19 -36 -47 -47 -36 -6 6 29 55 40 56 4 0
7 -9 7 -20z m346 -22 c8 -16 13 -32 11 -34 -5 -5 -47 58 -47 70 0 14 21 -6 36
-36z m-722 1 c-16 -17 -14 -20 35 -50 48 -30 64 -49 40 -49 -12 0 -95 56 -104
71 -9 14 23 61 36 53 6 -4 4 -13 -7 -25z m695 -13 c22 -34 27 -56 14 -56 -11
0 -43 58 -43 76 0 21 6 17 29 -20z m-1709 9 c-7 -8 -17 -15 -23 -15 -6 0 -2 7
9 15 25 19 30 19 14 0z m1060 -8 c0 -8 -3 -17 -7 -20 -9 -9 -34 13 -27 24 8
14 34 11 34 -4z m44 -22 c10 -7 15 -18 11 -24 -9 -15 -45 5 -45 24 0 19 10 18
34 0z m216 7 c0 -8 -43 -32 -56 -32 -16 0 6 25 27 31 13 4 25 7 27 8 1 1 2 -3
2 -7z m60 -12 c0 -25 -29 -38 -41 -19 -13 21 -11 27 14 32 12 2 23 5 25 6 1 0
2 -8 2 -19z m317 -23 c18 -31 20 -57 4 -57 -12 0 -49 74 -44 88 6 17 17 8 40
-31z m-672 -14 c55 -37 67 -53 41 -53 -14 0 -117 89 -104 90 4 0 33 -17 63
-37z m-1285 -10 c0 -16 -105 -154 -126 -166 -25 -14 -13 11 53 115 38 59 60
84 65 75 4 -6 8 -17 8 -24z m1590 13 c0 -7 -20 -17 -45 -23 -55 -13 -57 3 -4
28 36 18 49 16 49 -5z m-349 -12 c13 -14 39 -34 57 -46 26 -16 30 -23 21 -34
-22 -27 -136 55 -123 89 8 23 16 21 45 -9z m694 -24 c24 -54 12 -63 -14 -11
-23 45 -25 51 -13 51 5 0 17 -18 27 -40z m-833 -18 c12 -10 16 -25 13 -47 -6
-46 -78 -196 -107 -223 l-25 -23 -29 24 c-16 13 -48 34 -71 47 -24 13 -43 27
-43 32 0 9 51 -15 92 -43 27 -20 49 -26 33 -10 -6 5 -36 25 -67 44 l-58 35 76
88 c105 125 109 128 142 107 15 -9 35 -23 44 -31z m522 30 c-17 -15 -113 -44
-131 -39 -21 5 -18 6 72 34 59 19 78 20 59 5z m286 -34 c11 -18 20 -39 20 -45
0 -24 -16 -13 -33 22 -29 61 -20 76 13 23z m-637 -49 c34 -15 34 -25 -1 -43
-30 -15 -63 -3 -55 22 3 8 -6 12 -28 12 -18 0 -29 3 -26 6 3 4 2 15 -4 26 -7
14 -7 23 1 34 11 12 18 9 49 -15 21 -17 49 -35 64 -42z m-744 10 c-22 -29 -35
-37 -42 -30 -8 8 -1 21 23 46 44 46 59 34 19 -16z m1091 40 c0 -14 -61 -38
-117 -46 -37 -5 -45 -3 -41 8 3 8 25 17 49 21 24 3 55 11 69 16 33 14 40 14
40 1z m-1002 -39 c-10 -19 -104 -149 -109 -150 -3 0 -13 6 -24 13 -17 13 -16
16 15 63 56 84 79 105 101 91 11 -7 18 -14 17 -17z m1275 -5 c19 -41 21 -55 7
-55 -12 0 -51 75 -43 84 12 12 19 6 36 -29z m-292 -32 c-9 -31 -15 -39 -33
-39 -13 1 -27 -8 -34 -22 -11 -23 -12 -23 -17 -3 -7 28 -31 27 -45 -1 l-11
-23 -7 23 c-3 12 -12 22 -20 22 -11 0 -11 5 -3 24 9 19 22 25 63 31 28 3 65
12 81 19 17 7 31 12 33 11 2 -2 -1 -21 -7 -42z m-761 12 l24 -26 -27 -27 -27
-27 0 30 c0 17 -3 40 -6 53 -8 29 7 28 36 -3z m1030 -25 c11 -22 16 -40 10
-40 -10 0 -40 52 -40 70 0 19 10 10 30 -30z m-1227 24 c8 -9 -55 -93 -70 -94
-20 0 -16 12 18 58 30 41 40 48 52 36z m26 -52 c-19 -21 -39 -47 -45 -57 -9
-16 -11 -17 -17 -3 -6 18 35 79 61 90 34 13 34 7 1 -30z m100 20 c12 -23 -9
-69 -50 -108 -41 -39 -36 -16 6 26 19 19 35 39 35 45 -1 5 -18 -9 -38 -32 -21
-24 -41 -43 -45 -43 -15 0 -5 19 34 64 46 52 40 64 -8 14 -45 -48 -56 -73 -38
-88 18 -15 10 -30 -16 -30 -57 0 39 168 98 170 7 0 17 -8 22 -18z m439 -10
c12 -8 22 -16 22 -19 0 -15 -72 -113 -84 -113 -7 0 -24 8 -36 18 l-21 17 27
63 c29 67 37 70 92 34z m641 -8 c22 -37 19 -57 -13 -84 -14 -11 -16 -5 -16 54
0 36 2 66 4 66 2 0 13 -16 25 -36z m-1434 -55 c-53 -68 -53 -79 3 -112 l32
-19 59 64 c68 72 81 71 89 -10 l4 -48 -102 -117 c-56 -64 -105 -117 -109 -117
-3 0 -12 4 -19 9 -15 9 25 63 151 204 38 43 67 80 64 83 -4 5 -143 -151 -216
-243 -37 -46 -45 -46 -94 1 -18 17 -45 40 -60 51 l-28 20 72 90 c140 177 183
225 192 216 6 -6 -9 -34 -38 -72z m925 21 c21 -11 41 -23 43 -27 4 -7 -43
-161 -72 -236 l-11 -27 -67 32 c-38 18 -69 33 -71 34 -2 1 25 52 58 114 34 61
59 114 57 116 -7 7 -127 -211 -127 -231 0 -4 29 -19 64 -35 57 -26 91 -50 70
-50 -7 0 -154 72 -154 75 0 41 130 255 155 255 9 0 33 -9 55 -20z m90 -4 c0
-7 7 -19 16 -27 13 -10 20 -10 36 0 15 9 23 9 34 0 11 -9 18 -8 33 5 11 10 22
13 25 8 9 -16 -4 -41 -25 -47 -10 -3 -28 -18 -39 -33 -21 -26 -22 -26 -63 -11
-28 10 -41 20 -38 29 2 8 4 32 4 53 0 20 3 37 8 37 5 0 9 -6 9 -14z m-630 -21
c0 -8 -4 -15 -10 -15 -5 0 -7 7 -4 15 4 8 8 15 10 15 2 0 4 -7 4 -15z m-375
-18 c-14 -22 -14 -24 10 -37 25 -14 31 -25 17 -34 -10 -6 -37 15 -44 35 -4 9
0 26 8 38 21 29 28 27 9 -2z m49 -3 c17 -6 22 -29 8 -38 -12 -7 -45 22 -37 33
7 13 8 13 29 5z m295 -63 c-29 -53 -37 -46 -9 9 12 23 24 40 27 37 3 -3 -5
-24 -18 -46z m71 23 c0 -5 -47 -91 -57 -103 -1 -2 -9 2 -17 8 -13 11 -11 18
12 57 15 25 34 44 44 44 10 0 18 -3 18 -6z m270 -11 c14 -9 26 -17 28 -18 8
-6 -23 -52 -46 -71 l-27 -21 1 51 c2 87 2 88 44 59z m-216 -16 c18 -13 16 -17
-22 -83 -23 -38 -45 -75 -50 -83 -6 -11 -12 -12 -30 -2 -12 6 -22 16 -22 21 0
14 90 160 99 160 4 0 15 -6 25 -13z m744 -11 c15 -14 14 -27 -6 -138 -13 -67
-24 -124 -26 -126 -2 -2 -29 7 -59 20 l-55 23 29 90 c41 129 45 167 5 53 -55
-157 -55 -151 4 -172 50 -18 85 -45 39 -31 -85 27 -106 42 -112 82 -6 32 0 52
40 132 l46 93 40 -5 c22 -3 47 -13 55 -21z m-155 -20 c-2 -3 -14 -29 -28 -57
-20 -39 -30 -49 -43 -44 -9 4 -25 10 -35 12 -20 6 -18 27 8 89 l13 32 44 -12
c23 -7 42 -16 41 -20z m-543 -4 c0 -16 -74 -116 -77 -105 -2 6 11 34 29 62 30
47 48 62 48 43z m74 -73 c-23 -46 -44 -70 -44 -51 0 5 11 26 25 46 29 42 32
54 9 35 -23 -19 -55 -86 -48 -102 3 -8 1 -18 -5 -22 -21 -13 -22 24 -2 69 24
55 71 103 82 84 4 -6 -3 -33 -17 -59z m-44 53 c0 -5 -13 -33 -29 -63 -22 -40
-32 -49 -36 -37 -4 10 5 36 20 62 25 42 45 59 45 38z m-220 -48 c0 -3 -8 -18
-19 -32 -32 -46 -60 -108 -53 -118 12 -18 56 -44 74 -44 11 0 37 27 65 65 26
36 50 65 54 65 14 0 30 -38 19 -45 -14 -8 -230 -333 -230 -345 0 -19 -22 -10
-62 25 -23 19 -56 39 -74 45 -19 7 -34 16 -34 22 0 11 102 184 177 301 30 45
50 67 63 67 11 0 20 -3 20 -6z m343 -36 c-19 -49 -44 -91 -50 -84 -5 5 55 126
62 126 3 0 -3 -19 -12 -42z m316 -35 c-24 -28 -75 -8 -65 25 7 20 8 21 41 5
27 -13 32 -19 24 -30z m-289 7 c0 -21 -35 -80 -47 -80 -8 0 -12 3 -10 8 2 4
12 24 22 45 16 34 35 49 35 27z m-387 -17 c-5 -14 -3 -15 7 -6 13 12 60 -2 60
-19 0 -16 -28 -20 -52 -7 -13 7 -27 12 -31 11 -4 -1 -3 7 3 18 13 25 22 26 13
3z m396 -45 c-12 -24 -24 -38 -26 -31 -2 6 6 31 18 55 12 24 24 38 26 31 2 -6
-6 -31 -18 -55z m-975 12 c-27 -41 -44 -51 -44 -26 0 20 39 66 56 66 10 0 7
-11 -12 -40z m1047 20 c18 -10 17 -14 -21 -90 -22 -44 -44 -80 -48 -80 -5 0
-17 6 -27 14 -18 13 -17 17 21 90 21 42 43 76 47 76 5 0 17 -5 28 -10z m-1020
-17 c-5 -10 -17 -27 -26 -38 -16 -19 -17 -19 -3 5 26 46 29 50 34 50 3 0 0 -8
-5 -17z m1179 10 c-1 -12 -29 -47 -34 -42 -7 7 13 49 24 49 5 0 10 -3 10 -7z
m-1113 -14 c8 -8 2 -23 -22 -55 -18 -23 -35 -49 -37 -56 -4 -11 -8 -10 -21 1
-23 18 -21 30 10 79 28 42 49 52 70 31z m1018 -9 c7 -11 -32 -90 -45 -90 -20
0 -20 21 0 60 20 40 33 49 45 30z m113 -35 c-12 -24 -24 -42 -26 -40 -7 7 29
85 39 85 5 0 -1 -20 -13 -45z m46 23 c-15 -48 -43 -106 -54 -113 -21 -13 -24
5 -7 33 10 15 25 44 33 65 17 40 40 52 28 15z m-669 -1 c30 -23 9 -40 -26 -22
-16 9 -27 20 -24 25 9 14 28 12 50 -3z m129 -39 c-22 -44 -173 -265 -191 -279
-38 -32 -14 14 88 167 62 93 114 163 116 157 3 -7 -3 -27 -13 -45z m392 -3
c-36 -61 -43 -57 -10 6 14 28 28 48 31 45 3 -3 -7 -26 -21 -51z m-996 26 c0
-5 -6 -11 -13 -14 -8 -3 -22 -22 -31 -42 -18 -38 -33 -42 -22 -7 14 42 66 92
66 63z m2 -61 c-28 -41 -42 -50 -42 -26 0 19 39 66 56 66 10 0 6 -12 -14 -40z
m798 36 c0 -2 -13 -33 -30 -69 -38 -84 -38 -102 0 -122 52 -27 63 -21 103 61
36 72 39 76 55 60 15 -15 11 -28 -71 -191 -48 -96 -92 -175 -97 -175 -6 0 -27
11 -48 24 -20 13 -54 29 -74 36 -21 6 -38 15 -38 18 0 4 36 87 81 185 63 136
86 177 101 177 10 0 18 -2 18 -4z m370 0 c0 -2 -7 -20 -16 -41 -9 -23 -19 -34
-25 -28 -12 12 11 73 28 73 7 0 13 -2 13 -4z m200 -8 c0 -16 -40 -82 -46 -76
-6 6 29 88 39 88 4 0 7 -6 7 -12z m-1475 -77 c16 -8 17 -10 4 -11 -10 0 -31
16 -48 35 -17 20 -31 30 -31 22 0 -15 33 -48 65 -65 13 -7 26 -7 38 0 13 7 22
7 29 0 7 -7 0 -23 -23 -50 -19 -22 -56 -76 -82 -121 -27 -45 -54 -81 -61 -81
-18 0 -106 58 -112 74 -6 15 23 76 94 200 l45 78 31 -35 c17 -19 40 -40 51
-46z m180 69 c3 -5 -1 -10 -9 -10 -9 0 -25 -9 -36 -20 -21 -21 -27 -50 -10
-50 6 0 10 9 10 20 0 10 9 24 20 30 15 8 20 8 20 -2 0 -19 -42 -58 -62 -58
-25 0 -23 27 8 67 25 33 47 42 59 23z m593 -155 c-39 -87 -74 -153 -75 -148
-6 17 134 320 143 310 3 -2 -28 -75 -68 -162z m530 158 c-2 -5 -10 -25 -18
-45 -8 -21 -18 -38 -22 -38 -11 0 -10 4 8 50 9 22 21 40 26 40 5 0 8 -3 6 -7z
m41 -12 c12 -8 9 -21 -15 -79 -27 -66 -29 -69 -51 -59 -13 6 -22 13 -20 16 2
3 16 34 33 69 31 66 31 67 53 53z m61 -26 c0 -19 -25 -65 -36 -65 -17 0 -17 7
-3 48 7 20 15 29 25 25 8 -3 14 -6 14 -8z m-458 -54 c4 -3 4 -12 -1 -19 -6
-10 -13 -11 -34 -1 -27 12 -32 20 -20 32 7 7 43 0 55 -12z m288 1 c0 -5 -9
-35 -20 -67 -11 -32 -20 -63 -20 -70 0 -15 75 -50 88 -41 5 3 20 35 33 71 12
36 29 65 36 65 20 0 16 -15 -41 -160 -50 -124 -56 -135 -77 -131 -25 3 -119
48 -119 56 0 8 89 266 95 276 8 11 25 12 25 1z m-82 -122 c-36 -110 -58 -148
-58 -102 0 25 57 191 71 208 28 34 25 6 -13 -106z m-1123 -23 c-45 -66 -72
-97 -85 -97 -18 0 -17 5 11 53 17 28 50 78 72 110 34 49 43 56 54 44 12 -12 4
-28 -52 -110z m900 83 c-9 -14 -28 -12 -50 3 -30 23 -9 40 26 22 16 -9 27 -20
24 -25z m339 -16 c9 -3 16 -13 16 -21 0 -10 -6 -13 -16 -9 -9 3 -20 6 -25 6
-5 0 -9 7 -9 15 0 16 9 19 34 9z m-971 -40 c3 -4 -5 -29 -19 -56 -19 -37 -28
-48 -37 -39 -8 8 -5 23 11 56 21 43 31 52 45 39z m962 -7 c12 -10 14 -16 7
-21 -15 -9 -54 12 -47 25 8 12 18 11 40 -4z m-961 -60 c-35 -63 -41 -60 -8 4
14 28 27 49 30 47 2 -3 -7 -26 -22 -51z m106 18 c0 -2 -13 -23 -29 -47 -16
-24 -32 -53 -35 -65 -9 -28 -17 -29 -46 -5 l-22 18 22 45 c45 88 48 90 81 73
16 -8 29 -16 29 -19z m20 -24 c0 -6 -5 -13 -10 -16 -6 -4 -21 -27 -35 -53 -13
-26 -24 -41 -25 -33 0 18 51 111 62 111 4 0 8 -4 8 -9z m-668 -49 c-14 -21
-17 -23 -20 -9 -4 21 16 49 29 41 5 -3 1 -17 -9 -32z m718 17 c13 -9 12 -10
-2 -5 -13 4 -25 -7 -44 -39 -41 -71 -61 -58 -24 15 21 41 42 49 70 29z m-659
-22 c13 -11 13 -16 -7 -50 -19 -35 -23 -37 -37 -22 -15 14 -15 19 0 50 18 39
21 40 44 22z m414 -28 c-8 -25 8 -45 59 -71 32 -17 43 -18 59 -9 29 19 31 7 4
-36 -14 -22 -44 -77 -67 -124 -23 -46 -44 -85 -45 -87 -6 -6 -80 29 -112 54
-27 20 -32 30 -27 47 16 54 118 256 126 251 5 -3 6 -15 3 -25z m245 20 c0 -16
-40 -69 -51 -69 -6 0 0 18 12 40 22 39 39 51 39 29z m-624 -31 c-3 -7 -9 -21
-12 -30 -6 -16 -24 -26 -24 -14 0 17 22 56 31 56 6 0 8 -6 5 -12z m444 -33
c22 -10 40 -22 40 -26 0 -5 -20 1 -45 13 -33 16 -45 28 -44 42 1 15 3 17 6 5
2 -9 22 -24 43 -34z m360 1 c-21 -35 -30 -43 -30 -28 0 14 41 74 47 69 3 -3
-5 -22 -17 -41z m-743 22 c-11 -5 -25 -24 -32 -42 -11 -26 -15 -28 -20 -13 -4
9 -5 28 -1 40 4 19 13 24 38 25 28 1 30 -1 15 -10z m1154 -41 c-17 -26 -21
-28 -21 -12 0 25 32 74 38 57 2 -7 -6 -27 -17 -45z m-1341 29 c0 -21 49 -56
78 -56 29 0 62 -26 62 -49 0 -26 -95 -166 -129 -190 -37 -27 -38 -24 -6 39 40
79 33 122 -21 140 -27 9 -38 9 -50 -1 -16 -13 -14 -7 25 84 20 45 41 62 41 33z
m980 5 c0 -20 -43 -81 -56 -81 -19 0 -18 4 11 50 24 38 45 52 45 31z m-770 -9
c0 -13 -30 -52 -40 -52 -10 0 -3 28 13 48 11 13 27 16 27 4z m778 -46 c-12
-25 -26 -46 -30 -46 -5 0 3 23 18 51 14 28 27 49 30 46 3 -2 -5 -25 -18 -51z
m391 16 c-13 -34 -29 -53 -39 -47 -5 3 1 23 13 44 24 43 42 46 26 3z m-318 18
c18 -10 18 -13 -12 -71 -28 -57 -32 -60 -57 -54 -15 4 -28 8 -30 9 -3 4 70
126 75 126 2 0 13 -5 24 -10z m345 -42 c-8 -18 -19 -34 -25 -36 -7 -2 -5 11 6
32 21 45 37 48 19 4z m52 13 c23 -14 -22 -91 -53 -91 -13 0 -27 5 -31 12 -4 7
-3 8 4 4 7 -4 20 10 34 38 23 49 25 50 46 37z m-778 -8 c0 -18 -121 -223 -133
-223 -8 0 52 124 92 187 23 39 41 54 41 36z m396 -48 c-36 -61 -43 -57 -10 6
14 28 28 48 31 45 3 -3 -7 -26 -21 -51z m57 39 c7 -7 -28 -79 -42 -88 -21 -13
-20 14 2 53 22 41 28 46 40 35z m373 -43 c-16 -30 -40 -44 -31 -18 22 63 26
70 36 60 8 -8 6 -20 -5 -42z m-661 -87 c-25 -49 -43 -78 -39 -64 10 36 74 163
80 157 3 -3 -15 -45 -41 -93z m465 91 c0 -12 -50 -104 -60 -110 -17 -11 -11
16 17 66 22 42 43 63 43 44z m-396 -30 c-5 -20 0 -28 28 -45 49 -30 79 -36 90
-16 8 14 38 23 38 11 0 -18 -134 -215 -146 -215 -17 0 -79 31 -109 55 -19 15
-18 18 35 125 52 104 78 139 64 85z m423 6 c-6 -26 20 -49 64 -56 32 -5 32 -4
-8 11 -24 8 -43 20 -43 26 0 7 4 7 13 1 25 -20 74 -32 86 -20 23 23 9 -6 -35
-73 -31 -46 -54 -70 -66 -70 -25 0 -98 38 -98 51 0 9 30 67 67 127 17 27 27
29 20 3z m-1336 -22 c22 -22 21 -33 -16 -116 -20 -43 -28 -53 -49 -53 -14 0
-33 10 -45 26 -23 29 -19 46 25 122 28 47 52 54 85 21z m963 -14 c11 -8 28
-15 38 -15 10 0 18 -4 18 -10 0 -5 -2 -10 -5 -10 -14 0 -73 29 -79 39 -10 15
5 13 28 -4z m-596 -124 c-7 -11 -16 -21 -21 -21 -15 0 -19 28 -7 50 11 20 14
21 27 7 12 -12 13 -18 1 -36z m842 18 c-7 -11 -14 -19 -16 -16 -7 7 7 37 17
37 6 0 5 -9 -1 -21z m-781 -57 c-5 -15 -12 -33 -14 -40 -4 -10 -8 -10 -25 0
-24 15 -25 36 -4 66 12 18 19 20 34 12 16 -9 18 -15 9 -38z m815 31 c4 -9 2
-21 -4 -27 -8 -8 -9 -5 -4 9 6 16 5 18 -7 8 -20 -20 -31 -15 -19 7 13 24 26
26 34 3z m-786 -48 c-6 -14 -15 -25 -19 -25 -5 0 -3 11 3 25 6 14 15 25 19 25
5 0 3 -11 -3 -25z m60 8 c-8 -10 -19 -26 -24 -35 -6 -12 -14 -14 -23 -8 -21
12 12 60 41 60 19 0 20 -2 6 -17z m688 -19 c22 -27 38 -37 62 -38 18 0 32 -4
32 -7 0 -3 -13 -18 -29 -33 -27 -26 -29 -26 -34 -7 -2 10 -19 27 -37 36 -32
16 -33 16 -61 -11 -29 -27 -29 -27 -29 -5 0 32 40 101 59 101 3 0 20 -16 37
-36z m89 26 c7 -11 -11 -40 -24 -40 -3 0 -12 4 -20 9 -12 8 -12 12 -2 25 15
18 37 21 46 6z m-955 -25 c11 -28 63 -58 89 -50 9 3 26 -1 37 -9 18 -15 18
-17 -23 -98 -24 -46 -54 -96 -67 -113 l-25 -30 21 67 22 68 -23 24 c-13 14
-37 28 -54 32 -26 5 -35 2 -54 -20 -13 -15 -23 -25 -23 -22 0 12 49 134 61
155 18 27 27 27 39 -4z m455 -44 c-16 -15 -17 -14 -10 9 7 22 6 24 -9 11 -22
-18 -37 -3 -25 26 l8 23 26 -26 c25 -25 26 -28 10 -43z m-269 23 c-10 -14 -20
-23 -23 -20 -3 3 2 17 11 32 10 14 20 23 23 20 3 -3 -2 -17 -11 -32z m818 21
c-4 -8 -12 -15 -20 -15 -8 0 -11 6 -8 15 4 8 12 15 20 15 8 0 11 -6 8 -15z
m-492 -49 c16 -11 16 -15 2 -34 -16 -23 -48 -29 -59 -12 -6 9 24 59 35 59 3 0
13 -5 22 -13z m-108 -12 c9 -3 16 -16 16 -29 0 -29 72 -64 94 -46 29 24 27 -9
-4 -54 -31 -45 -47 -58 -36 -30 6 18 -24 49 -66 66 -29 12 -32 11 -64 -24 -19
-20 -34 -31 -34 -24 0 15 47 116 62 134 12 15 11 15 32 7z m464 -10 c29 -20
28 -35 -3 -64 -21 -20 -30 -22 -53 -14 -34 12 -38 33 -12 67 25 31 37 33 68
11z m-291 -10 c1 -5 -1 -15 -6 -23 -8 -12 -12 -13 -25 -2 -13 11 -14 17 -5 28
13 14 31 13 36 -3z m-569 -60 c29 -20 28 -55 -3 -121 -21 -46 -28 -53 -53 -53
-33 0 -72 32 -72 61 0 19 32 92 52 117 14 17 49 15 76 -4z m420 -44 c17 -11
32 -22 32 -25 0 -2 -10 -25 -22 -50 -27 -55 -57 -67 -96 -38 -37 28 -37 43 -2
91 34 48 42 50 88 22z"/>
<path d="M9250 9805 c-26 -32 13 -81 48 -59 34 22 22 74 -18 74 -10 0 -23 -7
-30 -15z m51 -11 c11 -14 10 -18 -6 -30 -16 -12 -21 -12 -34 0 -12 12 -12 18
-1 30 16 20 24 20 41 0z"/>
<path d="M9270 9780 c0 -5 5 -10 10 -10 6 0 10 5 10 10 0 6 -4 10 -10 10 -5 0
-10 -4 -10 -10z"/>
<path d="M8366 8854 c-29 -29 -12 -64 31 -64 32 0 46 31 27 58 -18 26 -37 28
-58 6z m52 -27 c4 -20 -25 -34 -40 -19 -15 15 -1 44 19 40 10 -2 19 -11 21
-21z"/>
<path d="M8380 8830 c0 -5 5 -10 10 -10 6 0 10 5 10 10 0 6 -4 10 -10 10 -5 0
-10 -4 -10 -10z"/>
<path d="M9361 9543 c-23 -12 -40 -31 -53 -61 -17 -39 -18 -48 -6 -85 42 -132
236 -105 238 33 0 47 -33 98 -75 116 -44 18 -62 17 -104 -3z m129 -30 c65 -58
43 -159 -39 -184 -119 -35 -194 115 -97 193 34 28 100 23 136 -9z"/>
<path d="M9371 9493 c-54 -45 -24 -133 45 -133 44 0 74 29 74 73 0 64 -71 99
-119 60z m89 -13 c56 -56 -23 -146 -82 -93 -26 23 -24 78 4 97 30 21 54 20 78
-4z"/>
<path d="M9391 9473 c-27 -18 -27 -55 -1 -78 17 -15 24 -16 45 -7 32 15 41 37
27 66 -13 29 -45 38 -71 19z m60 -25 c10 -18 8 -24 -10 -39 -25 -21 -48 -16
-56 12 -14 44 44 67 66 27z"/>
<path d="M9722 9373 c-17 -6 -42 -57 -42 -83 0 -33 53 -80 89 -80 39 0 79 36
87 77 12 60 -69 112 -134 86z m92 -24 c46 -36 26 -110 -34 -124 -39 -9 -80 27
-80 71 0 66 61 95 114 53z"/>
<path d="M9738 9339 c-21 -12 -24 -59 -6 -77 7 -7 24 -12 38 -12 51 0 69 55
28 84 -26 18 -36 19 -60 5z m61 -27 c20 -38 -31 -71 -59 -37 -6 8 -9 23 -5 35
8 25 51 27 64 2z"/>
<path d="M9456 8904 c-17 -17 -12 -40 11 -48 21 -9 33 2 33 29 0 28 -24 39
-44 19z m26 -19 c0 -5 -5 -11 -11 -13 -6 -2 -11 4 -11 13 0 9 5 15 11 13 6 -2
11 -8 11 -13z"/>
<path d="M8836 8765 c-9 -9 -16 -25 -16 -35 0 -24 -25 -33 -40 -14 -19 22 -35
17 -69 -21 -36 -41 -37 -47 -13 -67 37 -33 60 -32 95 5 80 85 81 87 58 87 -12
0 -21 4 -21 9 0 15 31 42 41 36 15 -10 10 -25 -6 -19 -8 4 -15 2 -15 -4 0 -15
32 -24 44 -12 7 7 7 16 0 28 -15 23 -38 26 -58 7z m-108 -80 c-8 -19 -8 -28 2
-40 15 -18 20 -18 40 -5 13 9 13 11 0 19 -10 7 -17 6 -22 -2 -5 -8 -8 -5 -8 8
0 11 5 27 10 35 9 13 13 12 28 -6 17 -20 19 -20 29 -5 6 9 14 13 17 10 4 -4
-7 -23 -25 -43 -23 -27 -39 -36 -57 -34 -37 4 -49 30 -29 62 22 33 30 34 15 1z"/>
<path d="M9070 8571 c-13 -25 -13 -27 6 -45 35 -36 86 2 62 47 -12 23 -55 22
-68 -2z m58 -19 c3 -16 -2 -22 -17 -22 -24 0 -35 15 -27 36 9 23 40 13 44 -14z"/>
<path d="M9100 8549 c0 -5 5 -7 10 -4 6 3 10 8 10 11 0 2 -4 4 -10 4 -5 0 -10
-5 -10 -11z"/>
<path d="M6780 7005 c-17 -20 -5 -45 20 -45 11 0 23 7 26 15 6 15 -11 45 -26
45 -4 0 -13 -7 -20 -15z m33 -20 c1 -5 -6 -11 -15 -13 -11 -2 -18 3 -18 13 0
17 30 18 33 0z"/>
<path d="M7402 6851 c-8 -5 -12 -21 -10 -37 2 -24 8 -30 32 -32 43 -5 61 32
30 62 -17 18 -32 20 -52 7z m58 -29 c-1 -18 -19 -34 -36 -30 -22 4 -31 37 -13
49 13 8 49 -6 49 -19z"/>
<path d="M7412 6818 c6 -18 28 -21 28 -4 0 9 -7 16 -16 16 -9 0 -14 -5 -12
-12z"/>
<path d="M7197 6683 c-12 -12 -7 -41 8 -47 8 -3 21 2 29 10 8 8 13 21 10 29
-6 15 -35 20 -47 8z m33 -18 c0 -8 -7 -15 -15 -15 -8 0 -15 7 -15 15 0 8 7 15
15 15 8 0 15 -7 15 -15z"/>
<path d="M6889 7242 c8 -6 10 -15 6 -22 -5 -8 -3 -11 6 -8 21 7 17 32 -6 36
-15 2 -17 1 -6 -6z"/>
<path d="M7956 7154 c-30 -29 -16 -74 23 -74 49 0 68 42 33 73 -23 21 -36 21
-56 1z m52 -32 c4 -28 -24 -40 -45 -19 -14 13 -14 19 -3 32 18 22 44 15 48
-13z"/>
<path d="M7970 7114 c0 -8 5 -12 10 -9 6 3 10 10 10 16 0 5 -4 9 -10 9 -5 0
-10 -7 -10 -16z"/>
<path d="M7081 7070 c-62 -62 -47 -155 32 -194 49 -24 96 -15 136 25 81 80 25
199 -92 199 -37 0 -51 -6 -76 -30z m155 -14 c27 -27 34 -42 34 -72 -1 -121
-172 -144 -210 -29 -21 65 35 134 109 135 24 0 42 -9 67 -34z"/>
<path d="M7104 7046 c-37 -31 -38 -84 -4 -121 27 -29 40 -32 40 -9 0 8 5 12
10 9 6 -4 8 -11 5 -16 -12 -19 45 -8 69 14 38 34 38 81 1 121 -32 34 -83 35
-121 2z m112 -19 c13 -16 24 -37 24 -48 0 -21 -42 -69 -60 -69 -16 0 -12 9 17
34 24 21 26 27 18 52 -6 17 -21 33 -38 38 -23 9 -31 6 -53 -16 -26 -25 -26
-27 -10 -59 21 -42 20 -46 -4 -24 -28 25 -26 70 4 100 32 32 71 29 102 -8z
m-20 -33 c8 -33 -15 -59 -44 -50 -46 15 -34 76 14 76 17 0 25 -7 30 -26z"/>
<path d="M6072 6914 c-42 -29 -22 -104 28 -104 36 0 60 23 60 60 0 28 -30 60
-55 60 -6 0 -21 -7 -33 -16z m67 -26 c10 -29 4 -46 -21 -59 -37 -20 -76 39
-46 69 20 20 58 14 67 -10z"/>
<path d="M6035 6741 c-3 -5 -1 -12 5 -16 5 -3 10 1 10 9 0 18 -6 21 -15 7z"/>
<path d="M6060 6720 c0 -5 5 -10 10 -10 6 0 10 5 10 10 0 6 -4 10 -10 10 -5 0
-10 -4 -10 -10z"/>
<path d="M6095 6720 c-3 -5 -1 -10 4 -10 6 0 11 5 11 10 0 6 -2 10 -4 10 -3 0
-8 -4 -11 -10z"/>
<path d="M6890 6671 c-14 -27 -2 -51 26 -51 31 0 56 46 33 61 -23 14 -48 10
-59 -10z m49 -4 c8 -10 7 -17 -1 -25 -18 -18 -38 -14 -38 6 0 32 20 42 39 19z"/>
<path d="M6915 6650 c3 -5 8 -10 11 -10 2 0 4 5 4 10 0 6 -5 10 -11 10 -5 0
-7 -4 -4 -10z"/>
<path d="M6831 6592 c-20 -37 27 -70 57 -40 16 16 15 23 -4 42 -20 21 -41 20
-53 -2z m49 -15 c0 -19 -10 -27 -26 -20 -21 8 -17 33 6 33 11 0 20 -6 20 -13z"/>
<path d="M6855 6570 c3 -5 8 -10 11 -10 2 0 4 5 4 10 0 6 -5 10 -11 10 -5 0
-7 -4 -4 -10z"/>
<path d="M5652 6624 c-27 -18 -28 -45 -4 -67 35 -32 72 -14 72 35 0 17 -7 31
-19 38 -25 13 -22 13 -49 -6z m48 -19 c17 -20 5 -45 -20 -45 -23 0 -35 22 -26
45 7 19 30 19 46 0z"/>
<path d="M6274 6472 l-90 -96 -47 38 c-26 21 -50 37 -52 34 -5 -4 88 -88 98
-88 8 0 190 201 185 205 -2 2 -44 -40 -94 -93z"/>
<path d="M6545 6255 c-31 -53 -55 -98 -52 -101 2 -3 30 39 61 92 31 53 54 99
52 101 -2 3 -30 -39 -61 -92z"/>
<path d="M5730 5969 c19 -12 47 -33 63 -47 15 -14 27 -20 27 -14 0 15 -90 81
-110 82 -8 0 1 -10 20 -21z"/>
<path d="M6015 5660 c3 -5 12 -10 20 -10 7 0 35 -16 60 -36 26 -19 45 -30 43
-22 -5 17 -95 78 -115 78 -8 0 -11 -4 -8 -10z"/>
<path d="M6446 5472 c34 -16 64 -35 68 -41 4 -6 12 -11 18 -11 33 0 -65 60
-122 74 -14 4 3 -7 36 -22z"/>
<path d="M9552 10208 c-54 -89 -78 -262 -51 -378 59 -258 332 -443 594 -402
41 6 90 18 109 26 l34 14 -1 71 c-1 39 -3 71 -3 71 -1 0 -28 -12 -60 -27 -51
-24 -71 -28 -155 -28 -90 0 -99 2 -171 38 -89 43 -157 112 -197 197 -22 48
-26 68 -26 160 0 92 3 112 26 160 14 31 41 73 59 93 22 25 27 37 17 37 -21 0
-66 -55 -94 -116 -97 -211 -3 -454 214 -557 62 -29 76 -32 168 -32 74 0 113 5
148 19 27 10 50 16 52 14 2 -2 5 -24 7 -48 l3 -44 -60 -18 c-70 -22 -196 -25
-270 -7 -73 17 -174 73 -229 125 -168 161 -212 404 -111 605 30 58 28 77 -3
27z"/>
<path d="M9768 10193 c-56 -58 -83 -110 -97 -186 -40 -218 150 -423 376 -404
81 6 193 58 193 88 0 19 -2 19 -33 -5 -51 -39 -114 -58 -194 -59 -61 0 -81 4
-137 32 -221 108 -250 409 -54 551 37 27 39 30 17 30 -16 0 -41 -16 -71 -47z"/>
<path d="M10205 10216 c29 -24 42 -20 31 9 -3 8 -18 15 -33 15 l-28 0 30 -24z"/>
<path d="M9905 10186 c-49 -23 -105 -67 -105 -83 0 -5 9 -14 20 -21 19 -12 20
-14 4 -44 -19 -36 -23 -97 -11 -146 8 -29 6 -34 -12 -39 -29 -7 -26 -28 9 -74
72 -90 213 -119 323 -65 31 15 66 39 77 53 18 24 19 28 5 43 -14 15 -14 21 0
53 17 41 20 123 6 160 -16 40 -73 99 -116 118 -76 35 -189 16 -240 -41 -18
-20 -45 -17 -45 5 0 16 68 63 117 81 87 31 191 6 259 -61 24 -25 44 -40 44
-35 0 21 -83 89 -127 104 -68 23 -148 20 -208 -8z m190 -55 c187 -84 150 -354
-52 -378 -123 -14 -222 75 -223 200 0 140 148 236 275 178z m-241 -317 c37
-47 97 -74 164 -74 61 0 103 15 149 54 28 24 34 25 39 11 9 -22 -19 -50 -79
-80 -104 -51 -238 -22 -311 68 -25 32 -28 40 -16 47 22 14 22 13 54 -26z"/>
<path d="M9928 10110 c-56 -30 -82 -73 -86 -145 -5 -81 20 -134 81 -170 96
-56 221 -17 263 82 28 65 8 160 -42 204 -59 51 -150 63 -216 29z m156 -24
c104 -43 113 -199 16 -264 -29 -20 -45 -23 -93 -20 -48 4 -62 9 -91 37 -125
122 6 315 168 247z"/>
<path d="M9986 10069 c-49 -14 -96 -71 -96 -119 0 -36 28 -85 59 -103 36 -21
109 -22 139 -1 29 20 52 66 52 104 0 82 -75 140 -154 119z m90 -28 c89 -54 49
-201 -53 -201 -69 0 -113 45 -113 116 0 28 8 44 34 70 40 40 83 45 132 15z"/>
<path d="M4753 5708 c-23 -13 -81 -51 -128 -85 -47 -35 -93 -63 -103 -63 -10
0 -36 -9 -57 -20 -22 -12 -72 -35 -112 -51 -70 -30 -266 -160 -353 -236 -25
-22 -90 -64 -145 -94 -55 -30 -115 -70 -135 -90 -19 -19 -62 -86 -95 -149 -33
-62 -87 -150 -119 -194 -33 -45 -76 -120 -97 -167 -20 -48 -63 -131 -95 -185
-77 -132 -124 -234 -174 -380 -51 -150 -101 -219 -189 -263 -80 -41 -114 -72
-170 -155 -75 -110 -142 -184 -273 -302 -302 -272 -542 -458 -968 -749 -427
-292 -519 -365 -711 -555 -137 -136 -224 -238 -383 -448 -117 -155 -196 -234
-343 -345 -83 -63 -103 -83 -103 -103 l0 -26 52 38 c217 157 304 241 463 453
277 369 497 575 925 866 535 364 842 600 1117 859 57 53 105 96 108 96 8 0
-56 -85 -153 -205 -50 -60 -89 -111 -87 -113 5 -5 94 93 168 186 65 80 111
147 217 315 51 81 103 128 168 152 66 25 145 65 139 71 -3 3 -19 -2 -36 -10
-16 -9 -33 -16 -36 -16 -4 0 18 28 48 63 61 71 117 146 117 159 0 4 -14 -6
-30 -24 l-30 -33 35 100 c43 121 93 227 170 360 32 55 72 135 90 178 18 42 55
107 83 145 52 71 110 167 161 270 31 61 32 62 74 63 l42 2 -40 6 -40 6 90 57
c135 85 134 86 75 -33 -83 -165 -131 -240 -189 -296 -77 -75 -35 -65 47 11 51
47 85 100 173 273 44 87 91 169 104 183 23 22 28 23 75 14 53 -11 58 -6 9 11
l-29 10 99 73 c131 95 261 157 261 123 0 -5 -28 -31 -62 -58 -109 -84 -129
-111 -233 -313 -83 -161 -111 -206 -164 -262 -67 -72 -69 -86 -4 -39 69 50
119 127 248 379 54 107 62 116 144 184 47 39 113 97 146 129 l60 59 40 -11
c22 -6 46 -16 53 -21 7 -6 15 -8 18 -5 8 7 -34 29 -70 37 l-30 6 42 31 43 31
36 -19 c48 -25 78 -24 120 2 19 12 37 19 40 15 16 -16 -33 -100 -96 -163 -37
-37 -83 -88 -102 -113 -18 -24 -62 -76 -96 -114 -50 -55 -80 -105 -155 -255
-70 -142 -102 -196 -135 -228 -49 -46 -44 -64 8 -29 40 27 119 135 215 291 59
97 89 132 256 297 l189 188 28 -20 c14 -12 43 -23 63 -26 31 -5 41 -2 77 31
l41 37 0 -29 c0 -46 -54 -144 -118 -214 -32 -35 -73 -86 -92 -114 -18 -27 -56
-77 -83 -109 -27 -33 -71 -105 -99 -160 -28 -56 -72 -135 -98 -176 -27 -42
-60 -112 -76 -160 -15 -47 -44 -130 -66 -185 -37 -95 -139 -443 -137 -468 0
-7 18 38 39 98 32 93 39 106 44 83 17 -75 17 -80 4 -73 -7 4 -1 -5 15 -19 33
-30 34 -36 5 -36 -13 0 -30 -5 -38 -10 -12 -8 -10 -10 10 -10 32 0 145 41 185
66 58 36 168 119 228 171 33 29 87 67 121 83 95 47 216 75 216 50 0 -5 -6 -10
-13 -10 -7 0 -32 -16 -55 -36 -36 -31 -42 -41 -42 -75 0 -39 19 -89 46 -120
12 -14 4 -26 -70 -97 -46 -45 -91 -82 -99 -82 -23 0 -56 47 -63 89 -8 49 -13
65 -20 58 -13 -13 18 -115 41 -137 l24 -23 -86 -51 c-60 -36 -115 -81 -186
-153 -89 -90 -115 -110 -209 -159 -59 -31 -147 -81 -195 -111 -141 -89 -209
-114 -352 -129 -46 -4 -62 -3 -57 5 4 6 15 11 24 12 9 0 12 3 5 5 -21 9 -149
-52 -253 -120 -56 -37 -161 -96 -234 -133 -72 -36 -158 -81 -191 -101 -167
-100 -411 -300 -510 -418 -42 -50 -34 -44 54 39 133 126 239 210 376 302 100
66 299 175 321 175 5 0 -32 -42 -82 -92 -108 -110 -176 -190 -309 -358 -55
-69 -213 -240 -351 -380 -229 -233 -344 -364 -344 -393 0 -7 16 13 37 43 20
30 137 155 260 278 123 122 220 217 216 210 -4 -7 -71 -108 -148 -225 -77
-116 -182 -278 -233 -360 -186 -296 -347 -504 -566 -731 -230 -238 -466 -440
-721 -617 -126 -87 -270 -219 -373 -343 l-44 -52 29 0 c23 0 45 19 123 106 95
106 180 179 340 289 331 228 748 628 991 950 92 121 198 280 349 520 398 634
767 1081 1044 1264 120 79 109 75 261 90 141 13 210 38 358 129 63 39 157 92
209 118 81 40 107 60 203 158 92 92 127 120 210 166 81 45 119 75 205 161 58
58 122 118 143 134 113 84 81 222 -59 248 -82 16 -263 -55 -362 -141 -61 -52
-127 -102 -217 -163 -43 -29 -68 -39 -89 -37 -29 3 -31 6 -45 81 -14 76 -14
79 12 150 14 39 50 142 80 227 37 105 73 184 109 245 31 50 74 128 98 174 23
47 66 114 94 150 29 36 68 88 86 115 18 27 51 68 73 90 52 53 114 149 127 195
16 56 12 111 -10 146 -23 38 -69 60 -104 51 -38 -9 -192 -143 -309 -270 -109
-116 -157 -154 -95 -73 18 23 70 82 116 130 90 95 112 134 112 197 0 56 -24
99 -65 116 -42 17 -33 18 -82 -8z m78 -36 c26 -22 22 -43 -14 -67 -21 -14 -28
-14 -60 0 -45 19 -73 19 -32 0 35 -16 28 -20 -10 -5 -31 12 -27 21 27 61 48
34 58 35 89 11z m303 -111 c22 -25 14 -52 -24 -85 l-30 -25 -46 26 -47 26 41
39 c46 42 80 48 106 19z m-649 -61 c-10 -11 -23 -20 -29 -20 -6 1 0 10 13 20
30 26 39 26 16 0z m557 -48 c-14 -4 -62 16 -62 28 0 5 16 2 36 -7 19 -10 31
-19 26 -21z m243 -1207 c38 -37 33 -71 -20 -122 -25 -24 -49 -43 -53 -43 -4 1
-16 19 -27 42 -11 23 -26 44 -34 46 -8 3 -5 -7 9 -25 13 -19 20 -41 18 -59
l-3 -28 -19 29 c-10 16 -21 50 -22 75 -4 51 5 65 61 94 42 22 62 20 90 -9z"/>
<path d="M4870 5377 c0 -3 19 -15 43 -27 39 -20 41 -20 22 -2 -19 19 -65 39
-65 29z"/>
<path d="M4384 5305 c22 -8 48 -23 58 -32 10 -9 18 -11 18 -6 0 16 -46 43 -83
48 -30 5 -30 5 7 -10z"/>
<path d="M4364 5276 c11 -9 24 -16 30 -16 12 0 7 5 -24 19 -24 11 -24 11 -6
-3z"/>
<path d="M4330 5251 c8 -5 31 -11 50 -15 l35 -6 -35 14 c-41 17 -75 21 -50 7z"/>
<path d="M4290 5231 c0 -14 76 -41 113 -40 28 1 25 2 -18 13 -27 7 -60 18 -72
24 -13 7 -23 9 -23 3z"/>
<path d="M4078 5213 c7 -3 16 -2 19 1 4 3 -2 6 -13 5 -11 0 -14 -3 -6 -6z"/>
<path d="M4011 5186 c2 -2 31 -6 64 -9 37 -3 51 -2 35 3 -25 8 -107 13 -99 6z"/>
<path d="M4660 5153 c0 -5 14 -16 30 -25 16 -9 39 -32 50 -50 11 -18 20 -28
20 -23 0 22 -41 75 -70 90 -16 8 -30 12 -30 8z"/>
<path d="M4630 5122 c0 -5 12 -15 28 -23 42 -21 49 -22 27 -4 -30 25 -55 37
-55 27z"/>
<path d="M4635 5065 c22 -14 45 -25 50 -25 6 1 -8 12 -30 25 -22 14 -44 25
-50 25 -5 -1 8 -12 30 -25z"/>
<path d="M3780 5056 c0 -2 9 -6 20 -9 11 -3 20 -1 20 4 0 5 -9 9 -20 9 -11 0
-20 -2 -20 -4z"/>
<path d="M4582 5050 c6 -21 78 -60 108 -59 19 0 13 5 -24 19 -26 10 -57 27
-69 37 -15 14 -19 15 -15 3z"/>
<path d="M3964 4722 c-70 -66 -88 -96 -119 -202 -7 -24 -6 -24 7 -5 8 11 25
47 38 80 17 43 41 76 87 121 54 53 71 74 61 74 -2 0 -35 -30 -74 -68z"/>
<path d="M3705 4696 c-28 -30 -37 -51 -62 -151 -3 -13 -2 -17 4 -10 6 6 16 32
23 58 7 26 28 68 47 92 40 53 34 59 -12 11z"/>
<path d="M4227 4597 c-31 -28 -63 -69 -72 -91 -23 -53 -11 -57 15 -4 12 23 44
64 73 90 28 26 49 49 46 52 -3 3 -31 -18 -62 -47z"/>
<path d="M3516 4601 c-9 -16 -16 -38 -16 -48 0 -10 9 2 20 26 23 50 19 68 -4
22z"/>
<path d="M3988 4552 c-26 -20 -45 -38 -43 -40 7 -8 68 33 83 56 19 28 16 27
-40 -16z"/>
<path d="M4318 4470 c-15 -21 -53 -56 -86 -78 -55 -38 -100 -88 -89 -99 3 -2
11 5 17 17 6 12 43 42 81 66 49 32 75 57 90 85 27 53 21 57 -13 9z"/>
<path d="M3585 4373 c-26 -60 -63 -139 -82 -177 -19 -37 -32 -70 -29 -73 2 -3
25 36 50 85 54 107 119 262 113 268 -2 3 -26 -44 -52 -103z"/>
<path d="M3733 4312 c-61 -93 -146 -211 -188 -263 -113 -137 -114 -137 -81
-109 52 46 179 203 252 315 73 112 139 225 132 225 -3 0 -54 -76 -115 -168z"/>
<path d="M4000 4271 c-45 -49 -147 -150 -228 -223 -80 -73 -162 -148 -182
-167 -32 -30 -33 -31 -5 -13 90 59 398 352 474 450 53 68 29 49 -59 -47z"/>
<path d="M3350 4103 c-29 -87 -66 -187 -82 -222 -31 -71 -31 -96 1 -33 47 93
150 396 139 408 -3 2 -29 -67 -58 -153z"/>
<path d="M4987 4038 c29 -32 43 -62 43 -93 0 -15 4 -24 10 -20 6 3 7 18 4 33
-8 33 -53 102 -67 102 -6 0 -1 -10 10 -22z"/>
<path d="M4974 3946 c11 -30 22 -50 24 -45 5 14 -17 76 -32 88 -9 7 -6 -9 8
-43z"/>
<path d="M3158 3710 c-18 -11 -32 -50 -43 -115 -3 -22 -18 -58 -32 -80 -24
-37 -24 -39 -3 -20 31 28 47 62 55 122 4 29 16 64 27 78 21 27 21 29 -4 15z"/>
<path d="M4577 3584 c-3 -3 -30 -10 -59 -14 l-53 -9 57 3 c55 2 78 10 66 21
-2 3 -7 2 -11 -1z"/>
<path d="M4185 3545 c-67 -18 -131 -46 -191 -84 -67 -42 -49 -39 44 8 43 22
110 49 150 61 100 31 98 42 -3 15z"/>
<path d="M3885 3483 c-93 -12 -243 -86 -259 -128 -3 -9 19 3 48 25 55 42 133
75 205 86 23 4 41 10 41 15 0 5 -1 8 -2 8 -2 -1 -16 -4 -33 -6z"/>
<path d="M3325 3375 c-25 -9 -63 -38 -101 -78 -48 -50 -85 -77 -172 -122 -64
-33 -133 -78 -164 -107 l-53 -49 70 50 c39 28 116 73 172 100 83 42 111 61
153 110 34 40 68 66 101 80 27 12 49 24 49 26 0 8 -12 5 -55 -10z"/>
<path d="M3844 3351 c-29 -15 -65 -37 -80 -48 -16 -11 -58 -37 -94 -57 -36
-20 -58 -36 -49 -36 13 0 268 146 286 164 15 14 -16 3 -63 -23z"/>
<path d="M2195 2615 c-128 -94 -250 -163 -389 -221 -319 -132 -424 -200 -631
-408 -82 -83 -172 -180 -198 -216 l-49 -65 68 75 c276 307 467 453 740 566
121 49 275 127 358 181 92 59 231 170 204 162 -2 0 -48 -33 -103 -74z"/>
<path d="M1875 1785 c-243 -246 -418 -377 -647 -485 -193 -90 -361 -124 -488
-97 -41 8 -84 18 -95 21 -11 4 0 -4 25 -16 40 -21 59 -23 175 -22 119 0 138 3
230 33 237 79 501 245 721 453 61 58 164 172 263 291 37 45 -9 1 -184 -178z"/>
<path d="M1411 1235 c-128 -135 -168 -216 -202 -402 -31 -175 -54 -256 -103
-359 -53 -112 -42 -116 13 -6 50 99 73 177 106 348 37 196 77 277 205 417 34
37 60 70 58 73 -3 2 -37 -30 -77 -71z"/>
<path d="M1020 1054 c-36 -19 -91 -40 -122 -46 -52 -11 -66 -10 -135 11 -149
45 -286 36 -439 -28 -112 -46 -324 -187 -324 -215 0 -5 8 -2 19 5 178 131 246
170 378 216 67 23 94 27 193 27 140 0 207 -21 265 -85 20 -23 39 -39 41 -36 3
3 -9 21 -25 40 -17 19 -31 37 -31 40 0 2 22 7 49 9 47 5 156 50 196 82 32 25
5 17 -65 -20z"/>
<path d="M880 608 c-30 -157 -115 -311 -294 -533 -30 -38 -51 -72 -45 -74 6
-1 16 4 22 12 223 278 298 412 327 581 15 85 7 98 -10 14z"/>
</g>
</svg>
