<?xml version="1.0" standalone="no"?>
<!DOCTYPE svg PUBLIC "-//W3C//DTD SVG 20010904//EN"
 "http://www.w3.org/TR/2001/REC-SVG-20010904/DTD/svg10.dtd">
<svg version="1.0" xmlns="http://www.w3.org/2000/svg"
 width="1024.000000pt" height="1024.000000pt" viewBox="0 0 1024.000000 1024.000000"
 preserveAspectRatio="xMidYMid meet">
<metadata>
Created by potrace 1.16, written by Peter Selinger 2001-2019
</metadata>
<g transform="translate(0.000000,1024.000000) scale(0.100000,-0.100000)"
fill="#02DEF0" stroke="none">
<path d="M9511 10226 c-6 -7 -17 -31 -25 -52 l-13 -39 -75 4 c-54 2 -83 -1
-104 -12 -33 -18 -229 -215 -329 -331 -68 -79 -307 -397 -404 -537 -38 -55
-64 -110 -97 -203 -24 -70 -44 -139 -44 -154 0 -19 -19 -49 -63 -98 -34 -38
-147 -169 -252 -289 -104 -120 -210 -242 -235 -270 -104 -118 -335 -387 -380
-445 -42 -52 -50 -68 -50 -103 0 -23 7 -55 15 -70 14 -27 13 -28 -12 -38 -48
-18 -84 -51 -114 -105 l-31 -54 -52 6 c-74 9 -99 -6 -247 -144 -103 -96 -143
-127 -229 -172 -124 -66 -162 -101 -185 -171 -19 -55 -74 -113 -391 -414
l-106 -100 5 -42 c4 -38 2 -44 -29 -65 -71 -51 -319 -293 -330 -322 -6 -16
-24 -40 -40 -52 -77 -61 -264 -274 -264 -300 0 -11 -9 -25 -20 -32 -26 -16
-230 -322 -230 -345 0 -47 54 -87 118 -87 51 0 128 48 197 122 49 53 65 78 65
99 0 22 5 29 19 29 23 0 61 44 61 70 0 13 6 17 19 13 13 -3 43 16 97 65 98 85
108 97 101 121 -3 15 2 20 25 25 34 7 78 51 78 78 0 14 5 18 18 14 12 -4 43
15 97 59 44 35 80 63 82 62 1 -2 -16 -58 -37 -126 -36 -114 -39 -130 -33 -200
9 -109 42 -164 173 -284 151 -140 244 -169 357 -113 68 33 97 40 121 27 11 -6
49 -13 85 -16 l66 -5 90 66 91 66 45 -10 c32 -7 57 -6 83 2 62 19 58 15 189
205 26 38 23 62 -9 98 -45 49 -115 41 -193 -22 -45 -37 -56 -42 -70 -31 -15
10 -15 21 -6 91 6 44 11 100 12 125 2 61 26 108 60 115 27 6 143 139 188 216
12 20 66 71 121 113 178 137 207 169 298 329 45 79 82 152 82 161 0 10 -9 39
-21 66 l-21 49 21 34 c14 23 42 45 87 67 51 25 72 42 95 79 17 25 32 55 35 67
5 19 11 20 54 16 l48 -4 90 86 c88 85 90 86 140 86 116 0 213 36 293 108 69
62 113 131 150 233 l30 85 71 12 c80 14 175 56 230 102 36 30 190 250 203 289
5 18 15 21 59 21 l53 0 252 215 c248 213 435 382 478 433 13 15 23 40 23 56 0
28 -1 29 -15 10 -14 -18 -14 -18 -15 7 0 43 -30 130 -46 136 -21 8 -224 -194
-224 -222 0 -11 6 -38 14 -60 7 -22 16 -56 20 -75 7 -40 35 -13 -337 -329
l-167 -142 -57 3 c-47 3 -57 6 -59 23 -1 11 -5 31 -7 45 -4 21 6 34 60 80 99
83 833 815 833 830 0 7 -200 -186 -445 -429 -245 -243 -450 -441 -454 -439 -5
2 -36 40 -68 85 -32 45 -98 129 -148 188 -49 59 -100 120 -113 135 l-23 27
446 457 c246 251 450 456 454 456 26 0 241 -245 333 -380 l17 -25 0 26 c1 14
-12 45 -29 67 -16 23 -30 46 -30 50 0 5 14 21 30 37 44 42 40 61 -15 68 -111
16 -216 100 -277 223 -39 79 -42 91 -46 188 -5 123 16 212 72 295 19 28 29 51
23 51 -17 0 -55 -59 -85 -132 -19 -48 -26 -86 -30 -163 -4 -98 7 -155 52 -257
5 -11 4 -18 -3 -18 -18 0 -40 55 -65 161 -15 64 -36 119 -56 152 l-32 51 19
45 c16 39 25 48 62 61 28 10 56 30 79 58 44 53 24 55 -24 2 -35 -38 -68 -52
-76 -30 -1 5 -31 13 -66 16 -55 6 -63 10 -68 30 -4 13 -10 24 -15 24 -16 0
-10 -29 11 -50 19 -19 19 -22 4 -60 -18 -46 -14 -44 -65 -28 -45 13 -47 24
-19 87 11 24 18 46 16 48 -10 11 -23 -9 -41 -61 -16 -47 -23 -56 -43 -56 -26
0 -25 15 9 83 16 29 17 37 5 37 -7 0 -19 -6 -25 -14z m262 -62 c12 -4 9 -16
-15 -64 -31 -59 -31 -59 -54 -42 -28 20 -29 31 -7 77 17 35 39 44 76 29z
m-287 -69 c227 -39 273 -79 324 -283 l31 -123 -358 -365 c-196 -200 -362 -364
-369 -364 -22 0 -143 109 -159 145 -12 23 -29 38 -57 50 -60 24 -237 65 -280
65 -21 0 -38 2 -38 5 0 7 155 222 261 363 43 58 122 156 175 218 91 107 120
133 95 86 -19 -36 -13 -60 17 -66 156 -31 204 -38 225 -32 13 3 82 62 153 132
148 144 139 145 -16 1 -152 -140 -128 -130 -261 -105 -63 12 -116 23 -118 25
-2 1 6 26 18 56 15 36 42 73 84 114 106 103 113 105 273 78z m379 -443 c0 -6
-121 -134 -270 -284 -148 -150 -348 -353 -443 -452 -95 -98 -174 -177 -176
-175 -6 7 -16 309 -11 309 3 0 35 -25 70 -55 36 -30 68 -55 71 -55 21 0 98 73
398 382 187 192 345 347 350 345 6 -2 11 -9 11 -15z m288 -175 l67 -23 -29
-28 -30 -29 -28 33 c-31 37 -56 70 -51 70 2 -1 33 -11 71 -23z m-1465 -282
c139 -28 222 -56 243 -83 17 -22 19 -41 19 -192 l0 -167 33 -41 c17 -22 68
-82 111 -134 122 -143 224 -284 236 -326 14 -50 13 -62 -5 -62 -9 0 -17 6 -19
13 -28 95 -92 189 -303 441 l-83 99 0 153 c0 165 -7 195 -48 213 -33 15 -220
61 -249 61 -60 0 -87 -37 -128 -176 -8 -29 -21 -57 -29 -63 -11 -10 -11 0 4
46 55 176 77 219 112 226 13 2 24 5 26 6 2 0 38 -6 80 -14z m-88 -115 c-77
-89 -83 -88 -43 10 16 41 28 50 66 50 l29 0 -52 -60z m106 39 c7 -12 -106
-128 -145 -148 -13 -7 9 25 50 73 40 47 76 86 80 86 4 0 11 -5 15 -11z m49 -9
c12 -19 -54 -97 -133 -158 -44 -34 -92 -76 -107 -93 -40 -48 -75 -124 -81
-177 -9 -78 -14 -92 -31 -92 -28 0 -10 121 31 205 38 76 67 109 166 182 36 27
81 70 100 96 36 48 44 54 55 37z m65 -24 c0 -27 -83 -106 -158 -151 -42 -26
-90 -59 -107 -73 -26 -23 -27 -24 -10 -3 11 13 55 50 98 84 43 33 91 81 109
108 30 47 68 66 68 35z m50 -21 c0 -20 -55 -89 -96 -121 -22 -17 -66 -47 -99
-67 -117 -69 -170 -141 -183 -245 -5 -41 -11 -57 -22 -57 -12 0 -15 12 -13 57
4 112 65 196 202 277 89 52 154 110 171 151 12 28 40 32 40 5z m-97 -442 c-65
-69 -145 -155 -179 -193 l-61 -68 -7 -158 c-5 -103 -12 -166 -20 -179 -8 -12
-123 -132 -257 -268 -194 -196 -249 -248 -269 -247 -16 0 -48 19 -85 51 -33
28 -78 61 -100 74 -49 28 -169 73 -252 95 l-61 16 271 315 c356 413 656 757
666 763 4 3 -3 -17 -16 -44 -13 -28 -28 -50 -33 -50 -13 0 -120 -131 -120
-147 0 -7 19 -17 43 -23 23 -6 77 -23 120 -37 l79 -25 50 48 c74 72 93 101 78
119 -7 8 -30 20 -51 27 -22 6 -39 14 -39 18 0 26 74 95 171 159 77 51 125 91
149 124 l35 47 3 -146 3 -146 -118 -125z m1402 334 c8 -19 17 -56 20 -83 l7
-50 -103 -98 -104 -98 -12 52 c-6 28 -17 65 -24 81 -12 30 -11 31 87 130 54
54 102 99 107 99 4 0 14 -15 22 -33z m-1065 -497 c0 -3 -208 -214 -462 -470
l-461 -464 -105 -38 c-58 -21 -113 -36 -123 -33 -10 4 -51 33 -90 66 -40 33
-85 67 -102 75 -59 31 -221 85 -246 82 -23 -3 -26 -7 -24 -38 l2 -35 -15 34
c-8 18 -14 45 -12 60 3 22 7 26 33 23 41 -5 199 -59 260 -89 28 -14 73 -44
100 -68 85 -71 101 -79 133 -66 38 16 518 498 531 534 6 16 11 76 12 135 1
192 -8 175 184 380 l169 180 108 -131 c59 -72 108 -133 108 -137z m-730 231
c0 -10 -10 -33 -23 -52 -13 -19 -26 -42 -30 -52 -5 -14 -13 -17 -29 -11 -38
11 -40 3 32 92 37 46 50 52 50 23z m227 -37 c1 -5 -24 -38 -56 -73 l-58 -64
-69 23 c-84 28 -90 33 -71 60 l15 22 4 -23 c2 -18 9 -24 30 -24 14 -1 33 -6
41 -13 11 -10 21 -10 41 -1 21 10 26 19 26 48 0 20 3 46 6 57 5 20 8 21 47 9
22 -6 42 -16 44 -21z m580 -299 c-1 -6 -74 -79 -162 -162 l-160 -152 -20 40
-19 40 154 154 155 155 27 -32 c15 -18 27 -38 25 -43z m43 -56 c0 -12 -440
-423 -478 -446 -31 -19 -51 -23 -126 -23 -85 0 -88 1 -73 18 14 15 26 17 74
12 32 -4 67 -4 78 1 11 4 128 113 260 243 213 210 241 234 253 219 6 -9 12
-20 12 -24z m35 -59 c5 -22 -11 -42 -147 -170 -278 -264 -780 -735 -787 -738
-3 -1 -5 24 -3 56 2 32 -1 74 -6 93 -9 29 -10 19 -11 -61 -1 -54 -7 -104 -14
-116 -7 -12 -37 -44 -68 -72 -54 -49 -55 -50 -51 -22 6 41 -22 127 -62 190
l-34 54 64 26 c43 17 81 42 118 78 30 29 56 49 59 45 2 -4 10 -36 17 -70 7
-36 19 -64 27 -68 19 -7 39 11 358 320 412 399 518 496 526 488 4 -4 10 -19
14 -33z m41 -125 c-10 -59 -56 -152 -108 -216 -53 -64 -133 -111 -229 -134
-81 -19 -91 -19 -87 1 2 11 27 22 75 34 39 10 89 28 110 39 88 45 181 174 198
276 11 66 13 69 31 54 12 -10 14 -23 10 -54z m49 35 c5 -9 -30 -80 -39 -80 -2
0 1 20 7 45 10 44 20 55 32 35z m-120 -66 c-20 -70 -59 -110 -148 -153 -121
-58 -118 -48 23 87 74 72 137 128 138 127 2 -2 -4 -30 -13 -61z m-395 -54 c0
-15 -8 -34 -19 -44 -17 -16 -19 -14 -36 29 -16 44 -16 47 1 66 l19 21 17 -22
c10 -12 18 -35 18 -50z m-72 -15 c17 -37 15 -69 -6 -88 -16 -15 -18 -13 -36
29 -18 43 -18 46 -1 64 23 26 29 25 43 -5z m-55 -72 c10 -27 12 -42 5 -50 -17
-21 -34 -15 -50 21 -15 31 -15 35 0 50 23 23 28 21 45 -21z m447 -8 c0 -2 -21
-20 -46 -39 -46 -36 -120 -68 -183 -80 l-35 -6 23 24 c13 14 40 27 60 31 20 3
65 21 101 39 68 34 80 39 80 31z m-500 -50 c0 -7 -14 -9 -36 -7 l-35 4 23 25
c21 22 23 23 35 7 7 -10 13 -23 13 -29z m37 -100 c-26 -23 -36 -25 -129 -25
l-101 0 23 25 c22 24 29 25 129 25 l106 -1 -28 -24z m133 -107 c-17 -51 -43
-113 -57 -138 -73 -125 -198 -206 -333 -217 -68 -5 -74 -4 -60 10 8 9 46 21
84 27 158 25 275 133 328 303 19 64 54 124 65 113 3 -2 -10 -46 -27 -98z
m-309 -65 c-74 -71 -139 -128 -145 -128 -6 0 -12 11 -14 25 -2 14 -9 46 -17
71 l-13 46 51 51 c29 28 61 52 72 55 11 3 60 5 110 6 l90 1 -134 -127z m226
-7 c-40 -86 -102 -153 -175 -190 -47 -24 -132 -45 -132 -33 0 12 335 318 338
309 2 -6 -12 -44 -31 -86z m-1207 29 c0 -8 -4 -15 -10 -15 -5 0 -10 7 -10 15
0 8 5 15 10 15 6 0 10 -7 10 -15z m144 -36 c43 -16 94 -41 114 -55 l35 -27
-81 -77 c-48 -46 -91 -98 -106 -129 -24 -46 -28 -50 -45 -39 -19 11 -19 13 4
59 26 49 58 85 131 145 l45 37 -73 32 c-40 18 -90 38 -110 46 -26 9 -38 19
-38 32 0 21 -1 21 124 -24z m-178 -78 c-36 -38 -73 -86 -82 -107 -12 -27 -18
-34 -27 -25 -17 17 18 75 88 143 84 82 102 72 21 -11z m-66 2 c-23 -27 -50
-64 -58 -83 -9 -19 -17 -36 -18 -38 -1 -1 -8 0 -17 4 -36 13 35 122 98 150 17
7 32 13 33 14 2 0 -15 -21 -38 -47z m140 1 c-7 -20 -27 -53 -45 -73 -18 -20
-40 -51 -49 -68 -18 -37 -28 -40 -46 -18 -10 12 -10 21 1 47 14 35 136 165
145 155 3 -3 1 -22 -6 -43z m117 4 l45 -20 -20 -21 -21 -20 -54 24 c-50 22
-54 26 -44 47 11 25 18 24 94 -10z m163 -38 c0 -6 21 -24 48 -41 37 -23 54
-29 79 -24 30 5 35 2 62 -42 36 -58 59 -139 43 -155 -12 -12 -11 -14 -31 58
-21 78 -142 164 -230 164 l-44 0 23 25 c24 25 50 33 50 15z m-210 -20 c27 -14
31 -20 19 -25 -20 -7 -89 19 -89 34 0 16 31 12 70 -9z m-10 -50 c0 -4 -6 -12
-13 -18 -7 -6 -24 -34 -37 -61 l-23 -50 -38 22 c-22 12 -39 26 -39 30 0 12 20
48 47 84 l24 31 39 -15 c22 -9 40 -19 40 -23z m456 -17 c46 -71 66 -132 62
-189 -3 -43 -6 -49 -26 -52 -13 -2 -31 -1 -40 3 -15 5 -13 9 8 25 38 29 33 92
-13 181 -40 75 -41 79 -29 79 4 0 21 -21 38 -47z m-196 17 c12 -8 10 -10 -9
-10 -39 0 -108 -39 -141 -78 -16 -20 -37 -58 -46 -84 l-15 -47 -25 22 c-22 21
-24 27 -14 53 34 90 113 154 190 154 25 0 52 -5 60 -10z m-680 -20 c0 -6 -20
-51 -45 -100 -51 -101 -54 -124 -22 -143 94 -57 236 -129 254 -129 12 0 71 34
132 76 60 42 114 76 118 76 11 0 63 -75 63 -90 0 -6 -73 -113 -162 -238 -89
-125 -186 -261 -215 -302 -30 -41 -56 -85 -59 -97 -3 -12 3 -56 13 -98 11 -42
16 -78 11 -81 -4 -3 -49 -58 -99 -122 -91 -118 -131 -158 -148 -148 -5 3 4 49
20 103 33 113 34 121 15 142 -17 20 -56 137 -56 169 0 13 68 134 155 275 85
138 155 258 155 267 0 9 -10 26 -22 37 -30 28 -202 113 -227 113 -13 0 -104
-84 -248 -229 -125 -125 -238 -233 -250 -240 -12 -6 -37 -11 -55 -11 -18 0
-58 -6 -89 -13 -57 -14 -99 -6 -99 18 0 6 53 63 118 126 191 187 674 630 697
639 28 12 45 12 45 0z m199 -62 c95 -49 221 -127 221 -139 0 -6 -224 -159
-234 -159 -14 0 -266 143 -263 149 2 3 25 54 52 112 l48 106 40 -10 c22 -6 83
-32 136 -59z m552 29 c19 -12 44 -42 57 -67 61 -118 -23 -300 -146 -317 -70
-9 -86 0 -105 61 -10 29 -29 71 -43 91 -21 31 -24 45 -19 74 13 68 62 137 120
169 34 19 99 14 136 -11z m-775 -313 c89 -48 111 -72 95 -101 -5 -10 -67 -109
-138 -220 -70 -111 -144 -229 -164 -261 l-36 -59 -61 -7 c-34 -4 -64 -11 -67
-16 -3 -6 -15 -15 -26 -20 -18 -10 -19 -8 -13 28 6 38 5 40 -45 71 l-52 31
-37 -25 c-32 -22 -37 -23 -42 -9 -8 23 -86 63 -110 57 -11 -3 -70 -57 -131
-120 -60 -64 -112 -113 -114 -111 -3 3 31 63 75 134 44 71 80 136 80 145 0 22
12 26 117 40 l88 12 241 238 c132 132 244 239 248 239 4 0 46 -21 92 -46z
m-481 -26 c-38 -35 -77 -70 -89 -78 l-20 -14 20 34 c16 29 132 120 151 120 3
0 -25 -28 -62 -62z m1035 7 c8 -24 8 -40 0 -54 -13 -26 -187 -275 -313 -451
-94 -131 -97 -136 -97 -190 -1 -68 -14 -51 -34 44 l-13 66 149 212 c82 117
179 257 216 310 37 53 70 97 74 98 3 0 12 -16 18 -35z m-426 -51 c20 -20 22
-18 -160 -310 -79 -127 -144 -241 -144 -253 0 -12 9 -47 20 -78 25 -72 25 -74
-5 -63 -14 5 -31 7 -39 4 -7 -3 -39 -41 -69 -84 -76 -108 -81 -118 -66 -136
20 -24 -1 -34 -51 -23 -73 17 -73 15 -24 161 40 121 42 132 27 144 -16 11 -14
14 17 28 19 8 57 18 83 21 41 5 51 11 71 43 201 310 326 520 323 540 -5 26 -3
27 17 6z m517 -42 c-21 -39 -37 -44 -55 -18 -22 35 -21 36 24 36 36 0 40 -2
31 -18z m-37 -105 l40 -78 -29 -55 c-17 -30 -35 -59 -40 -64 -7 -6 -26 23 -54
84 l-43 94 34 51 c18 28 37 49 42 48 5 -2 27 -38 50 -80z m-123 -78 c18 -35 3
-87 -47 -163 -61 -91 -109 -148 -157 -187 -38 -31 -39 -31 -32 -8 3 13 25 41
47 63 22 21 47 50 56 65 10 14 37 52 61 84 40 52 44 62 42 112 -1 57 10 70 30
34z m-45 -75 c-4 -13 -10 -24 -15 -24 -15 0 -21 42 -9 63 10 19 11 19 20 3 5
-10 7 -28 4 -42z m83 -147 c-46 -77 -98 -132 -193 -205 -34 -25 -79 -61 -100
-79 -22 -18 -43 -33 -48 -33 -4 0 -8 17 -7 38 0 34 6 42 70 92 106 83 232 238
261 320 l11 33 24 -47 24 -48 -42 -71z m-116 123 c3 -12 -3 -29 -15 -43 -11
-12 -17 -16 -13 -9 4 7 1 19 -5 27 -10 12 -10 18 0 30 17 20 27 19 33 -5z
m-54 -97 c-7 -13 -16 -23 -20 -23 -15 0 -17 44 -2 67 l17 25 8 -23 c6 -15 5
-32 -3 -46z m-1163 20 c-8 -8 -56 17 -56 29 0 5 14 1 31 -7 17 -9 28 -19 25
-22z m-48 2 l22 -16 -72 -95 c-67 -89 -72 -94 -92 -81 -12 8 -32 20 -45 26
-23 13 -23 14 60 97 46 46 88 84 94 84 6 0 20 -7 33 -15z m-19 -144 c-41 -66
-77 -121 -81 -121 -5 0 -8 12 -8 27 0 25 33 76 118 181 59 75 47 37 -29 -87z
m1194 97 c6 -22 -16 -58 -35 -58 -11 0 -10 37 2 61 14 25 26 24 33 -3z m-957
-49 c19 -11 34 -24 34 -27 0 -6 -129 -263 -136 -271 -2 -2 -21 7 -41 20 -21
14 -57 33 -80 43 -40 18 -57 36 -33 36 15 0 111 -50 128 -66 16 -16 26 -19 17
-4 -6 10 69 149 111 206 l23 31 -39 18 c-22 10 -37 22 -34 26 7 13 13 11 50
-12z m904 -11 c0 -16 -3 -19 -11 -11 -6 6 -8 16 -5 22 11 17 16 13 16 -11z
m-916 -26 c6 -10 -103 -202 -115 -202 -9 0 -109 47 -118 57 -3 2 35 44 84 93
88 88 89 89 116 74 15 -7 30 -17 33 -22z m186 8 c47 -24 52 -32 44 -64 -5 -21
-10 -24 -34 -20 -24 5 -34 -2 -93 -73 -85 -100 -108 -140 -87 -153 25 -15 6
-20 -36 -9 -70 19 -70 21 9 165 56 103 79 136 107 152 45 26 44 26 90 2z m703
-53 c-6 -29 -10 -32 -32 -18 -13 8 -12 15 4 45 16 30 21 33 26 18 4 -10 5 -30
2 -45z m-1225 -51 c3 -13 -7 -10 -42 11 -25 16 -46 34 -46 42 0 18 84 -32 88
-53z m1163 17 c-8 -15 -10 -15 -11 -2 0 17 10 32 18 25 2 -3 -1 -13 -7 -23z
m26 -30 c-16 -16 -17 -16 -17 3 0 11 3 24 7 27 4 4 11 3 17 -3 7 -7 5 -16 -7
-27z m-607 -5 c10 -6 7 -7 -10 -2 -14 3 -32 11 -40 16 -10 6 -7 7 10 2 14 -3
32 -11 40 -16z m-667 -3 c-3 -9 -8 -14 -10 -11 -3 3 -2 9 2 15 9 16 15 13 8
-4z m640 -54 c-8 -20 -22 -55 -30 -78 -8 -24 -18 -45 -23 -48 -4 -2 -33 6 -65
19 l-57 23 62 76 61 76 34 -16 34 -16 -16 -36z m-589 51 c9 -15 -55 -85 -67
-73 -7 7 -1 21 17 46 27 35 40 42 50 27z m596 -121 c-32 -97 -33 -99 -59 -91
-46 14 -116 43 -126 53 -15 14 41 0 89 -24 22 -10 41 -18 42 -16 1 1 19 44 39
95 21 51 40 91 42 88 3 -3 -9 -50 -27 -105z m-572 87 c-2 -6 -10 -14 -16 -16
-7 -2 -10 2 -6 12 7 18 28 22 22 4z m-134 -22 c-4 -9 6 -21 26 -31 29 -15 33
-15 49 -1 10 9 20 16 24 16 20 0 -20 -42 -158 -166 -85 -76 -152 -140 -150
-143 7 -6 272 229 307 273 9 11 19 19 21 16 3 -3 12 -31 20 -64 13 -52 13 -63
-2 -109 -14 -44 -28 -60 -115 -134 l-99 -83 -34 35 c-19 19 -41 35 -50 35 -13
0 -98 50 -136 81 -7 5 288 289 300 289 1 0 0 -6 -3 -14z m169 -10 c14 -11 17
-22 11 -50 -4 -23 -2 -42 6 -51 10 -12 10 -15 -3 -15 -18 0 -27 21 -27 60 0
16 -4 32 -10 35 -12 7 -14 35 -2 35 4 0 15 -7 25 -14z m823 -12 c22 -9 34 -19
27 -21 -6 -2 -29 5 -50 16 -46 24 -31 27 23 5z m285 -46 c2 -42 -3 -52 -61
-127 -63 -82 -63 -82 -84 -63 -12 11 -27 21 -33 23 -7 2 23 50 74 117 47 62
90 109 94 105 5 -5 9 -29 10 -55z m-1041 37 c0 -12 -24 -55 -32 -55 -11 0 -10
17 2 41 9 17 30 27 30 14z m730 -10 c17 -9 30 -19 30 -23 0 -9 -41 -135 -46
-140 -1 -2 -30 4 -63 14 l-61 17 17 28 c35 54 83 119 88 119 3 0 19 -7 35 -15z
m-729 -62 c-11 -21 -20 -32 -21 -25 0 17 30 75 36 69 3 -3 -4 -22 -15 -44z
m765 -57 c-14 -48 -26 -90 -28 -92 -2 -2 -31 8 -64 21 -32 14 -67 25 -76 25
-10 0 -18 5 -18 10 0 6 3 10 6 10 18 0 115 -33 119 -41 4 -5 11 -9 17 -9 6 0
9 3 6 6 -4 3 5 38 18 77 32 96 36 104 40 92 2 -6 -7 -50 -20 -99z m-693 69
c-3 -32 -44 -145 -53 -145 -33 0 -31 91 4 145 20 30 52 30 49 0z m37 -10 c0
-16 -34 -85 -42 -85 -6 0 -7 8 -3 18 4 9 12 29 17 45 8 22 28 38 28 22z m30
-29 c0 -22 -21 -76 -30 -76 -17 0 -18 16 -3 53 15 37 33 50 33 23z m25 -48
c-7 -42 2 -55 40 -60 l30 -3 -32 -16 c-31 -17 -32 -16 -48 7 -16 25 -18 45 -9
82 10 34 26 26 19 -10z m117 -23 c-9 -28 -18 -43 -20 -33 -3 17 25 94 33 87 2
-3 -4 -27 -13 -54z m-328 7 c-6 -38 -5 -39 37 -56 43 -18 58 -12 59 22 0 22
41 13 63 -15 12 -14 34 -38 48 -52 l27 -26 -49 -140 c-27 -77 -53 -147 -57
-155 -5 -8 -27 -18 -48 -22 -21 -3 -49 -9 -61 -13 -21 -7 -18 7 47 200 39 115
68 210 65 213 -6 6 -8 -2 -85 -230 -34 -104 -66 -188 -71 -188 -26 0 -119 43
-119 56 0 7 27 96 60 197 33 101 63 197 66 215 9 46 25 40 18 -6z m294 22 c2
-1 1 -11 -2 -22 -7 -20 -42 -36 -58 -26 -10 6 -11 48 -2 57 6 6 53 -1 62 -9z
m120 1 c2 -2 -3 -25 -12 -51 -8 -27 -18 -68 -23 -92 -8 -41 -9 -42 -28 -28
-16 12 -20 25 -19 68 2 72 27 121 57 112 12 -3 23 -8 25 -9z m-391 -37 c-3 -7
-5 -2 -5 12 0 14 2 19 5 13 2 -7 2 -19 0 -25z m423 16 c0 -15 -24 -90 -32 -98
-12 -14 -10 35 3 73 9 27 29 44 29 25z m25 -73 c-7 -31 -21 -48 -32 -37 -4 3
-1 24 6 47 15 49 37 40 26 -10z m166 -12 l-9 -34 -1 31 c-1 17 2 34 6 37 12
13 14 -1 4 -34z m-138 -9 c-4 -31 -2 -41 11 -46 21 -8 56 22 56 47 0 13 5 16
16 12 21 -8 13 -47 -11 -51 -11 -2 -25 -10 -32 -19 -30 -39 -74 17 -54 70 15
38 20 34 14 -13z m205 31 c11 -6 11 -20 2 -70 -6 -34 -8 -71 -5 -81 5 -15 2
-20 -14 -20 -27 0 -41 29 -41 84 0 78 22 111 58 87z m-158 -24 c0 -24 -19 -42
-31 -30 -8 8 -8 16 1 32 11 22 30 20 30 -2z m381 2 c8 -15 8 -24 0 -32 -13
-13 -16 -10 -25 26 -8 32 8 36 25 6z m-594 -85 c41 -18 63 -13 63 14 0 23 8
32 24 26 9 -3 2 -52 -26 -187 -21 -100 -38 -186 -38 -192 1 -31 21 34 40 130
12 61 28 140 37 178 l15 67 26 -28 c15 -16 32 -31 39 -33 9 -3 4 -40 -18 -139
-16 -74 -31 -135 -32 -135 -109 -63 -120 -65 -202 -33 -48 18 -56 24 -51 42 2
12 19 95 36 186 36 189 43 211 48 157 3 -33 8 -41 39 -53z m413 40 c0 -32 -4
-44 -12 -41 -8 2 -12 17 -10 33 6 67 22 73 22 8z m-433 -1 c-3 -10 -5 -4 -5
12 0 17 2 24 5 18 2 -7 2 -21 0 -30z m563 15 c0 -35 -37 -90 -58 -86 -13 2
-17 14 -18 48 -1 27 0 33 3 15 2 -16 9 -34 13 -39 16 -16 40 15 40 50 0 19 5
34 10 34 6 0 10 -10 10 -22z m-100 -23 c0 -19 -4 -35 -10 -35 -11 0 -14 53 -3
63 11 12 13 8 13 -28z m61 -18 c-18 -18 -25 1 -11 30 l14 28 4 -24 c2 -13 -1
-28 -7 -34z m-1351 12 c-7 -11 -14 -18 -17 -15 -3 3 0 12 7 21 18 21 23 19 10
-6z m54 13 c3 -5 -3 -20 -12 -35 -12 -18 -22 -23 -32 -17 -11 7 -11 12 4 34
17 26 31 33 40 18z m40 -30 c6 -10 -29 -42 -45 -42 -5 0 -2 11 8 25 19 26 29
30 37 17z m1066 -83 c52 -15 70 -11 70 15 0 26 15 43 24 27 3 -5 0 -82 -6
-171 l-12 -162 -48 5 c-93 11 -92 10 -84 166 4 75 10 152 14 171 l6 35 6 -40
c4 -31 10 -41 30 -46z m-1179 49 c22 -12 39 -24 39 -27 0 -3 -50 -59 -111
-125 -60 -65 -108 -121 -105 -123 4 -4 44 36 182 186 l49 53 8 -42 9 -43 -92
-92 c-88 -88 -92 -91 -128 -86 -36 6 -112 48 -112 63 0 4 42 55 93 114 50 58
99 114 107 124 19 24 15 24 61 -2z m1106 9 c-3 -8 -8 -83 -12 -168 -6 -131 -5
-158 9 -184 17 -32 21 -69 7 -63 -4 2 -31 24 -59 49 -41 38 -49 49 -38 58 7 6
28 81 47 166 19 85 38 155 42 155 5 0 7 -6 4 -13z m-922 -3 c43 -17 37 -89 -9
-120 -50 -32 -93 2 -88 71 2 39 55 65 97 49z m1153 -34 c37 -17 39 -29 21
-155 -10 -71 -13 -80 -51 -116 l-41 -39 6 58 c3 31 9 106 13 165 4 59 10 106
13 104 3 -2 21 -10 39 -17z m-609 -160 c-15 -69 -17 -100 -10 -112 6 -10 11
-28 11 -40 0 -20 -2 -20 -35 12 -37 36 -43 55 -21 63 7 3 26 44 41 91 15 48
29 85 31 84 1 -2 -6 -46 -17 -98z m-630 29 c12 -20 7 -27 -67 -102 -65 -64
-83 -78 -101 -72 -11 3 -21 11 -21 17 0 11 159 178 170 178 3 0 11 -10 19 -21z
m1521 -79 c45 -24 43 -45 -11 -119 l-51 -70 -29 21 c-16 12 -29 27 -29 33 0 6
-11 22 -25 35 l-25 24 22 24 c51 55 106 74 148 52z m-1211 -67 c0 -40 -2 -44
-10 -25 -8 21 -3 72 7 72 2 0 4 -21 3 -47z m-649 17 c13 -8 12 -12 -6 -31 -28
-28 -46 -18 -31 16 13 28 16 29 37 15z m710 -53 c3 -31 4 -57 2 -57 -2 0 -12
4 -22 10 -36 19 -38 115 -2 108 13 -2 18 -18 22 -61z m158 21 c4 -47 -11 -76
-44 -84 -33 -8 -64 20 -64 58 0 21 8 33 33 48 48 30 71 23 75 -22z m-926 10
c-7 -7 -12 -8 -12 -2 0 14 12 26 19 19 2 -3 -1 -11 -7 -17z m803 -16 c-3 -16
-1 -41 4 -55 6 -15 7 -27 2 -27 -14 0 -33 67 -26 90 10 31 27 24 20 -8z m-705
10 c0 -12 -23 -32 -37 -32 -9 0 -8 6 4 20 18 21 33 26 33 12z m1621 -17 c43
-28 69 -69 53 -85 -7 -7 -26 -5 -57 6 -46 16 -47 16 -47 60 0 24 2 44 5 44 3
0 23 -11 46 -25z m-1533 -23 c8 -54 -54 -86 -78 -41 -15 27 -5 66 18 71 28 7
57 -8 60 -30z m1460 15 c10 -51 -33 -102 -64 -76 -8 6 -14 21 -14 33 0 20 1
20 20 -4 20 -25 20 -25 35 -5 17 21 16 48 0 43 -5 -2 -9 -11 -8 -20 3 -21 -15
-24 -23 -4 -8 21 15 58 34 54 9 -2 18 -11 20 -21z m-1602 -25 c33 4 34 3 49
-48 8 -29 15 -58 15 -66 0 -23 -134 -157 -173 -173 -46 -19 -85 -19 -117 1
-23 14 -23 15 -3 11 33 -7 75 25 112 86 36 62 37 101 1 112 -26 8 -25 12 10
68 l30 47 21 -21 c15 -15 30 -20 55 -17z m1021 -24 c-2 -13 -4 -3 -4 22 0 25
2 35 4 23 2 -13 2 -33 0 -45z m219 35 c13 -49 -38 -109 -73 -87 -29 18 -28 60
1 89 34 33 64 33 72 -2z m-247 -67 c64 -76 70 -87 61 -110 -5 -14 -13 -26 -18
-26 -5 0 -39 32 -77 71 -60 62 -67 73 -57 90 7 10 12 28 12 39 0 11 2 20 4 20
2 0 36 -38 75 -84z m93 34 c10 -58 8 -64 -20 -45 -29 21 -33 99 -5 93 12 -2
20 -17 25 -48z m327 7 c0 -21 -1 -21 -9 -2 -12 28 -12 37 0 30 6 -3 10 -16 9
-28z m-283 -22 c1 -45 -9 -59 -20 -29 -11 28 -7 74 7 74 8 0 12 -16 13 -45z
m334 26 c0 -11 3 -26 6 -35 3 -9 2 -16 -2 -16 -18 0 -33 16 -39 43 -6 23 -4
27 14 27 14 0 21 -6 21 -19z m-126 -56 c39 -46 53 -70 49 -85 -3 -11 -9 -20
-13 -20 -4 0 -33 24 -64 53 -56 51 -57 53 -46 85 7 17 13 32 15 32 2 0 28 -29
59 -65z m169 38 c6 -32 3 -38 -12 -28 -13 8 -15 55 -2 55 5 0 11 -12 14 -27z
m-706 -43 c20 0 24 -3 15 -12 -8 -8 -22 -7 -56 6 -25 10 -48 22 -51 26 -3 5
10 3 29 -5 20 -8 48 -15 63 -15z m875 9 c31 -10 37 -17 40 -45 3 -29 1 -34
-18 -34 -12 0 -38 7 -59 16 -20 8 -40 13 -43 10 -3 -3 1 -6 8 -6 7 0 11 -2 9
-5 -3 -2 -38 7 -79 20 -56 18 -64 23 -34 19 45 -6 114 16 114 36 0 7 6 9 13 6
6 -2 28 -10 49 -17z m108 1 c0 -5 -7 -7 -15 -4 -20 8 -19 -6 2 -21 15 -11 15
-15 4 -29 -7 -9 -17 -16 -22 -16 -14 0 -20 39 -9 60 11 20 40 28 40 10z m-830
-72 c62 -66 69 -77 68 -111 l-1 -39 -96 96 c-91 92 -95 96 -76 110 11 9 24 16
28 16 4 0 39 -33 77 -72z m476 47 c11 -17 35 -30 75 -41 32 -9 59 -19 59 -23
0 -3 -23 -21 -50 -39 -45 -29 -50 -30 -50 -13 0 11 -11 28 -25 39 -14 11 -25
25 -25 31 0 7 -7 25 -15 41 -14 27 -14 30 0 30 8 0 22 -11 31 -25z m-1552 -1
c33 -13 4 -96 -54 -154 -21 -21 -65 -27 -75 -9 -7 11 92 169 105 169 5 0 15
-3 24 -6z m1033 -106 c48 -48 85 -90 82 -92 -12 -13 -91 41 -174 118 l-90 83
47 -11 c41 -9 61 -24 135 -98z m396 59 c52 -46 58 -57 55 -85 l-3 -32 -87 58
-87 58 27 27 c14 15 29 27 32 27 3 -1 31 -24 63 -53z m-166 26 c23 -3 40 -10
37 -15 -7 -11 -60 -1 -94 19 -16 9 -18 12 -5 8 10 -3 38 -9 62 -12z m105 -84
c43 -28 78 -53 78 -55 0 -14 -39 4 -111 51 -50 32 -76 55 -65 55 11 0 55 -23
98 -51z m-88 -4 l59 -40 -39 -17 -39 -17 -6 28 c-8 37 -17 51 -35 51 -8 0 -14
9 -14 21 0 25 -1 25 74 -26z m284 -16 c3 -29 -20 -54 -43 -45 -18 7 -20 47 -3
64 19 19 43 10 46 -19z m-328 -34 c0 -20 -22 -55 -35 -55 -35 0 -48 56 -19 84
21 21 54 4 54 -29z"/>
<path d="M9204 9534 c-78 -100 -254 -361 -254 -377 0 -14 -4 -20 98 133 49 74
120 175 156 223 74 100 79 107 72 107 -3 0 -35 -39 -72 -86z"/>
<path d="M9090 9055 c-16 -20 -9 -49 14 -53 27 -6 48 25 35 49 -12 23 -32 24
-49 4z m40 -18 c0 -8 -3 -17 -7 -20 -9 -9 -34 13 -27 24 8 14 34 11 34 -4z"/>
<path d="M7982 8303 c-126 -143 -352 -415 -352 -423 0 -13 22 -24 138 -64 58
-20 110 -33 117 -28 27 15 415 476 415 493 0 10 -15 23 -40 33 -51 20 -179 56
-201 56 -9 0 -44 -30 -77 -67z m160 31 c84 -21 138 -44 138 -58 0 -6 -70 -92
-156 -191 -86 -99 -172 -201 -192 -227 -21 -26 -43 -49 -51 -53 -7 -3 -62 12
-122 32 -78 27 -108 42 -104 52 3 7 92 114 198 237 122 142 199 224 211 224
10 0 45 -7 78 -16z"/>
<path d="M7967 7614 c-12 -12 -8 -41 8 -54 20 -17 47 5 43 34 -3 21 -37 34
-51 20z m39 -15 c10 -17 -13 -36 -27 -22 -12 12 -4 33 11 33 5 0 12 -5 16 -11z"/>
<path d="M7247 7364 c-4 -4 -7 -16 -7 -26 0 -13 7 -18 26 -18 21 0 25 4 22 22
-3 23 -27 35 -41 22z m33 -24 c0 -5 -4 -10 -9 -10 -6 0 -13 5 -16 10 -3 6 1
10 9 10 9 0 16 -4 16 -10z"/>
<path d="M7534 7209 c-10 -17 23 -46 37 -32 7 7 9 19 6 27 -7 18 -33 21 -43 5z
m31 -9 c3 -5 1 -10 -4 -10 -6 0 -11 5 -11 10 0 6 2 10 4 10 3 0 8 -4 11 -10z"/>
<path d="M7844 7311 c-61 -37 -91 -142 -60 -215 41 -97 170 -87 220 18 21 45
21 130 -1 166 -30 52 -102 66 -159 31z m100 -1 c14 -5 35 -24 46 -42 62 -101
-41 -259 -141 -217 -39 15 -59 56 -59 116 0 57 26 105 72 133 38 23 47 24 82
10z"/>
<path d="M7846 7250 c-47 -56 -43 -132 8 -165 21 -14 28 -14 59 -2 47 20 67
52 67 107 0 63 -21 90 -70 90 -30 0 -43 -6 -64 -30z m107 -12 c25 -33 17 -89
-18 -124 -65 -65 -136 18 -90 106 29 56 74 63 108 18z"/>
<path d="M6865 6848 c-125 -128 -230 -240 -234 -248 -5 -8 -2 -30 5 -50 l13
-35 -6 39 c-6 38 -5 39 133 180 289 293 338 346 327 346 -6 0 -113 -105 -238
-232z"/>
<path d="M7124 7052 c4 -11 2 -23 -4 -27 -5 -3 -10 2 -10 11 0 14 -3 15 -12 6
-16 -16 4 -37 26 -29 18 7 21 42 5 53 -7 4 -9 0 -5 -14z"/>
<path d="M7233 6974 c-8 -21 13 -42 28 -27 13 13 5 43 -11 43 -6 0 -13 -7 -17
-16z m27 -8 c0 -3 -4 -8 -10 -11 -5 -3 -10 -1 -10 4 0 6 5 11 10 11 6 0 10 -2
10 -4z"/>
<path d="M6920 6360 c0 -5 6 -7 14 -4 9 3 20 -5 30 -23 10 -18 15 -22 16 -11
0 9 -7 24 -16 32 -17 18 -44 21 -44 6z"/>
<path d="M5846 5854 c-9 -8 -16 -22 -16 -29 0 -13 26 -45 36 -45 14 0 42 21
48 35 16 42 -36 72 -68 39z m52 -28 c-4 -25 -36 -34 -44 -12 -8 21 13 46 32
39 8 -3 14 -15 12 -27z"/>
<path d="M6282 5578 c-7 -7 -12 -24 -12 -39 0 -37 29 -47 52 -19 23 29 23 47
-1 60 -24 13 -24 13 -39 -2z m38 -27 c0 -11 -5 -23 -11 -27 -15 -9 -33 12 -26
30 9 23 37 20 37 -3z"/>
<path d="M5547 5543 c-13 -12 -7 -51 8 -57 14 -5 45 17 45 33 0 21 -39 39 -53
24z m33 -28 c0 -8 -7 -15 -15 -15 -8 0 -15 7 -15 15 0 8 7 15 15 15 8 0 15 -7
15 -15z"/>
<path d="M6642 5528 c-16 -16 -15 -43 3 -58 21 -18 47 5 43 39 -3 29 -27 38
-46 19z m36 -25 c-5 -25 -28 -28 -28 -4 0 12 6 21 16 21 9 0 14 -7 12 -17z"/>
<path d="M7210 5425 c0 -8 7 -15 15 -15 8 0 15 4 15 9 0 5 -7 11 -15 15 -9 3
-15 0 -15 -9z"/>
<path d="M6867 5324 c-16 -16 -7 -44 14 -44 15 0 20 5 17 22 -3 22 -19 33 -31
22z"/>
<path d="M6525 5280 c-7 -23 1 -40 20 -40 16 0 29 35 20 50 -10 17 -33 11 -40
-10z m25 -10 c0 -5 -5 -10 -11 -10 -5 0 -7 5 -4 10 3 6 8 10 11 10 2 0 4 -4 4
-10z"/>
<path d="M9995 10187 c-125 -188 -106 -426 44 -577 49 -49 145 -94 185 -87 15
2 8 7 -24 16 -74 21 -114 47 -168 105 -134 148 -137 402 -6 555 25 29 31 41
20 41 -9 0 -32 -24 -51 -53z"/>
<path d="M10148 10211 c-111 -70 -167 -216 -138 -356 7 -33 19 -73 27 -89 37
-73 149 -163 191 -153 11 2 -3 12 -35 26 -61 27 -116 83 -147 150 -31 67 -30
206 2 276 30 65 85 122 147 151 40 19 45 24 24 24 -14 0 -46 -13 -71 -29z"/>
<path d="M10195 10168 c-74 -40 -125 -123 -132 -213 -6 -75 8 -129 50 -191 36
-55 127 -115 127 -85 0 5 -13 14 -29 21 -115 47 -168 223 -105 349 24 47 50
73 120 118 25 16 -3 17 -31 1z"/>
<path d="M10198 10053 c-15 -16 -32 -41 -37 -56 -27 -71 -1 -175 53 -211 31
-20 34 -7 5 20 -58 52 -69 148 -25 214 14 22 31 40 36 40 6 0 10 5 10 10 0 17
-15 11 -42 -17z"/>
<path d="M9857 9564 c-13 -13 -7 -52 8 -58 27 -10 46 5 43 33 -3 26 -35 41
-51 25z m43 -29 c0 -8 -6 -15 -14 -15 -17 0 -28 14 -19 24 12 12 33 6 33 -9z"/>
<path d="M10140 9211 c-7 -15 -6 -24 6 -36 19 -18 33 -16 48 7 7 12 6 21 -3
32 -18 22 -38 20 -51 -3z m43 -16 c1 -5 -6 -11 -15 -13 -11 -2 -18 3 -18 13 0
17 30 18 33 0z"/>
<path d="M9067 8754 c-13 -13 -7 -52 8 -58 27 -10 46 5 43 33 -3 26 -35 41
-51 25z m41 -26 c-3 -7 -11 -13 -18 -13 -7 0 -15 6 -17 13 -3 7 4 12 17 12 13
0 20 -5 18 -12z"/>
<path d="M9333 8404 c-7 -18 6 -45 24 -51 6 -2 18 3 27 12 12 12 13 21 6 36
-13 23 -48 25 -57 3z m47 -20 c0 -9 -7 -14 -17 -12 -25 5 -28 28 -4 28 12 0
21 -6 21 -16z"/>
<path d="M4855 5124 c-66 -25 -178 -74 -250 -109 -71 -34 -164 -77 -206 -94
-51 -21 -101 -53 -150 -94 -185 -156 -302 -241 -434 -313 -79 -43 -149 -105
-203 -178 -20 -28 -76 -93 -124 -145 -49 -52 -129 -153 -180 -225 -51 -71
-115 -154 -143 -185 -29 -31 -95 -111 -148 -178 -77 -97 -118 -139 -202 -204
-58 -44 -129 -108 -158 -142 -120 -140 -300 -327 -539 -562 -543 -534 -634
-608 -1098 -885 -369 -220 -609 -389 -843 -592 -144 -126 -177 -161 -177 -190
0 -15 25 4 102 77 123 116 292 254 442 360 l110 78 -77 -84 c-198 -218 -367
-469 -521 -777 -32 -63 -55 -119 -53 -125 2 -7 38 56 81 139 188 368 418 688
627 871 38 33 175 123 315 208 223 133 795 508 899 588 22 17 33 22 24 12 -9
-11 -50 -61 -91 -111 -112 -137 -299 -388 -359 -485 -41 -65 -91 -121 -207
-234 -85 -82 -208 -214 -275 -294 -287 -343 -451 -511 -552 -564 -22 -12 -68
-33 -101 -48 -34 -14 -78 -42 -97 -61 -19 -20 -87 -61 -151 -93 -64 -32 -116
-61 -116 -66 0 -10 133 51 196 90 27 16 50 28 52 26 3 -2 -3 -25 -12 -51 -9
-26 -16 -62 -16 -80 0 -44 41 -91 86 -100 19 -3 34 -10 34 -15 0 -15 -129
-146 -212 -217 -44 -36 -75 -68 -68 -70 22 -8 272 230 286 272 5 15 13 17 46
13 53 -7 82 -36 113 -115 l25 -66 -52 -53 c-64 -65 -52 -70 19 -8 46 40 54 44
78 35 42 -16 68 -12 133 21 77 38 99 72 112 174 11 90 27 129 103 251 82 132
121 181 217 268 166 150 341 274 675 474 232 139 358 221 423 276 24 20 46 36
48 36 2 0 -15 -30 -38 -67 -56 -93 -218 -418 -218 -439 0 -2 4 -4 9 -4 5 0 52
87 104 193 191 386 366 618 791 1047 139 140 279 285 312 322 53 60 61 65 77
53 17 -12 13 -19 -60 -92 -43 -44 -112 -124 -154 -179 -155 -203 -515 -726
-748 -1088 -130 -201 -425 -524 -594 -650 -182 -135 -384 -246 -712 -391 -112
-50 -194 -92 -217 -113 -43 -39 -112 -146 -105 -165 2 -6 12 4 22 23 31 62 84
126 122 151 21 14 94 49 163 78 320 138 612 302 780 438 75 61 239 225 338
338 l53 60 -77 -120 c-109 -171 -188 -284 -292 -414 -118 -148 -329 -376 -436
-471 -46 -41 -85 -78 -85 -82 -1 -5 9 -8 20 -8 41 0 338 303 516 525 121 152
231 312 483 705 201 313 380 580 593 884 313 445 420 556 568 590 189 43 394
166 594 356 148 140 200 176 269 184 98 11 207 36 248 57 38 19 126 116 153
169 22 42 19 122 -4 152 l-19 24 44 69 c65 103 70 164 19 238 -23 34 -23 40
-16 154 8 130 1 172 -35 221 -51 67 -110 75 -348 47 -71 -9 -131 -13 -133 -11
-3 3 12 20 33 38 22 18 82 73 134 124 52 50 124 108 160 129 36 21 97 60 135
85 39 26 112 68 163 94 97 51 183 119 207 167 19 36 19 82 0 119 -33 64 -88
65 -250 4z m214 -10 c12 -15 21 -38 21 -52 0 -62 -90 -145 -228 -211 l-72 -35
-31 30 c-17 16 -40 46 -51 67 -10 22 -22 36 -25 33 -8 -8 41 -87 71 -115 l26
-25 -42 -28 c-24 -16 -80 -51 -125 -79 l-82 -50 -37 41 c-20 22 -41 40 -47 40
-6 0 6 -17 26 -38 39 -40 47 -62 21 -62 -40 0 -79 46 -115 138 -11 28 -18 39
-19 26 0 -36 61 -145 91 -163 16 -9 29 -19 29 -22 0 -6 -99 -101 -193 -185
-53 -48 -57 -55 -57 -95 0 -24 4 -60 10 -78 5 -19 8 -36 6 -39 -3 -2 -208 -31
-233 -32 -1 0 -1 6 2 13 11 35 15 117 5 117 -5 0 -10 -17 -10 -39 0 -76 -10
-101 -51 -121 l-37 -20 -22 66 c-12 36 -33 77 -47 92 l-25 27 20 -35 c27 -47
56 -150 45 -161 -4 -4 -40 -21 -79 -37 -70 -29 -71 -29 -95 -11 -13 10 -31 18
-39 18 -8 0 -3 -7 13 -15 15 -8 27 -18 27 -23 0 -5 -37 -14 -82 -21 -89 -13
-182 -50 -192 -77 -10 -26 0 -26 42 2 26 17 68 31 123 41 119 20 183 40 272
85 43 21 80 39 81 39 2 0 6 -23 9 -52 4 -28 13 -58 21 -66 13 -13 13 -9 0 28
-20 56 -15 104 10 108 13 3 17 0 14 -10 -3 -7 -2 -31 2 -53 7 -39 8 -38 9 17
1 66 -11 60 141 79 52 6 101 14 110 17 13 5 13 3 1 -11 -16 -20 -11 -108 9
-132 16 -19 89 -20 134 -1 47 20 66 51 66 111 0 36 3 46 10 35 14 -22 12 -97
-4 -129 -47 -90 -248 -201 -364 -201 -54 0 -233 -92 -291 -150 -71 -71 -101
-84 -203 -84 -49 -1 -88 -4 -88 -8 0 -13 163 -8 203 7 38 13 38 13 20 -7 -38
-42 -114 -71 -203 -77 -76 -6 -81 -8 -45 -14 49 -9 134 6 192 34 24 12 65 45
91 75 26 30 50 54 53 54 23 0 -42 -192 -112 -331 -100 -200 -200 -278 -365
-287 -69 -4 -97 0 -150 18 -82 27 -96 20 -17 -10 154 -58 319 -23 436 93 l51
52 -44 -64 c-25 -36 -68 -83 -97 -105 -58 -45 -63 -60 -9 -26 69 42 125 119
202 279 84 172 134 309 134 369 0 37 22 73 36 59 3 -3 10 -77 14 -164 9 -151
29 -301 37 -276 3 7 -3 60 -11 118 -9 58 -16 159 -16 223 l0 118 45 22 45 22
0 -73 c0 -93 21 -187 60 -279 114 -262 118 -230 -37 -373 -138 -126 -261 -214
-388 -275 -81 -39 -219 -80 -243 -72 -7 2 -31 43 -53 90 -21 47 -42 83 -45 80
-3 -4 3 -23 14 -45 11 -21 23 -49 27 -63 4 -14 16 -36 25 -50 18 -25 18 -26
-11 -42 -28 -16 -30 -16 -60 9 -17 14 -52 58 -78 97 -27 39 -91 110 -144 159
-55 50 -104 105 -116 129 l-20 42 39 42 c21 23 57 78 78 121 49 96 102 168
218 297 147 162 144 158 144 245 0 53 -3 71 -10 61 -5 -8 -10 -43 -10 -77 l0
-63 -72 -81 c-198 -221 -218 -248 -293 -389 -58 -109 -109 -152 -192 -165 -26
-4 -63 -13 -82 -21 -19 -8 -36 -13 -38 -10 -2 2 16 43 39 92 43 89 43 89 113
124 69 35 71 37 108 115 76 162 79 165 225 295 132 117 194 180 176 180 -4 0
-44 -35 -89 -77 -45 -43 -119 -112 -165 -153 -77 -69 -87 -82 -133 -180 -27
-58 -56 -113 -65 -124 -9 -10 -45 -31 -80 -46 l-62 -29 -44 -93 c-25 -51 -54
-108 -66 -125 -26 -39 -16 -41 36 -11 56 33 201 69 214 53 27 -32 -277 -398
-513 -617 -209 -194 -327 -290 -722 -592 -121 -93 -226 -173 -234 -180 -21
-16 46 87 141 217 285 392 654 801 972 1075 64 55 33 47 -35 -9 -103 -85 -255
-233 -418 -406 -84 -88 -185 -186 -224 -216 -68 -51 -245 -174 -277 -191 -19
-11 -14 -7 100 99 179 165 786 775 881 886 58 68 125 135 161 159 87 62 183
154 244 235 28 39 91 115 139 170 48 55 121 150 163 210 42 61 115 151 162
200 47 50 111 124 142 166 66 90 86 106 235 192 108 63 188 122 378 278 70 57
113 84 176 109 46 18 136 60 199 92 135 68 341 147 387 148 22 0 37 -8 52 -26z
m-382 -767 c47 -26 68 -67 71 -142 4 -72 -12 -268 -24 -299 -6 -14 -11 -11
-28 20 -11 21 -27 39 -34 42 -8 2 0 -15 17 -38 17 -24 31 -50 31 -59 0 -16
-114 -131 -131 -131 -5 0 -9 11 -9 24 0 27 -33 56 -64 56 -31 0 -105 -49 -111
-73 -4 -13 3 -44 14 -71 25 -58 25 -55 1 -49 -55 15 -78 107 -44 179 21 44
128 161 168 181 25 14 27 18 13 21 -10 2 -25 -2 -33 -9 -24 -20 -27 -3 -5 40
23 44 28 116 10 154 -9 19 -7 31 5 56 9 17 12 31 6 31 -5 0 -10 -3 -10 -7 0
-5 -7 -16 -14 -26 -12 -16 -17 -16 -34 -6 -17 11 -37 10 -112 -6 -74 -15 -93
-16 -100 -5 -8 13 -23 91 -18 95 7 6 279 33 343 33 39 1 80 -4 92 -11z m-215
-162 c12 -45 -8 -102 -40 -119 -35 -17 -95 -28 -115 -20 -15 5 -37 60 -37 89
0 22 19 37 76 60 76 32 105 30 116 -10z m-38 -257 c-23 -24 -48 -54 -58 -68
l-16 -24 0 29 c0 24 10 37 48 67 64 49 75 47 26 -4z m366 -24 c18 -53 7 -95
-45 -176 -109 -169 -137 -195 -276 -248 -66 -25 -77 -25 -56 -2 38 41 4 102
-55 102 -18 0 -52 -9 -75 -20 -48 -21 -54 -44 -29 -105 13 -29 13 -33 0 -28
-8 3 -22 19 -30 35 -30 57 -5 106 81 165 l30 21 28 -24 c48 -41 84 -33 172 37
171 138 206 178 220 252 8 43 19 41 35 -9z m-455 -66 c-4 -29 -9 -79 -10 -111
-3 -56 -4 -58 -51 -90 -26 -17 -57 -45 -68 -60 -29 -40 -27 -106 6 -149 19
-26 24 -41 20 -70 -3 -26 2 -48 15 -71 l20 -33 -37 -27 -37 -26 -12 56 c-6 32
-31 100 -56 153 -57 122 -73 188 -76 301 -2 110 1 113 99 123 37 4 92 18 122
30 30 13 59 24 64 25 5 1 5 -22 1 -51z m215 -58 c6 -12 8 -29 5 -40 -7 -23
-85 -100 -101 -100 -6 0 -21 22 -32 49 l-20 49 21 20 c52 46 109 56 127 22z
m180 -179 c20 -39 11 -103 -21 -146 -61 -81 -118 -132 -161 -144 -51 -14 -188
-40 -188 -36 0 2 16 12 35 24 27 16 35 27 35 49 0 34 -14 49 -50 54 -17 2 11
17 100 52 108 43 131 57 172 99 27 28 48 54 48 59 0 15 19 8 30 -11z m-334
-56 c21 -21 23 -28 14 -46 -11 -19 -95 -79 -112 -79 -12 0 -36 53 -40 86 -3
27 1 30 47 46 64 22 62 22 91 -7z m-111 -205 c0 -50 -8 -64 -19 -34 -8 21 -8
69 1 77 14 15 18 5 18 -43z m119 37 c27 -20 16 -49 -29 -74 -52 -30 -60 -29
-75 8 -16 37 -5 60 31 70 38 11 54 10 73 -4z m-1344 -418 c0 -3 -73 -73 -162
-155 -406 -372 -822 -773 -813 -782 3 -3 71 59 153 139 167 164 370 355 650
613 l193 177 39 -31 c22 -18 40 -33 40 -35 0 -1 -31 -25 -69 -53 -202 -147
-600 -531 -961 -927 -204 -223 -389 -414 -545 -564 -332 -316 -488 -490 -634
-706 -126 -185 -171 -285 -171 -378 0 -21 -6 -50 -14 -66 -20 -38 -92 -83
-143 -89 -57 -6 -87 14 -101 70 -14 54 -44 102 -75 123 -14 9 -53 20 -88 26
-120 19 -142 53 -105 161 31 87 52 110 126 137 151 55 290 186 624 586 145
174 330 362 461 470 55 45 199 157 319 250 275 209 388 299 496 394 124 108
368 351 464 461 96 110 216 268 216 284 0 11 99 -93 100 -105z m134 -117 c3
-5 -55 -80 -127 -168 -73 -87 -250 -303 -392 -479 -206 -254 -513 -626 -615
-746 -8 -9 -114 -77 -235 -149 -331 -199 -556 -354 -674 -464 -24 -23 -40 -33
-35 -24 23 42 218 249 404 427 228 218 321 314 686 706 300 322 603 621 772
763 67 56 125 102 128 102 11 0 -383 -462 -505 -592 -40 -43 -69 -78 -64 -78
21 0 269 275 506 562 114 138 138 160 151 140z m54 -82 l32 -51 -303 -307
c-334 -338 -425 -441 -575 -644 -72 -96 -122 -153 -169 -191 -141 -112 -140
-105 13 78 83 99 283 344 446 545 420 518 512 629 519 625 3 -2 20 -27 37 -55z"/>
<path d="M4085 4455 c33 -28 71 -50 110 -65 39 -15 29 -3 -17 21 -24 12 -57
32 -74 45 -41 32 -57 31 -19 -1z"/>
<path d="M4076 4075 c4 -33 8 -62 10 -64 8 -9 2 85 -7 104 -6 13 -7 0 -3 -40z"/>
<path d="M3040 3171 c0 -32 146 -171 180 -171 7 0 -15 20 -48 44 -32 24 -74
65 -92 90 -34 47 -40 53 -40 37z"/>
<path d="M4584 3637 c3 -11 9 -30 12 -43 3 -13 10 -21 15 -19 4 3 3 18 -3 33
-14 32 -34 56 -24 29z"/>
<path d="M4583 3426 c4 -10 7 -26 7 -37 0 -10 4 -19 8 -19 12 0 2 59 -11 67
-7 4 -8 0 -4 -11z"/>
<path d="M1426 1537 c-26 -35 -104 -150 -172 -257 -69 -107 -155 -235 -192
-284 -132 -177 -282 -307 -472 -410 -105 -56 -139 -90 -146 -142 l-4 -39 15
40 c22 57 49 81 149 133 177 91 338 232 476 416 38 50 120 173 184 273 97 155
135 211 219 321 5 6 6 12 1 12 -5 0 -31 -29 -58 -63z"/>
<path d="M490 410 c0 -5 8 -10 18 -10 56 0 112 -72 112 -145 0 -48 29 -75 78
-74 36 2 36 2 7 8 -55 11 -65 23 -75 90 -10 70 -33 104 -87 127 -38 17 -53 18
-53 4z"/>
</g>
</svg>
