<?xml version="1.0" encoding="utf-8" ?><svg xmlns="http://www.w3.org/2000/svg" xmlns:xlink="http://www.w3.org/1999/xlink" width="1254" height="1254" viewBox="0 0 1254 1254"><path fill="white" transform="scale(1.22461 1.22461)" d="M0 0L1024 0L1024 1024L0 1024L0 0Z"/><path fill="#02DEF0" transform="scale(1.22461 1.22461)" d="M511.76 410.435C514.755 413.772 514.644 470.573 529.449 489.083C532.82 493.298 537.192 496.41 542.067 498.672C560.974 507.445 594.785 509.25 615.573 511.502C592.843 515.516 555.115 514.284 535.402 528.152C515.306 542.289 515.964 588.982 512.342 612.02L512.292 612.55C511.265 612.357 510.783 604.59 510.634 603.214C508.602 584.43 506.541 551.521 495.812 535.773C480.606 513.456 434.503 515.893 410.792 511.633L410.06 511.498C500.893 501.068 502.697 503.717 511.76 410.435Z"/></svg>