<svg width="998" height="378" viewBox="0 0 998 378" fill="none" xmlns="http://www.w3.org/2000/svg">
<path d="M84.512 108.373C107.542 106.366 130.468 113.247 148.586 127.604C167.534 142.607 180.732 165.311 183.308 189.431C186.172 214.134 178.758 238.929 162.802 258.004C147.338 276.862 124.988 288.769 100.71 291.083C77.0883 293.273 53.5607 286.019 35.2737 270.907C31.9549 268.251 29.0706 265.34 26.0257 262.379C25.4827 290.514 25.8648 319.972 25.8538 348.208L0.189764 348.123C-0.185218 338.418 0.110567 326.715 0.114569 316.857L0.132147 258.729L0.0794127 219.896C0.0624128 207.435 -0.431782 193.624 2.17316 181.517C5.36516 167.039 11.9105 153.512 21.2825 142.024C37.1425 122.336 58.665 111.164 83.6478 108.496C83.9357 108.455 84.2241 108.414 84.512 108.373ZM157.376 194.004C154.134 158.084 122.418 131.573 86.4935 134.751C50.4765 137.937 23.8821 169.75 27.1331 205.762C30.3843 241.773 62.2454 268.309 98.2503 264.994C134.164 261.687 160.619 229.924 157.376 194.004Z" fill="#FEFEFE"/>
<path d="M370.756 112.771C374.631 112.242 382.735 112.308 386.659 112.593C408.699 114.273 429.159 124.675 443.503 141.493C461.307 162.115 466.032 184.219 464.019 210.613L321.068 210.674C323.175 219.354 326.342 226.947 331.782 234.123C341.348 246.789 355.58 255.107 371.311 257.223C388.966 259.631 404.383 254.794 418.35 244.099C422.118 240.972 424.576 238.241 427.925 234.641C435.549 238.42 443.115 242.317 450.617 246.332C450.008 247.267 449.362 248.179 448.684 249.065C419.505 287.618 365.074 295.244 326.931 265.307C309.049 251.149 297.488 230.494 294.771 207.848C292.148 184.982 298.823 162.022 313.297 144.128C327.482 126.407 348.179 115.112 370.756 112.771ZM438.172 185.335C429.539 154.164 405.513 135.352 372.67 138.459C345.336 142.448 328.023 158.867 320.901 185.338L387.411 185.367L438.172 185.335Z" fill="#FEFEFE"/>
<path d="M903.531 112.78C907.421 112.226 915.76 112.292 919.711 112.585C941.871 114.263 962.421 124.823 976.681 141.869C993.811 161.939 998.951 184.874 996.811 210.621L853.99 210.689C855.891 219.398 859.674 227.587 865.071 234.68C874.751 247.225 889.031 255.39 904.751 257.365C922.041 259.524 937.472 254.734 951.092 244.17C954.501 241.427 957.621 237.924 960.631 234.718C968.39 238.398 976.041 242.296 983.581 246.408C982.951 247.339 982.291 248.253 981.601 249.145C953.111 286.746 900.081 294.975 862.034 266.917C843.562 253.295 830.566 231.552 827.758 208.733C824.843 185.64 831.466 162.355 846.099 144.254C860.238 126.474 880.931 115.131 903.531 112.78ZM970.941 185.369C963.381 155.779 936.681 133.42 905.321 138.436C877.841 142.931 861.136 158.703 853.662 185.378L920.831 185.358L970.941 185.369Z" fill="#FEFEFE"/>
<path d="M787.248 112.523C797.638 112.435 808.18 112.556 818.583 112.582C812.213 119.819 802.273 133.895 796.297 141.841L754.258 197.662C760.579 206.78 769.31 217.689 776.098 226.682L818.11 282.609C814.347 283.255 791.76 282.956 787.182 282.949C784.945 279.704 782.281 276.139 779.832 273.015C765.926 255.279 753.043 235.592 738.513 218.461C732.55 225.438 725.839 234.861 720.251 242.308L689.828 282.942L658.75 282.838C666.345 273.467 674.532 261.964 681.847 252.163C695.367 233.975 708.978 215.855 722.68 197.804C702.933 169.987 679.305 140.218 658.662 112.582L689.741 112.518C705.305 133.232 722.507 157.133 738.657 177.141L787.248 112.523Z" fill="#FEFEFE"/>
<path d="M560.565 110.948C580.12 109.75 600.339 118.07 614.004 131.961C623.164 141.267 629.651 152.867 632.784 165.544C635.816 177.757 634.93 201.255 634.925 214.561L634.821 282.823L609.266 282.949L609.306 213.21C609.322 204.018 609.906 182.907 608.415 174.581C607.126 167.355 604.143 160.537 599.712 154.686C590.979 143.322 580.49 138.796 566.691 136.979L565.794 136.964C552.485 136.857 540.191 140.924 530.708 150.511C524.582 156.712 520.372 164.547 518.581 173.077C516.64 181.893 517.364 203.189 517.367 213.168L517.385 282.842L492.06 282.878C490.947 251.708 492.797 219.579 491.923 188.39C490.74 146.135 517.975 114.193 560.565 110.948Z" fill="#FEFEFE"/>
<path d="M230.293 108.246L256.016 108.072L255.928 282.812L230.258 282.841L230.293 108.246Z" fill="#FEFEFE"/>
<path d="M530.737 343.327C531.8 343.456 533.387 343.449 534.034 344.079C540.406 350.288 547.289 360.711 552.869 367.782C552.992 362.605 551.497 346.966 554.746 343.869C557.02 343.707 556.051 343.429 557.832 344.359C558.386 348.741 559 374.141 557.533 377.456L554.394 377.05C550.605 374.679 538.647 357.674 535.107 352.983C535.007 357.395 535.859 373.78 534.105 376.217C531.974 377.564 533.065 377.35 530.803 377.212L529.896 375.951C529.086 368.928 529.562 352.355 529.783 344.597C530.101 344.174 530.419 343.75 530.737 343.327Z" fill="#FEFEFE"/>
<path d="M241.4 343.581C246.201 343.717 247.518 343.589 249.069 348.958C250.815 355.003 259.877 371.547 260.157 376.625C258.191 377.72 259.185 377.55 257.132 377.407C251.697 373.683 255.301 369.373 247.089 369.05L236.11 369.163C235.216 371.387 233.906 375.458 232.28 376.911C230.551 376.934 229.564 377.106 227.994 376.372C229.339 371.095 238.911 349.407 241.4 343.581ZM237.951 364.495L244.755 364.694C247.168 364.605 247.931 365.01 249.587 363.867C248.923 361.422 245.373 352.121 243.796 350.5L237.951 364.495Z" fill="#FEFEFE"/>
<path d="M341.267 343.47C344.639 343.287 347.489 343.239 350.793 344.175C354.138 345.122 360.551 349.148 358.333 353.23L356.68 353.638C351.385 352.236 348.559 346.523 343.157 347.926C327.163 352.078 331.676 376.567 348.729 372.397C351.472 371.727 353.761 369.708 354.979 367.191C354.974 364.759 355.382 365.725 354.204 364.032L352.19 363.919C349.988 363.905 348.01 364.184 346.187 363.108C345.993 360.895 345.713 361.845 346.888 360.116C350.44 358.521 355.919 359.23 360.067 359.352L360.22 370.614C354.484 376.326 346.528 379.766 338.581 376.583C334.17 374.788 330.725 371.211 329.098 366.735C325.126 355.945 330.781 346.915 341.267 343.47Z" fill="#FEFEFE"/>
<path d="M433.303 343.637C438.07 343.63 452.712 342.844 456.338 344.321C456.851 345.953 456.808 345.332 456.433 347.016C453.73 349.41 442.702 348.489 438.56 348.47L438.462 357.805C443.021 357.787 451.451 357.084 454.854 359.93L454.666 360.712C450.872 363.288 443.315 362.714 438.578 362.673L438.469 372.244C443.618 372.425 453.297 370.816 456.692 374.22C456.817 376.18 457.149 375.422 456.164 376.735C450.618 377.616 439.383 377.138 433.226 377.076C433.147 365.925 432.974 354.783 433.303 343.637Z" fill="#FEFEFE"/>
<path d="M643.766 343.467C650.656 343.226 657.639 343.694 661.187 351.136C661.936 352.707 661.731 352.574 661.145 353.979C655.512 356.446 655.58 346.795 645.555 348.309C642.351 348.777 639.496 350.584 637.704 353.282C631.144 363.122 638.564 375.236 652.416 371.849C655.719 369.574 656.331 365.729 660.554 367.11C661.002 368.127 661.389 369.695 660.685 370.64C647.807 387.938 622.198 371.333 632.718 351.675C635.27 346.907 638.655 345.04 643.766 343.467Z" fill="#FEFEFE"/>
<path d="M733.02 343.662L736.322 343.583C739.766 345.17 745.165 355.801 747.442 359.758C750.867 354.436 754.629 343.11 761.613 343.662L761.981 344.532C761.21 347.722 758.327 351.728 756.462 354.674L750.066 364.963C750.12 368.028 751.029 376.924 747.019 377.774C743.794 375.115 744.516 368.531 744.564 364.775C741.214 359.389 735.144 350.172 732.513 344.845L733.02 343.662Z" fill="#FEFEFE"/>
<path d="M242.307 0C243.736 1.60151 243.683 28.8617 250.742 37.7451C252.35 39.768 254.435 41.2615 256.759 42.3471C265.775 46.5575 281.898 47.4238 291.811 48.5046C280.972 50.431 262.981 49.8397 253.581 56.4953C243.998 63.28 244.312 85.6891 242.585 96.7457L242.561 97C242.071 96.9074 241.841 93.1798 241.77 92.5194C240.801 83.5045 239.819 67.7107 234.702 60.1528C227.451 49.4423 205.467 50.6119 194.16 48.5674L193.811 48.5026C237.125 43.497 237.986 44.7683 242.307 0Z" fill="#02DEF0"/>
</svg>
